<?xml version="1.0" standalone="no"?>
<!DOCTYPE svg PUBLIC "-//W3C//DTD SVG 1.1//EN" "http://www.w3.org/Graphics/SVG/1.1/DTD/svg11.dtd" >
<svg xmlns="http://www.w3.org/2000/svg" xmlns:xlink="http://www.w3.org/1999/xlink" version="1.1">
<metadata>
Created by FontForge 20161004 at Wed Jun 28 22:11:19 2017
 By Momenoor
Copyright (c) Boutros International, 2004. All rights reserved.
</metadata>
<defs>
<font id="GESSTwoMedium-Medium" horiz-adv-x="0" >
  <font-face 
    font-family="GE SS Two Medium"
    font-weight="500"
    font-stretch="normal"
    units-per-em="1000"
    panose-1="2 10 5 3 2 1 2 2 2 4"
    ascent="800"
    descent="-200"
    x-height="550"
    cap-height="743"
    bbox="-124 -411 1378 981"
    underline-thickness="50"
    underline-position="-100"
    unicode-range="U+0020-FEFF"
  />
<missing-glyph horiz-adv-x="500" 
d="M63 0v750h375v-750h-375zM125 63h250v625h-250v-625z" />
    <glyph glyph-name="shaddakasraarabic" unicode="&#x650;&#x651;" arabic-form="isolated" 
d="M230 806c1 -8 2 -14 2 -19c0 -20 -15 -36 -46 -36c-17 0 -31 11 -44 33c-1 -33 -17 -53 -48 -53c-23 0 -37 12 -42 37l-16 77l31 7l15 -68c3 -11 8 -17 15 -17c9 0 24 9 24 29c0 4 0 8 -1 12l-11 53l32 7l11 -53c4 -20 16 -30 32 -30c9 0 13 5 13 15c0 2 0 5 -1 8l-14 68
l32 7zM258 742c-3 -22 -18 -37 -47 -44c-7 -1 -55 -12 -146 -31c6 19 19 31 39 38z" />
    <glyph glyph-name="shaddakasratanarabic" unicode="&#x64d;&#x651;" arabic-form="isolated" 
d="M204 880c2 -7 3 -14 3 -19c0 -19 -16 -36 -47 -36c-16 0 -31 11 -44 33c-1 -32 -18 -53 -48 -53c-23 0 -37 13 -42 38l-16 77l31 7l15 -69c3 -11 8 -17 15 -17c9 0 24 10 24 29c0 5 0 9 -1 12l-12 53l33 7l11 -52c4 -20 16 -31 32 -31c9 0 13 5 13 15v9l-15 68l32 7z
M231 809c-2 -22 -18 -37 -48 -44c-6 -1 -54 -11 -145 -30c6 18 19 31 39 38zM219 746c-2 -21 -18 -36 -47 -43c-7 -1 -55 -12 -146 -31c6 19 19 31 39 38z" />
    <glyph glyph-name="shaddafathaarabic" unicode="&#x64e;&#x651;" arabic-form="isolated" 
d="M223 885c-3 -22 -18 -37 -47 -44c-7 -1 -55 -11 -146 -30c7 18 20 30 39 37zM235 741c2 -8 3 -14 3 -19c0 -19 -15 -37 -46 -37c-17 0 -31 11 -44 34c-1 -33 -19 -54 -48 -54c-23 0 -38 13 -43 38l-16 77l32 7l15 -68c2 -12 7 -18 14 -18c11 0 24 10 24 30
c0 3 -1 7 -2 12l-11 52l34 8l11 -53c4 -20 14 -30 31 -30c9 0 14 5 14 14c0 3 0 6 -1 9l-15 68l32 6z" />
    <glyph glyph-name="shaddadammaarabicX" unicode="&#x64f;&#x651;" arabic-form="isolated" 
d="M185 916c0 -37 -50 -100 -155 -100l-14 23c31 0 82 15 97 30c-18 15 -27 33 -27 53c0 25 16 50 47 50c35 0 52 -31 52 -56zM226 747c2 -8 3 -15 3 -20c0 -20 -15 -36 -46 -36c-17 0 -32 11 -45 34c-1 -34 -17 -54 -48 -54c-23 0 -37 13 -42 38l-16 77l32 6l14 -68
c3 -11 8 -17 15 -17c9 0 24 9 24 30c0 3 0 7 -1 12l-11 51l32 8l11 -53c4 -20 16 -30 32 -30c9 0 14 5 14 15c0 2 0 5 -1 9l-15 67l32 7zM135 948c-17 0 -25 -9 -25 -26c0 -18 7 -31 21 -40c20 12 30 25 30 40c0 13 -11 26 -26 26z" />
    <glyph glyph-name="lamalefhamzaaboveisolatedarabi" unicode="&#xfedf;&#xfe84;" horiz-adv-x="580" arabic-form="isolated" 
d="M546 645v-488c0 -95 -68 -157 -176 -157h-299v114h153l-126 460h118l125 -460c31 0 53 7 68 22c19 19 28 51 28 96v413h109zM244 622h-173v46h40c-6 19 -9 30 -9 35c0 47 35 81 78 81c28 0 49 -15 63 -44l-36 -19c-3 15 -13 22 -28 22c-21 0 -34 -19 -34 -38
c0 -17 6 -30 18 -37h81v-46z" />
    <glyph glyph-name="lamalefmaddaabovefinalarabic" unicode="&#xfee0;&#xfe82;" horiz-adv-x="678" arabic-form="final" 
d="M697 0h-626v114h153l-126 460h118l125 -460c31 0 53 7 68 22c19 19 28 51 28 96v413h109v-488c0 -15 -1 -29 -4 -43h155v-114zM265 662c-18 -28 -36 -42 -54 -42c-10 0 -27 8 -50 25s-43 25 -58 25s-29 -9 -42 -27l-9 34c16 28 33 42 51 42c11 0 29 -8 54 -25
s42 -25 53 -25c15 0 31 9 46 28z" />
    <glyph glyph-name="shaddadammatanarabic" unicode="&#x64c;&#x651;" arabic-form="isolated" 
d="M173 925c0 -37 -48 -100 -155 -100c-3 5 -8 13 -13 23c14 9 21 24 21 45c0 17 -10 29 -28 29c-8 0 -18 -4 -27 -11c7 22 21 31 41 31c25 0 38 -15 38 -44c0 -17 -6 -32 -18 -45c21 0 57 12 70 24c-18 16 -27 34 -27 54c0 25 17 50 46 50c36 0 52 -31 52 -56zM207 752
c1 -7 1 -14 1 -19c0 -20 -15 -36 -46 -36c-17 0 -31 11 -44 33c-1 -33 -18 -54 -48 -54c-23 0 -37 13 -42 38l-16 78l31 6l15 -68c3 -12 8 -18 15 -18c9 0 24 10 24 30c0 4 0 8 -1 12l-11 52l32 8l11 -53c4 -20 16 -30 32 -30c9 0 13 5 13 15c0 2 0 5 -1 9l-14 67l32 8z
M124 957c-17 0 -25 -9 -25 -26c0 -18 7 -31 21 -40c20 12 30 25 30 40c0 13 -13 26 -26 26z" />
    <glyph glyph-name="lamalefisolatedarabic" unicode="&#xfedf;&#xfe8e;" horiz-adv-x="580" arabic-form="isolated" 
d="M546 645v-488c0 -95 -68 -157 -176 -157h-299v114h153l-126 460h118l125 -460c31 0 53 7 68 22c19 19 28 51 28 96v413h109z" />
    <glyph glyph-name="lamaleffinalarabic" unicode="&#xfee0;&#xfe8e;" horiz-adv-x="678" arabic-form="final" 
d="M698 0h-627v114h153l-126 460h118l125 -460c31 0 53 7 68 22c19 19 28 51 28 96v413h109v-488c0 -15 -1 -29 -4 -43h156v-114z" />
    <glyph glyph-name="lamalefhamzaabovefinalarabicX" unicode="&#xfee0;&#xfe84;" horiz-adv-x="678" arabic-form="final" 
d="M697 0h-626v114h153l-126 460h118l125 -460c31 0 53 7 68 22c19 19 28 51 28 96v413h109v-488c0 -15 -1 -29 -4 -43h155v-114zM244 622h-173v46h40c-6 19 -9 30 -9 35c0 47 35 81 78 81c28 0 49 -15 63 -44l-36 -19c-3 15 -13 22 -28 22c-21 0 -34 -19 -34 -38
c0 -17 6 -30 18 -37h81v-46z" />
    <glyph glyph-name="lamalefhamzabelowisolatedarabi" unicode="&#xfedf;&#xfe88;" horiz-adv-x="580" arabic-form="isolated" 
d="M546 645v-488c0 -95 -68 -157 -176 -157h-299v114h153l-126 460h118l125 -460c31 0 53 7 68 22c19 19 28 51 28 96v413h109zM250 -205h-173v46h40c-6 19 -9 31 -9 35c0 47 35 83 78 83c28 0 49 -15 63 -46l-36 -17c-3 15 -13 22 -28 22c-20 0 -34 -19 -34 -39
c0 -18 6 -31 18 -38h81v-46z" />
    <glyph glyph-name="lamalefhamzabelowfinalarabicX" unicode="&#xfee0;&#xfe88;" horiz-adv-x="678" arabic-form="final" 
d="M697 0h-626v114h153l-126 460h118l125 -460c31 0 53 7 68 22c19 19 28 51 28 96v413h109v-488c0 -15 -1 -29 -4 -43h155v-114zM250 -205h-173v46h40c-6 19 -9 31 -9 35c0 47 35 83 78 83c28 0 49 -15 63 -46l-36 -17c-3 15 -13 22 -28 22c-20 0 -34 -19 -34 -39
c0 -18 6 -31 18 -38h81v-46z" />
    <glyph glyph-name="lamalefmaddaaboveisolatedarabi" unicode="&#xfedf;&#xfe82;" horiz-adv-x="580" arabic-form="isolated" 
d="M546 645v-488c0 -95 -68 -157 -176 -157h-299v114h153l-126 460h118l125 -460c31 0 53 7 68 22c19 19 28 51 28 96v413h109zM265 662c-18 -28 -36 -42 -54 -42c-10 0 -27 8 -50 25s-43 25 -58 25s-29 -9 -42 -27l-9 34c16 28 33 42 51 42c11 0 29 -8 54 -25
s42 -25 53 -25c15 0 31 9 46 28z" />
    <glyph glyph-name="alefmaddaabovearabic" unicode="&#x627;&#x653;" horiz-adv-x="214" 
d="M182 0h-111v646h111v-646zM226 731c-18 -28 -36 -42 -54 -42c-10 0 -27 8 -50 25s-43 25 -58 25s-29 -9 -42 -27l-9 34c16 28 33 42 51 42c11 0 29 -8 54 -25s42 -25 53 -25c15 0 31 9 46 28z" />
    <glyph glyph-name="alefhamzaabovearabic" unicode="&#x627;&#x654;" horiz-adv-x="214" 
d="M182 0h-111v646h111v-646zM210 697h-173v46h40c-6 19 -9 30 -9 35c0 47 35 81 78 81c28 0 49 -15 63 -44l-36 -19c-3 15 -13 22 -28 22c-21 0 -34 -19 -34 -38c0 -17 6 -30 18 -37h81v-46z" />
    <glyph glyph-name="wawhamzaabovearabic" unicode="&#x648;&#x654;" horiz-adv-x="525" 
d="M493 14c0 -119 -72 -179 -217 -179v89c70 2 105 49 107 127c-19 -34 -55 -51 -106 -51c-129 0 -215 95 -215 228c0 135 89 227 215 227c132 0 216 -98 216 -230v-211zM378 223c0 78 -42 130 -106 130c-59 0 -98 -57 -98 -125c0 -70 42 -127 103 -127c60 0 101 56 101 122
zM376 511h-222v63h48c-3 12 -5 23 -5 33c0 56 41 99 94 99c39 0 67 -20 84 -59l-56 -26c-6 17 -15 26 -28 26c-19 0 -29 -13 -29 -38c0 -18 6 -30 18 -35h96v-63z" />
    <glyph glyph-name="alefhamzabelowarabic" unicode="&#x627;&#x655;" horiz-adv-x="214" 
d="M182 0h-111v646h111v-646zM214 -205h-173v46h40c-6 19 -9 31 -9 35c0 47 35 83 78 83c28 0 49 -15 63 -46l-36 -17c-3 15 -13 22 -28 22c-20 0 -34 -19 -34 -39c0 -18 6 -31 18 -38h81v-46z" />
    <glyph glyph-name="yehhamzaabovearabic" unicode="&#x64a;&#x654;" horiz-adv-x="759" 
d="M727 176c0 -97 -33 -179 -100 -244c-66 -65 -147 -98 -244 -98h-7c-97 0 -179 33 -245 98s-99 147 -99 244v111h112v-99c0 -74 20 -133 60 -177c41 -47 100 -70 176 -70c145 0 223 78 235 233h-264c0 212 122 328 337 328v-104c-55 0 -97 -7 -126 -21
c-35 -17 -63 -49 -82 -94h247v-107zM282 357h-249v67h54c-7 15 -10 32 -10 49c0 63 45 112 106 112c45 0 76 -20 93 -59l-47 -32c-7 21 -21 32 -42 32c-30 0 -45 -19 -45 -58c0 -19 5 -33 14 -44h126v-67z" />
    <glyph glyph-name="allahisolated" unicode="&#xfedf;&#xfee0;&#xfeea;" horiz-adv-x="1223" arabic-form="isolated" 
d="M872 808v-78c0 -33 -15 -47 -44 -47c-23 0 -38 16 -46 43c-8 -29 -24 -43 -47 -43c-31 0 -46 16 -46 47v78h33v-69c1 -14 5 -21 14 -21c19 0 28 16 28 37v53h33v-53c0 -22 10 -37 28 -37c9 0 14 7 14 21v69h33zM1190 181c0 -121 -56 -181 -168 -181h-474
c-87 0 -158 59 -181 148c-35 -50 -78 -75 -128 -75c-128 0 -207 96 -207 235c0 150 79 243 207 243h247v-317c0 -78 37 -120 112 -120h61c56 0 79 25 79 110v411h111v-405c0 -59 -8 -97 -25 -116h180c58 0 75 19 75 105v426h111v-464zM370 319v145h-101
c-78 0 -126 -62 -126 -155c0 -77 43 -143 110 -143c73 0 117 68 117 153z" />
    <glyph glyph-name="alefwithfathatanisolated" unicode="&#x627;&#x64b;" horiz-adv-x="214" arabic-form="isolated" 
d="M182 0h-111v646h111v-646zM238 817c-3 -21 -19 -36 -48 -43c-7 -2 -55 -12 -146 -31c6 18 19 31 39 38zM226 755c-3 -22 -19 -37 -48 -44c-7 -1 -55 -11 -146 -30c6 18 19 31 39 38z" />
    <glyph glyph-name="alefwithfathatanfinal" unicode="&#xfe8e;&#x64b;" horiz-adv-x="346" arabic-form="final" 
d="M248 817c-3 -21 -19 -36 -48 -43c-7 -2 -52 -11 -136 -29l-10 -2c6 18 19 31 39 38zM236 755c-3 -22 -19 -37 -48 -44c-7 -1 -55 -11 -146 -30c6 18 19 31 39 38zM366 0h-131c-54 0 -95 17 -124 52c-27 32 -40 75 -40 130v463h111v-418c0 -49 11 -81 32 -96
c15 -11 44 -17 86 -17h66v-114z" />
    <glyph glyph-name="behinitialarabic" unicode="&#x628;" horiz-adv-x="301" arabic-form="initial" 
d="M267 181c0 -121 -56 -181 -167 -181h-108v114h85c37 0 60 11 71 33c5 12 8 36 8 72v235h111v-273zM266 -219h-109v112h109v-112z" />
    <glyph glyph-name="tehinitialarabic" unicode="&#x62a;" horiz-adv-x="308" arabic-form="initial" 
d="M276 181c0 -121 -56 -181 -167 -181h-118v114h94c37 0 60 11 71 33c5 12 8 36 8 72v235h112v-273zM84 546h-110v111h110v-111zM273 546h-110v111h110v-111z" />
    <glyph glyph-name="thehinitialarabic" unicode="&#x62b;" horiz-adv-x="308" arabic-form="initial" 
d="M276 181c0 -121 -56 -181 -167 -181h-122v114h98c37 0 60 11 71 33c5 11 8 35 8 72v235h112v-273zM185 690h-108v99h108v-99zM273 546h-108v99h108v-99zM100 546h-108v99h108v-99z" />
    <glyph glyph-name="jeeminitialarabic" unicode="&#x62c;" horiz-adv-x="715" arabic-form="initial" 
d="M402 -220h-110v112h110v-112zM683 70v-70h-704v114h583c0 62 -17 115 -52 159c-41 51 -99 76 -172 76c-25 0 -53 -6 -84 -19c-36 -15 -66 -36 -90 -63c-11 21 -29 50 -54 88c31 29 66 53 107 71c44 19 88 28 132 28c74 0 138 -18 192 -55c95 -63 142 -172 142 -329z" />
    <glyph glyph-name="hahinitialarabic" unicode="&#x62d;" horiz-adv-x="715" arabic-form="initial" 
d="M683 70v-70h-704v114h583c0 62 -17 115 -52 159c-41 51 -99 76 -172 76c-25 0 -53 -6 -84 -19c-36 -15 -66 -36 -90 -63c-11 21 -29 50 -54 88c31 29 66 53 107 71c44 19 88 28 132 28c74 0 138 -18 192 -55c95 -63 142 -172 142 -329z" />
    <glyph glyph-name="khahinitialarabic" unicode="&#x62e;" horiz-adv-x="715" arabic-form="initial" 
d="M683 70v-70h-704v114h583c0 62 -17 115 -52 159c-41 51 -99 76 -172 76c-25 0 -53 -6 -84 -19c-36 -15 -66 -36 -90 -63c-11 21 -29 50 -54 88c31 29 66 53 107 71c44 19 88 28 132 28c74 0 138 -18 192 -55c95 -63 142 -172 142 -329zM402 548h-110v111h110v-111z" />
    <glyph glyph-name="seeninitialarabic" unicode="&#x633;" horiz-adv-x="873" arabic-form="initial" 
d="M-13 114h82c57 0 85 39 85 118v222h113v-218c0 -59 -6 -97 -18 -116v-6h104c57 0 85 37 85 111v229h113v-218c0 -65 -8 -106 -23 -122h109c57 0 85 37 85 110v230h113v-216c0 -144 -80 -238 -194 -238h-654v114z" />
    <glyph glyph-name="sheeninitialarabic" unicode="&#x634;" horiz-adv-x="873" arabic-form="initial" 
d="M-13 114h82c57 0 85 39 85 118v222h113v-218c0 -59 -6 -97 -18 -116v-6h104c57 0 85 37 85 111v229h113v-218c0 -65 -8 -106 -23 -122h109c57 0 85 37 85 110v230h113v-216c0 -144 -80 -238 -194 -238h-654v114zM439 703v112h110v-112h-110zM533 546v111h109v-111h-109z
M344 546v111h109v-111h-109z" />
    <glyph glyph-name="tahinitialarabic" unicode="&#x637;" horiz-adv-x="850" arabic-form="initial" 
d="M813 0h-829v114h184v531h110l-12 -362c92 119 188 173 293 173c173 0 259 -118 259 -352c0 -33 -2 -67 -5 -104zM703 114v32c0 127 -57 210 -154 210c-113 0 -226 -100 -294 -242h448z" />
    <glyph glyph-name="zahinitialarabic" unicode="&#x638;" horiz-adv-x="850" arabic-form="initial" 
d="M813 0h-829v114h184v531h110l-12 -362c92 119 188 173 293 173c173 0 259 -118 259 -352c0 -33 -2 -67 -5 -104zM703 114v32c0 127 -57 210 -154 210c-113 0 -226 -100 -294 -242h448zM591 546h-110v111h110v-111z" />
    <glyph glyph-name="aininitialarabic" unicode="&#x639;" horiz-adv-x="576" arabic-form="initial" 
d="M544 0h-554v114h145c-15 33 -22 68 -22 105c0 67 21 124 64 171s99 70 166 70c88 0 163 -48 196 -129l-96 -46c-17 51 -52 77 -105 77c-37 0 -65 -15 -85 -44c-18 -26 -27 -58 -27 -97c0 -45 12 -80 36 -107h282v-114z" />
    <glyph glyph-name="ghaininitialarabic" unicode="&#x63a;" horiz-adv-x="576" arabic-form="initial" 
d="M544 0h-554v114h145c-15 33 -22 68 -22 105c0 67 21 124 64 171s99 70 166 70c88 0 163 -48 196 -129l-96 -46c-17 51 -52 77 -105 77c-37 0 -65 -15 -85 -44c-18 -26 -27 -58 -27 -97c0 -45 12 -80 36 -107h282v-114zM395 548h-110v111h110v-111z" />
    <glyph glyph-name="fehinitialarabic" unicode="&#x641;" horiz-adv-x="599" arabic-form="initial" 
d="M567 230c0 -132 -90 -230 -224 -230h-356v114h159c-19 36 -29 76 -29 119c0 136 93 231 226 231s224 -103 224 -234zM452 230c0 76 -46 132 -113 132c-64 0 -107 -50 -107 -128c0 -72 46 -131 113 -131c65 0 107 53 107 127zM397 548h-109v111h109v-111z" />
    <glyph glyph-name="qafinitialarabic" unicode="&#x642;" horiz-adv-x="599" arabic-form="initial" 
d="M492 549h-109v111h109v-111zM302 549h-109v111h109v-111zM567 230c0 -132 -90 -230 -224 -230h-356v114h159c-19 36 -29 76 -29 119c0 136 93 231 226 231s224 -103 224 -234zM452 230c0 76 -46 132 -113 132c-64 0 -107 -50 -107 -128c0 -72 46 -131 113 -131
c65 0 107 53 107 127z" />
    <glyph glyph-name="kafinitialarabic" unicode="&#x643;" horiz-adv-x="684" arabic-form="initial" 
d="M652 70v-70h-669v114h549c0 62 -18 115 -54 159c-42 51 -100 76 -173 76h-231l197 296h133l-135 -191h49c74 0 138 -18 192 -55c95 -63 142 -172 142 -329z" />
    <glyph glyph-name="laminitialarabic" unicode="&#x644;" horiz-adv-x="300" arabic-form="initial" 
d="M268 181c0 -121 -56 -181 -168 -181h-118v114h95c37 0 60 11 71 33c5 12 8 36 8 72v426h112v-464z" />
    <glyph glyph-name="meeminitialarabic" unicode="&#x645;" horiz-adv-x="601" arabic-form="initial" 
d="M568 142c0 -133 -91 -231 -224 -231c-77 0 -138 30 -181 89h-180v114h138l-1 5c-1 9 -2 18 -2 27c0 134 93 230 226 230s224 -103 224 -234zM453 142c0 76 -46 133 -112 133c-63 0 -108 -53 -108 -128s47 -132 114 -132c62 0 106 51 106 127z" />
    <glyph glyph-name="nooninitialarabic" unicode="&#x646;" horiz-adv-x="301" arabic-form="initial" 
d="M268 181c0 -121 -56 -181 -168 -181h-118v114h95c37 0 60 11 71 33c5 12 8 36 8 72v235h112v-273zM266 546h-109v111h109v-111z" />
    <glyph glyph-name="hehinitialarabic" unicode="&#x647;" horiz-adv-x="751" arabic-form="initial" 
d="M708 0h-724v114h147c-17 41 -26 75 -26 104c0 118 79 194 198 194c117 0 198 -74 198 -194c0 -29 -9 -63 -26 -104h132c1 9 1 18 1 27c0 169 -103 320 -248 350l13 107c214 -43 345 -229 345 -479c0 -39 -3 -79 -10 -119zM395 218c0 60 -33 105 -92 105s-92 -45 -92 -105
c0 -61 38 -107 92 -107s92 46 92 107z" />
    <glyph glyph-name="yehinitialarabic" unicode="&#x64a;" horiz-adv-x="308" arabic-form="initial" 
d="M276 181c0 -121 -56 -181 -167 -181h-118v114h94c37 0 60 11 71 33c5 12 8 36 8 72v235h112v-273zM84 -219h-110v112h110v-112zM273 -219h-110v112h110v-112z" />
    <glyph glyph-name="yehhamzaabovemedialarabic" unicode="&#x626;" horiz-adv-x="431" arabic-form="medial" 
d="M278 455h-248v67h53c-6 15 -9 31 -9 49c0 63 44 112 107 112c44 0 75 -20 92 -60l-47 -31c-7 20 -21 30 -43 30c-30 0 -45 -19 -45 -56c0 -19 5 -33 15 -44h126zM446 0h-462v114h104c33 0 55 11 67 34c8 15 12 41 12 76v173h111v-167c0 -59 -8 -97 -24 -116h192v-114z
" />
    <glyph glyph-name="behmedialarabic" unicode="&#x628;" horiz-adv-x="431" arabic-form="medial" 
d="M277 -220h-110v112h110v-112zM446 0h-462v114h104c33 0 55 11 67 34c8 15 12 41 12 76v230h111v-224c0 -59 -8 -97 -24 -116h192v-114z" />
    <glyph glyph-name="tehmedialarabic" unicode="&#x62a;" horiz-adv-x="431" arabic-form="medial" 
d="M88 547h-110v111h110v-111zM278 547h-110v111h110v-111zM446 0h-462v114h104c33 0 55 11 67 34c8 15 12 41 12 76v230h111v-224c0 -59 -8 -97 -24 -116h192v-114z" />
    <glyph glyph-name="thehmedialarabic" unicode="&#x62b;" horiz-adv-x="431" arabic-form="medial" 
d="M446 0h-462v114h104c33 0 55 11 67 34c8 15 12 41 12 76v230h111v-224c0 -59 -8 -97 -24 -116h192v-114zM183 703h-109v112h109v-112zM277 546h-110v111h110v-111zM87 546h-110v111h110v-111z" />
    <glyph glyph-name="jeemmedialarabic" unicode="&#x62c;" horiz-adv-x="774" arabic-form="medial" 
d="M402 -219h-110v112h110v-112zM787 0h-803v114h578c0 62 -17 115 -52 159c-41 51 -99 76 -172 76c-25 0 -53 -6 -84 -19c-36 -15 -66 -36 -90 -63c-11 21 -29 50 -54 88c31 29 66 53 107 71c44 19 88 28 132 28c69 0 130 -16 182 -48c91 -56 141 -153 150 -292h106v-114z
" />
    <glyph glyph-name="hahmedialarabic" unicode="&#x62d;" horiz-adv-x="774" arabic-form="medial" 
d="M787 0h-803v114h578c0 62 -17 115 -52 159c-41 51 -99 76 -172 76c-25 0 -53 -6 -84 -19c-36 -15 -66 -36 -90 -63c-11 21 -29 50 -54 88c31 29 66 53 107 71c44 19 88 28 132 28c69 0 130 -16 182 -48c91 -56 141 -153 150 -292h106v-114z" />
    <glyph glyph-name="khahmedialarabic" unicode="&#x62e;" horiz-adv-x="774" arabic-form="medial" 
d="M787 0h-803v114h578c0 62 -17 115 -52 159c-41 51 -99 76 -172 76c-25 0 -53 -6 -84 -19c-36 -15 -66 -36 -90 -63c-11 21 -29 50 -54 88c31 29 66 53 107 71c44 19 88 28 132 28c69 0 130 -16 182 -48c91 -56 141 -153 150 -292h106v-114zM402 548h-110v111h110v-111z
" />
    <glyph glyph-name="seenmedialarabic" unicode="&#x633;" horiz-adv-x="976" arabic-form="medial" 
d="M-22 0v114h102c57 0 85 39 85 118v222h113v-218c0 -59 -6 -97 -18 -116v-6h104c57 0 85 37 85 111v229h113v-218c0 -65 -8 -106 -23 -122h109c57 0 85 37 85 110v230h113v-216c0 -47 -8 -88 -25 -124h171v-114h-1014z" />
    <glyph glyph-name="sheenmedialarabic" unicode="&#x634;" horiz-adv-x="976" arabic-form="medial" 
d="M-22 0v114h102c57 0 85 39 85 118v222h113v-218c0 -59 -6 -97 -18 -116v-6h104c57 0 85 37 85 111v229h113v-218c0 -65 -8 -106 -23 -122h109c57 0 85 37 85 110v230h113v-216c0 -47 -8 -88 -25 -124h171v-114h-1014zM450 703v112h110v-112h-110zM544 546v111h109v-111
h-109zM355 546v111h109v-111h-109z" />
    <glyph glyph-name="sadmedialarabic" unicode="&#x635;" horiz-adv-x="939" arabic-form="medial" 
d="M949 0h-992v114h112c57 0 85 39 85 118v174h112v-139c89 121 199 189 307 189c169 0 255 -115 258 -342h118v-114zM715 114l2 32c0 129 -60 210 -155 210c-112 0 -231 -104 -293 -242h446z" />
    <glyph glyph-name="dadmedialarabic" unicode="&#x636;" horiz-adv-x="939" arabic-form="medial" 
d="M949 0h-992v114h112c57 0 85 39 85 118v174h112v-139c89 121 199 189 307 189c169 0 255 -115 258 -342h118v-114zM715 114l2 32c0 129 -60 210 -155 210c-112 0 -231 -104 -293 -242h446zM614 546h-110v111h110v-111z" />
    <glyph glyph-name="tahmedialarabic" unicode="&#x637;" horiz-adv-x="935" arabic-form="medial" 
d="M946 0h-957v114h194v531h110l-14 -362c93 119 189 173 295 173c169 0 256 -115 259 -342h113v-114zM717 114c1 11 1 21 1 32c0 128 -58 210 -154 210c-112 0 -229 -102 -294 -242h447z" />
    <glyph glyph-name="zahmedialarabic" unicode="&#x638;" horiz-adv-x="935" arabic-form="medial" 
d="M956 0h-977v114h204v531h110l-14 -362c93 119 189 173 295 173c169 0 256 -115 259 -342h123v-114zM717 114c1 11 1 21 1 32c0 128 -58 210 -154 210c-112 0 -229 -102 -294 -242h447zM611 546h-109v111h109v-111z" />
    <glyph glyph-name="ainmedialarabic" unicode="&#x639;" horiz-adv-x="724" arabic-form="medial" 
d="M738 0h-213c-28 0 -58 8 -89 24c-26 13 -47 29 -64 48c-73 -48 -146 -72 -221 -72h-168v114h166c33 0 59 2 78 7c24 5 48 15 72 31c-15 23 -44 48 -85 74c-41 27 -81 45 -118 54v106c87 55 178 82 271 82c110 0 205 -35 285 -104c-9 -27 -33 -64 -71 -111
c-41 -50 -79 -87 -115 -112c14 -14 27 -22 40 -25c5 -1 20 -2 44 -2h188v-114zM515 331c-45 27 -94 40 -145 40s-103 -14 -154 -41c63 -22 120 -62 170 -120c23 11 47 30 73 55c23 23 42 45 56 66z" />
    <glyph glyph-name="ghainmedialarabic" unicode="&#x63a;" horiz-adv-x="724" arabic-form="medial" 
d="M735 0h-210c-28 0 -58 8 -89 24c-26 13 -47 29 -64 48c-73 -48 -146 -72 -221 -72h-168v114h166c33 0 59 2 78 7c24 5 48 15 72 31c-15 23 -44 48 -85 74c-41 27 -81 45 -118 54v106c87 55 178 82 271 82c110 0 205 -35 285 -104c-9 -27 -33 -64 -71 -111
c-41 -50 -79 -87 -115 -112c14 -14 27 -22 40 -25c5 -1 20 -2 44 -2h185v-114zM515 331c-45 27 -94 40 -145 40s-103 -14 -154 -41c63 -22 120 -62 170 -120c23 11 47 30 73 55c23 23 42 45 56 66zM423 548h-110v111h110v-111z" />
    <glyph glyph-name="fehmedialarabic" unicode="&#x641;" horiz-adv-x="642" arabic-form="medial" 
d="M377 622h-110v112h110v-112zM661 0h-111c-96 0 -170 18 -223 55c-52 -37 -126 -55 -221 -55h-123v114h117c50 0 81 4 93 11c-32 24 -57 55 -74 92c-15 33 -23 68 -23 104c0 26 4 49 12 69c37 95 119 154 220 154c113 0 233 -77 233 -219c0 -37 -8 -72 -24 -106
c-17 -39 -42 -70 -73 -94c11 -7 42 -11 93 -11h104v-114zM389 203c44 31 66 74 66 128c0 35 -10 64 -31 87c-23 25 -55 38 -96 38s-73 -13 -96 -38c-21 -23 -32 -52 -32 -87c0 -53 22 -96 66 -128c18 -13 39 -26 62 -37c23 12 44 24 61 37z" />
    <glyph glyph-name="qafmedialarabic" unicode="&#x642;" horiz-adv-x="642" arabic-form="medial" 
d="M286 622h-110v112h110v-112zM476 622h-110v112h110v-112zM661 0h-111c-96 0 -170 18 -223 55c-52 -37 -126 -55 -221 -55h-123v114h117c50 0 81 4 93 11c-32 24 -57 55 -74 92c-15 33 -23 68 -23 104c0 26 4 49 12 69c37 95 119 154 220 154c113 0 233 -77 233 -219
c0 -37 -8 -72 -24 -106c-17 -39 -42 -70 -73 -94c11 -7 42 -11 93 -11h104v-114zM389 203c44 31 66 74 66 128c0 35 -10 64 -31 87c-23 25 -55 38 -96 38s-73 -13 -96 -38c-21 -23 -32 -52 -32 -87c0 -53 22 -96 66 -128c18 -13 39 -26 62 -37c23 12 44 24 61 37z" />
    <glyph glyph-name="kafmedialarabic" unicode="&#x643;" horiz-adv-x="757" arabic-form="medial" 
d="M771 0h-788v114h549c0 62 -18 115 -54 159c-42 51 -100 76 -173 76h-231l197 296h133l-135 -191h49c69 0 130 -16 183 -48c91 -56 141 -153 150 -292h120v-114z" />
    <glyph glyph-name="lammedialarabic" unicode="&#x644;" horiz-adv-x="431" arabic-form="medial" 
d="M442 0h-458v114h104c33 0 55 11 67 34c8 15 12 41 12 76v421h111v-415c0 -59 -8 -97 -24 -116h188v-114z" />
    <glyph glyph-name="meemmedialarabic" unicode="&#x645;" horiz-adv-x="621" arabic-form="medial" 
d="M638 0h-143c-43 -58 -103 -87 -181 -87c-77 0 -136 29 -179 87h-153v114h108c-1 11 -1 22 -1 33c0 67 21 122 62 165c42 43 96 65 163 65s121 -22 162 -67s62 -100 62 -167v-29h100v-114zM423 144c0 35 -9 66 -27 91c-21 27 -50 41 -85 41c-34 0 -61 -13 -81 -40
c-17 -23 -26 -53 -26 -88c0 -72 44 -131 113 -131c34 0 61 13 80 38c17 23 26 53 26 89z" />
    <glyph glyph-name="noonmedialarabic" unicode="&#x646;" horiz-adv-x="431" arabic-form="medial" 
d="M446 0h-462v114h104c33 0 55 11 67 34c8 15 12 41 12 76v230h111v-224c0 -59 -8 -97 -24 -116h192v-114zM278 546h-110v111h110v-111z" />
    <glyph glyph-name="hehmedialarabic" unicode="&#x647;" horiz-adv-x="789" arabic-form="medial" 
d="M800 0h-814v114h138c-17 41 -26 75 -26 104c0 120 81 194 198 194s197 -74 197 -194c0 -28 -9 -63 -26 -104h132c1 11 1 21 1 31c0 168 -103 316 -248 346l14 107c217 -44 345 -232 345 -484h89v-114zM388 218c0 63 -37 105 -92 105c-59 0 -92 -45 -92 -105
c0 -61 38 -107 92 -107c53 0 92 47 92 107z" />
    <glyph glyph-name="yehmedialarabic" unicode="&#x64a;" horiz-adv-x="432" arabic-form="medial" 
d="M443 0h-461v114h107c33 0 56 11 68 34c8 15 12 41 12 76v230h111v-224c0 -59 -8 -97 -25 -116h188v-114zM276 -219h-110v112h110v-112zM87 -219h-110v112h110v-112z" />
    <glyph glyph-name="alefmaddaabovefinalarabic" unicode="&#x622;" horiz-adv-x="346" arabic-form="final" 
d="M226 731c-18 -28 -36 -42 -54 -42c-10 0 -27 8 -50 25s-43 25 -58 25s-29 -9 -42 -27l-9 34c16 28 33 42 51 42c11 0 29 -8 54 -25s42 -25 53 -25c15 0 31 9 46 28zM366 0h-131c-54 0 -95 17 -124 52c-27 32 -40 75 -40 130v463h111v-418c0 -49 11 -81 32 -96
c15 -11 44 -17 86 -17h66v-114z" />
    <glyph glyph-name="alefhamzaabovefinalarabic" unicode="&#x623;" horiz-adv-x="346" arabic-form="final" 
d="M210 697h-173v46h40c-6 19 -9 30 -9 35c0 47 35 81 78 81c28 0 49 -15 63 -44l-36 -19c-3 15 -13 22 -28 22c-21 0 -34 -19 -34 -38c0 -17 6 -30 18 -37h81v-46zM366 0h-131c-54 0 -95 17 -124 52c-27 32 -40 75 -40 130v463h111v-418c0 -49 11 -81 32 -96
c15 -11 44 -17 86 -17h66v-114z" />
    <glyph glyph-name="wawhamzaabovefinalarabic" unicode="&#x624;" horiz-adv-x="621" arabic-form="final" 
d="M376 511h-222v63h48c-3 12 -5 23 -5 33c0 56 41 99 94 99c39 0 67 -20 84 -59l-56 -26c-6 17 -15 26 -28 26c-19 0 -29 -13 -29 -38c0 -18 6 -30 18 -35h96v-63zM631 0h-136c-15 -110 -88 -165 -218 -165v88c58 0 95 24 111 77h-107c-121 0 -219 101 -219 233
s97 222 224 222c122 0 208 -94 208 -225v-116h137v-114zM382 114v137c-6 59 -40 101 -98 101c-66 0 -108 -46 -108 -113c0 -69 47 -125 107 -125h99z" />
    <glyph glyph-name="alefhamzabelowfinalarabic" unicode="&#x625;" horiz-adv-x="346" arabic-form="final" 
d="M250 -205h-173v46h40c-6 19 -9 31 -9 35c0 47 35 83 78 83c28 0 49 -15 63 -46l-36 -17c-3 15 -13 22 -28 22c-20 0 -34 -19 -34 -39c0 -18 6 -31 18 -38h81v-46zM366 0h-131c-54 0 -95 17 -124 52c-27 32 -40 75 -40 130v463h111v-418c0 -49 11 -81 32 -96
c15 -11 44 -17 86 -17h66v-114z" />
    <glyph glyph-name="yehhamzaabovefinalarabic" unicode="&#x626;" horiz-adv-x="896" arabic-form="final" 
d="M281 357h-248v67h53c-6 15 -9 32 -9 49c0 63 43 112 106 112c44 0 75 -20 92 -59l-47 -32c-7 21 -21 32 -42 32c-30 0 -45 -19 -45 -58c0 -19 5 -33 14 -44h126v-67zM909 114v-114c-123 0 -158 19 -204 88c-32 -156 -166 -254 -329 -254c-192 0 -344 150 -344 347v112
h112v-99c0 -155 90 -252 235 -252c130 0 228 86 228 188c0 62 -37 106 -101 106c-6 0 -12 0 -18 -1v102h44c88 0 154 -40 198 -119c41 -75 80 -104 137 -104h42z" />
    <glyph glyph-name="aleffinalarabic" unicode="&#x627;" horiz-adv-x="346" arabic-form="final" 
d="M366 0h-131c-54 0 -95 17 -124 52c-27 32 -40 75 -40 130v463h111v-418c0 -49 11 -81 32 -96c15 -11 44 -17 86 -17h66v-114z" />
    <glyph glyph-name="behfinalarabic" unicode="&#x628;" horiz-adv-x="1020" arabic-form="final" 
d="M1032 0h-682c-212 0 -318 94 -318 283v171h111v-171c0 -65 19 -111 57 -137c30 -21 76 -32 137 -32h340c33 0 56 11 67 34c8 15 12 41 12 76v230h112v-224c0 -59 -8 -97 -25 -116h189v-114zM542 -219h-110v112h110v-112z" />
    <glyph glyph-name="tehmarbutafinalarabic" unicode="&#x629;" horiz-adv-x="656" arabic-form="final" 
d="M669 0h-121c-87 0 -158 59 -181 148c-35 -50 -78 -75 -128 -75c-128 0 -207 96 -207 235c0 150 79 243 207 243h247v-317c0 -78 37 -120 112 -120h71v-114zM370 319v145h-101c-78 0 -126 -62 -126 -155c0 -77 43 -143 110 -143c73 0 117 68 117 153zM288 632h-110v112
h110v-112zM477 632h-110v112h110v-112z" />
    <glyph glyph-name="tehfinalarabic" unicode="&#x62a;" horiz-adv-x="1020" arabic-form="final" 
d="M1032 0h-682c-212 0 -318 94 -318 283v171h111v-171c0 -65 19 -111 57 -137c30 -21 76 -32 137 -32h340c33 0 56 11 67 34c8 15 12 41 12 76v230h112v-224c0 -59 -8 -97 -25 -116h189v-114zM412 455h-110v111h110v-111zM602 455h-110v111h110v-111z" />
    <glyph glyph-name="thehfinalarabic" unicode="&#x62b;" horiz-adv-x="1020" arabic-form="final" 
d="M1034 0h-684c-212 0 -318 94 -318 283v171h111v-171c0 -65 19 -111 57 -137c30 -21 76 -32 137 -32h340c33 0 56 11 67 34c8 15 12 41 12 76v230h112v-224c0 -59 -8 -97 -25 -116h191v-114zM505 612h-109v112h109v-112zM598 455h-109v111h109v-111zM408 455h-109v111h109
v-111z" />
    <glyph glyph-name="jeemfinalarabic" unicode="&#x62c;" horiz-adv-x="689" arabic-form="final" 
d="M364 27h-110v111h110v-111zM706 0h-26c-77 0 -142 26 -196 78c-43 42 -68 87 -77 136h-135c-76 0 -128 -53 -128 -137c0 -37 12 -67 37 -90s56 -35 91 -35h121v-117h-80c-83 0 -149 19 -198 57c-55 44 -83 107 -83 190s23 146 69 189c41 39 97 58 166 58h123
c-19 111 -77 157 -175 157c-38 0 -64 -8 -78 -16v96c21 9 50 17 86 17c169 0 265 -85 288 -278c9 -73 33 -125 74 -157c28 -23 60 -34 95 -34h26v-114z" />
    <glyph glyph-name="hahfinalarabic" unicode="&#x62d;" horiz-adv-x="689" arabic-form="final" 
d="M706 0h-26c-77 0 -142 26 -196 78c-43 42 -68 87 -77 136h-135c-76 0 -128 -53 -128 -137c0 -37 12 -67 37 -90s56 -35 91 -35h121v-117h-80c-83 0 -149 19 -198 57c-55 44 -83 107 -83 190s23 146 69 189c41 39 97 58 166 58h123c-19 111 -77 157 -175 157
c-38 0 -64 -8 -78 -16v96c21 9 50 17 86 17c169 0 265 -85 288 -278c9 -73 33 -125 74 -157c28 -23 60 -34 95 -34h26v-114z" />
    <glyph glyph-name="khahfinalarabic" unicode="&#x62e;" horiz-adv-x="689" arabic-form="final" 
d="M706 0h-26c-77 0 -142 26 -196 78c-43 42 -68 87 -77 136h-135c-76 0 -128 -53 -128 -137c0 -37 12 -67 37 -90s56 -35 91 -35h121v-117h-80c-83 0 -149 19 -198 57c-55 44 -83 107 -83 190s23 146 69 189c41 39 97 58 166 58h123c-19 111 -77 157 -175 157
c-38 0 -64 -8 -78 -16v96c21 9 50 17 86 17c169 0 265 -85 288 -278c9 -73 33 -125 74 -157c28 -23 60 -34 95 -34h26v-114zM304 645h-109v112h109v-112z" />
    <glyph glyph-name="dalfinalarabic" unicode="&#x62f;" horiz-adv-x="679" arabic-form="final" 
d="M711 0h-649v114h362c0 131 -51 207 -152 229c-31 7 -65 9 -101 9v102c55 0 90 -1 104 -2s34 -5 60 -14c134 -45 201 -153 202 -324h174v-114z" />
    <glyph glyph-name="thalfinalarabic" unicode="&#x630;" horiz-adv-x="679" arabic-form="final" 
d="M332 548h-109v111h109v-111zM711 0h-649v114h362c0 131 -51 207 -152 229c-31 7 -65 9 -101 9v102c55 0 90 -1 104 -2s34 -5 60 -14c134 -45 201 -153 202 -324h174v-114z" />
    <glyph glyph-name="rehfinalarabic" unicode="&#x631;" horiz-adv-x="443" arabic-form="final" 
d="M465 0h-179c-17 -107 -108 -166 -244 -166v96c93 0 139 46 139 142v382h112v-340h172v-114z" />
    <glyph glyph-name="zainfinalarabic" unicode="&#x632;" horiz-adv-x="443" arabic-form="final" 
d="M465 0h-179c-17 -107 -108 -166 -244 -166v96c93 0 139 46 139 142v382h112v-340h172v-114zM292 546h-110v111h110v-111z" />
    <glyph glyph-name="seenfinalarabic" unicode="&#x633;" horiz-adv-x="1371" arabic-form="final" 
d="M1378 0h-759c-13 -23 -28 -44 -47 -64c-61 -68 -135 -102 -223 -102c-87 0 -161 33 -222 98c-63 66 -95 147 -95 244v278h113v-265c0 -65 17 -121 50 -168c39 -53 90 -80 154 -80c63 0 114 27 153 80c33 47 49 103 49 168v265h113v-278c0 -21 -2 -42 -5 -62h91
c57 0 85 37 85 111v229h113v-218c0 -65 -8 -106 -23 -122h109c57 0 85 37 85 110v230h113v-216c0 -47 -8 -88 -25 -124h171v-114z" />
    <glyph glyph-name="sheenfinalarabic" unicode="&#x634;" horiz-adv-x="1371" arabic-form="final" 
d="M1378 0h-759c-13 -23 -28 -44 -47 -64c-61 -68 -135 -102 -223 -102c-87 0 -161 33 -222 98c-63 66 -95 147 -95 244v278h113v-265c0 -65 17 -121 50 -168c39 -53 90 -80 154 -80c63 0 114 27 153 80c33 47 49 103 49 168v265h113v-278c0 -21 -2 -42 -5 -62h91
c57 0 85 37 85 111v229h113v-218c0 -65 -8 -106 -23 -122h109c57 0 85 37 85 110v230h113v-216c0 -47 -8 -88 -25 -124h171v-114zM946 703h-110v112h110v-112zM1039 546h-109v111h109v-111zM850 546h-109v111h109v-111z" />
    <glyph glyph-name="sadfinalarabic" unicode="&#x635;" horiz-adv-x="1338" arabic-form="final" 
d="M1345 0h-726c-61 -109 -160 -166 -270 -166c-174 0 -317 154 -317 342v278h113v-265c0 -140 85 -248 204 -248c118 0 202 107 202 248v265h113v-185c87 120 198 187 305 187c169 0 255 -115 258 -342h118v-114zM1111 114c0 134 -47 242 -153 242
c-112 0 -231 -104 -293 -242h446z" />
    <glyph glyph-name="dadfinalarabic" unicode="&#x636;" horiz-adv-x="1338" arabic-form="final" 
d="M1345 0h-726c-61 -109 -160 -166 -270 -166c-174 0 -317 154 -317 342v278h113v-265c0 -140 85 -248 204 -248c118 0 202 107 202 248v265h113v-185c87 120 198 187 305 187c169 0 255 -115 258 -342h118v-114zM1111 114c0 134 -47 242 -153 242
c-112 0 -231 -104 -293 -242h446zM1010 546h-110v111h110v-111z" />
    <glyph glyph-name="tahfinalarabic" unicode="&#x637;" horiz-adv-x="876" arabic-form="final" 
d="M32 114h92v531h111l-13 -362c92 119 188 173 295 173c169 0 255 -115 257 -342h113v-114h-855v114zM213 114h446l2 32c0 127 -59 210 -155 210c-112 0 -231 -104 -293 -242z" />
    <glyph glyph-name="zahfinalarabic" unicode="&#x638;" horiz-adv-x="876" arabic-form="final" 
d="M887 0h-855v114h92v531h111l-13 -362c92 119 188 173 295 173c169 0 255 -115 257 -342h113v-114zM659 114v3c1 11 2 20 2 29c0 127 -59 210 -155 210c-112 0 -231 -104 -293 -242h446zM549 546h-110v111h110v-111z" />
    <glyph glyph-name="ainfinalarabic" unicode="&#x639;" horiz-adv-x="744" arabic-form="final" 
d="M755 0h-26c-126 0 -241 90 -271 201h-163c-104 0 -156 -44 -156 -131c0 -78 60 -125 156 -125h179v-111h-171c-165 0 -271 89 -271 239c0 124 74 216 188 235c-25 35 -37 77 -37 125c0 125 89 212 206 212c75 0 130 -35 164 -106l-84 -40c-17 36 -44 54 -82 54
c-62 0 -101 -49 -101 -118c0 -53 32 -110 69 -123h15c23 0 56 -1 98 -1h91c15 -122 79 -197 169 -197h27v-114z" />
    <glyph glyph-name="ghainfinalarabic" unicode="&#x63a;" horiz-adv-x="744" arabic-form="final" 
d="M443 722h-109v111h109v-111zM755 0h-26c-126 0 -241 90 -271 201h-163c-104 0 -156 -44 -156 -131c0 -78 60 -125 156 -125h179v-111h-171c-165 0 -271 89 -271 239c0 124 74 216 188 235c-25 35 -37 77 -37 125c0 125 89 212 206 212c75 0 130 -35 164 -106l-84 -40
c-17 36 -44 54 -82 54c-62 0 -101 -49 -101 -118c0 -53 32 -110 69 -123h15c23 0 56 -1 98 -1h91c15 -122 79 -197 169 -197h27v-114z" />
    <glyph glyph-name="fehfinalarabic" unicode="&#x641;" horiz-adv-x="1072" arabic-form="final" 
d="M1093 0h-112c-97 0 -172 18 -223 55c-53 -37 -127 -55 -222 -55h-186c-212 0 -318 94 -318 283v151h111v-151c0 -65 19 -111 57 -137c30 -21 76 -32 137 -32h192c51 0 82 4 93 11c-31 24 -55 55 -72 92c-16 33 -24 68 -24 104c0 26 4 49 12 69c37 95 119 154 220 154
c50 0 95 -14 134 -43c37 -27 65 -64 86 -111c9 -19 13 -40 13 -65c0 -37 -8 -72 -24 -106c-18 -39 -42 -70 -73 -94c11 -7 42 -11 93 -11h106v-114zM820 203c44 31 66 74 66 128c0 35 -11 64 -32 87c-23 25 -55 38 -96 38s-73 -13 -96 -38c-21 -23 -31 -52 -31 -87
c0 -53 22 -96 66 -128c18 -13 38 -26 61 -37c24 12 45 24 62 37zM810 622h-109v112h109v-112z" />
    <glyph glyph-name="qaffinalarabic" unicode="&#x642;" horiz-adv-x="809" arabic-form="final" 
d="M826 0h-159c-57 -111 -157 -166 -299 -166c-193 0 -336 143 -336 328v186h106v-174c0 -145 89 -239 227 -239c79 0 141 23 184 65c-171 0 -272 96 -272 254c0 137 75 232 213 232s208 -70 208 -211v-161h128v-114zM594 251c0 101 -35 151 -104 151
c-65 0 -99 -55 -99 -147c0 -94 57 -141 158 -141h45v137zM450 546h-110v111h110v-111zM640 546h-110v111h110v-111z" />
    <glyph glyph-name="kaffinalarabic" unicode="&#x643;" horiz-adv-x="1020" arabic-form="final" 
d="M1042 0h-692c-212 0 -318 94 -318 283v171h111v-171c0 -65 19 -111 57 -137c30 -21 76 -32 137 -32h340c33 0 56 11 67 34c8 15 12 41 12 76v421h112v-415c0 -59 -8 -97 -25 -116h199v-114zM579 389h-249v67h54c-7 15 -11 32 -11 49c0 63 45 113 108 113
c44 0 75 -20 92 -60l-47 -32c-7 21 -21 32 -42 32c-30 0 -45 -19 -45 -57c0 -19 5 -34 14 -45h126v-67z" />
    <glyph glyph-name="lamfinalarabic" unicode="&#x644;" horiz-adv-x="799" arabic-form="final" 
d="M827 0h-208c-57 -104 -160 -166 -270 -166c-174 0 -317 154 -317 342v98h113v-85c0 -138 82 -248 204 -248c118 0 202 107 202 248v456h113v-469c0 -21 -2 -41 -6 -62h169v-114z" />
    <glyph glyph-name="meemfinalarabic" unicode="&#x645;" horiz-adv-x="955" arabic-form="final" 
d="M978 0h-49c-78 0 -144 29 -199 82c-41 -61 -102 -92 -183 -92c-133 0 -226 102 -226 234c0 44 9 83 28 117h-82c-75 0 -123 -66 -123 -175v-332h-112v355c0 161 86 266 235 266h280c100 0 183 -57 208 -144c46 -158 89 -197 173 -197h50v-114zM656 220
c0 74 -44 133 -113 133c-64 0 -107 -54 -107 -128c0 -75 47 -132 114 -132c61 0 106 51 106 127z" />
    <glyph glyph-name="noonfinalarabic" unicode="&#x646;" horiz-adv-x="800" arabic-form="final" 
d="M821 0h-202c-28 -51 -65 -91 -112 -120c-49 -31 -101 -46 -158 -46c-87 0 -161 33 -222 98c-63 66 -95 147 -95 244v278h113v-265c0 -65 17 -121 50 -168c39 -53 90 -80 154 -80c63 0 114 27 153 80c33 47 49 103 49 168v265h113v-278c0 -21 -2 -41 -6 -62h163v-114z
M406 546h-110v111h110v-111z" />
    <glyph glyph-name="hehfinalarabic" unicode="&#x647;" horiz-adv-x="656" arabic-form="final" 
d="M669 0h-121c-87 0 -158 59 -181 148c-35 -50 -78 -75 -128 -75c-128 0 -207 96 -207 235c0 150 79 243 207 243c71 0 111 0 120 1h127v-318c0 -80 37 -120 112 -120h71v-114zM370 319v145h-101c-78 0 -126 -62 -126 -155c0 -77 43 -143 110 -143c73 0 117 68 117 153z
" />
    <glyph glyph-name="wawfinalarabic" unicode="&#x648;" horiz-adv-x="621" arabic-form="final" 
d="M631 0h-136c-15 -110 -88 -165 -218 -165v88c58 0 95 24 111 77h-107c-121 0 -219 101 -219 233s97 222 224 222c122 0 208 -94 208 -225v-116h137v-114zM382 114v137c-6 59 -40 101 -98 101c-66 0 -108 -46 -108 -113c0 -69 47 -125 107 -125h99z" />
    <glyph glyph-name="alefmaksurafinalarabic" unicode="&#x649;" horiz-adv-x="896" arabic-form="final" 
d="M909 114v-114c-123 0 -158 19 -204 88c-32 -156 -166 -254 -329 -254c-192 0 -344 150 -344 347v112h112v-99c0 -155 90 -252 235 -252c130 0 228 86 228 188c0 62 -37 106 -101 106c-6 0 -12 0 -18 -1v102h44c88 0 154 -40 198 -119c41 -75 80 -104 137 -104h42z" />
    <glyph glyph-name="yehfinalarabic" unicode="&#x64a;" horiz-adv-x="896" arabic-form="final" 
d="M909 114v-114c-123 0 -158 19 -204 88c-32 -156 -166 -254 -329 -254c-192 0 -344 150 -344 347v112h112v-99c0 -155 90 -252 235 -252c130 0 228 86 228 188c0 62 -37 106 -101 106c-6 0 -12 0 -18 -1v102h44c88 0 154 -40 198 -119c41 -75 80 -104 137 -104h42z
M526 -387h-110v111h110v-111zM337 -387h-110v111h110v-111z" />
    <glyph glyph-name="yehhamzaaboveinitialarabic" unicode="&#x626;" horiz-adv-x="302" arabic-form="initial" 
d="M268 455h-249v67h54c-7 15 -10 32 -10 50c0 63 45 112 108 112c43 0 74 -20 91 -61l-47 -31c-7 21 -21 31 -42 31c-30 0 -45 -19 -45 -57c0 -19 5 -33 14 -44h126v-67zM268 181c0 -121 -56 -181 -168 -181h-108v114h85c37 0 60 11 71 33c5 12 8 36 8 72v178h112v-216z
" />
    <glyph glyph-name="dadinitialarabic" unicode="&#x636;" horiz-adv-x="869" arabic-form="initial" 
d="M824 0h-837v114h82c57 0 85 39 85 118v174h112v-137c87 120 198 187 305 187c172 0 258 -118 258 -352c0 -33 -2 -67 -5 -104zM713 114l2 32c0 129 -60 210 -155 210c-112 0 -231 -104 -293 -242h446zM612 546h-110v111h110v-111z" />
    <glyph glyph-name="alefmaksurainitialarabic" unicode="&#x6cc;" horiz-adv-x="308" arabic-form="initial" 
d="M276 181c0 -121 -56 -181 -167 -181h-118v114h94c37 0 60 11 71 33c5 12 8 36 8 72v235h112v-273zM84 -219h-110v112h110v-112zM273 -219h-110v112h110v-112z" />
    <glyph glyph-name="alefmaksuramedialarabic" unicode="&#x6cc;" horiz-adv-x="432" arabic-form="medial" 
d="M276 -219h-110v112h110v-112zM87 -219h-110v112h110v-112zM446 0h-462v114h104c33 0 55 11 67 34c8 15 12 41 12 76v230h111v-224c0 -59 -8 -97 -24 -116h192v-114z" />
    <glyph glyph-name="sadinitialarabic" unicode="&#x635;" horiz-adv-x="869" arabic-form="initial" 
d="M824 0h-837v114h82c57 0 85 39 85 118v174h112v-137c87 120 198 187 305 187c172 0 258 -118 258 -352c0 -33 -2 -67 -5 -104zM713 114l2 32c0 129 -60 210 -155 210c-112 0 -231 -104 -293 -242h446z" />
    <glyph glyph-name="pehinitialarabic" unicode="&#x67e;" horiz-adv-x="301" arabic-form="initial" 
d="M268 181c0 -121 -56 -181 -168 -181h-108v114h85c37 0 60 11 71 33c5 11 8 35 8 72v235h112v-273zM264 -178h-110v112h110v-112zM74 -178h-110v112h110v-112zM171 -336h-110v112h110v-112z" />
    <glyph glyph-name="vehinitialarabic" unicode="&#x6a4;" horiz-adv-x="599" arabic-form="initial" 
d="M400 703h-110v112h110v-112zM493 546h-109v111h109v-111zM304 546h-109v111h109v-111zM567 230c0 -132 -90 -230 -224 -230h-356v114h159c-19 36 -29 76 -29 119c0 136 93 231 226 231s224 -103 224 -234zM452 230c0 76 -46 132 -113 132c-64 0 -107 -50 -107 -128
c0 -72 46 -131 113 -131c65 0 107 53 107 127z" />
    <glyph glyph-name="vehmedialarabic" unicode="&#x6a4;" horiz-adv-x="642" arabic-form="medial" 
d="M286 622h-110v112h110v-112zM475 622h-110v112h110v-112zM382 781h-110v111h110v-111zM661 0h-111c-96 0 -170 18 -223 55c-52 -37 -126 -55 -221 -55h-123v114h117c50 0 81 4 93 11c-32 24 -57 55 -74 92c-15 33 -23 68 -23 104c0 26 4 49 12 69c37 95 119 154 220 154
c113 0 233 -77 233 -219c0 -37 -8 -72 -24 -106c-17 -39 -42 -70 -73 -94c11 -7 42 -11 93 -11h104v-114zM389 203c44 31 66 74 66 128c0 35 -10 64 -31 87c-23 25 -55 38 -96 38s-73 -13 -96 -38c-21 -23 -32 -52 -32 -87c0 -53 22 -96 66 -128c18 -13 39 -26 62 -37
c23 12 44 24 61 37z" />
    <glyph glyph-name="vehfinalarabic" unicode="&#x6a4;" horiz-adv-x="1072" arabic-form="final" 
d="M810 781h-109v111h109v-111zM904 622h-110v112h110v-112zM714 622h-110v112h110v-112zM1093 0h-112c-97 0 -172 18 -223 55c-53 -37 -127 -55 -222 -55h-186c-212 0 -318 94 -318 283v151h111v-151c0 -65 19 -111 57 -137c30 -21 76 -32 137 -32h192c51 0 82 4 93 11
c-31 24 -55 55 -72 92c-16 33 -24 68 -24 104c0 26 4 49 12 69c37 95 119 154 220 154c50 0 95 -14 134 -43c37 -27 65 -64 86 -111c9 -19 13 -40 13 -65c0 -37 -8 -72 -24 -106c-18 -39 -42 -70 -73 -94c11 -7 42 -11 93 -11h106v-114zM820 203c44 31 66 74 66 128
c0 35 -11 64 -32 87c-23 25 -55 38 -96 38s-73 -13 -96 -38c-21 -23 -31 -52 -31 -87c0 -53 22 -96 66 -128c18 -13 38 -26 61 -37c24 12 45 24 62 37z" />
    <glyph glyph-name="jehfinalarabic" unicode="&#x698;" horiz-adv-x="443" arabic-form="final" 
d="M465 0h-179c-17 -107 -108 -166 -244 -166v96c93 0 139 46 139 142v382h112v-340h172v-114zM103 546h-110v112h110v-112zM292 546h-110v112h110v-112zM199 705h-110v111h110v-111z" />
    <glyph glyph-name="hamzaarabic" unicode="&#x621;" horiz-adv-x="519" arabic-form="isolated" 
d="M486 0h-424v114h91c-11 26 -17 54 -17 84c0 53 17 99 51 136c35 37 79 56 132 56c69 0 128 -38 156 -102l-80 -55c-11 36 -35 54 -71 54c-25 0 -45 -10 -59 -31c-12 -17 -18 -39 -18 -66c0 -32 8 -57 25 -76h214v-114z" />
    <glyph glyph-name="alefarabic" unicode="&#x627;" horiz-adv-x="214" arabic-form="isolated" 
d="M182 0h-111v646h111v-646z" />
    <glyph glyph-name="beharabic" unicode="&#x628;" horiz-adv-x="901" arabic-form="isolated" 
d="M868 454v-294c0 -100 -56 -160 -155 -160h-363c-212 0 -318 94 -318 283v171h111v-171c0 -65 19 -111 57 -137c30 -21 76 -32 137 -32h274c51 0 86 6 105 19c28 18 42 53 42 104v217h110zM542 -219h-110v112h110v-112z" />
    <glyph glyph-name="tehmarbutaarabic" unicode="&#x629;" horiz-adv-x="531" arabic-form="isolated" 
d="M506 242c0 -137 -94 -242 -236 -242c-140 0 -238 106 -238 246c0 143 101 243 238 243s236 -103 236 -247zM391 242c0 84 -49 147 -125 147c-74 0 -118 -61 -118 -142c0 -83 53 -146 125 -146s118 60 118 141zM228 581h-110v111h110v-111zM418 581h-110v111h110v-111z
" />
    <glyph glyph-name="teharabic" unicode="&#x62a;" horiz-adv-x="901" arabic-form="isolated" 
d="M868 454v-294c0 -100 -56 -160 -155 -160h-363c-212 0 -318 94 -318 283v171h111v-171c0 -65 19 -111 57 -137c30 -21 76 -32 137 -32h274c51 0 86 6 105 19c28 18 42 53 42 104v217h110zM598 455h-109v111h109v-111zM408 455h-109v111h109v-111z" />
    <glyph glyph-name="theharabic" unicode="&#x62b;" horiz-adv-x="901" arabic-form="isolated" 
d="M868 454v-294c0 -100 -56 -160 -155 -160h-363c-212 0 -318 94 -318 283v171h111v-171c0 -65 19 -111 57 -137c30 -21 76 -32 137 -32h274c51 0 86 6 105 19c28 18 42 53 42 104v217h110zM505 612h-109v112h109v-112zM598 455h-109v111h109v-111zM408 455h-109v111h109
v-111z" />
    <glyph glyph-name="jeemarabic" unicode="&#x62c;" horiz-adv-x="543" arabic-form="isolated" 
d="M376 27h-110v111h110v-111zM511 305v-91h-239c-76 0 -128 -53 -128 -137c0 -37 12 -67 37 -90s56 -35 91 -35h121v-117h-80c-83 0 -149 19 -198 57c-55 44 -83 107 -83 190s23 146 69 189c41 39 97 58 166 58h123c-19 111 -77 157 -175 157c-38 0 -64 -8 -78 -16v96
c21 9 50 17 86 17c98 0 174 -29 227 -99c41 -54 61 -114 61 -179z" />
    <glyph glyph-name="haharabic" unicode="&#x62d;" horiz-adv-x="543" arabic-form="isolated" 
d="M511 305v-91h-239c-76 0 -128 -53 -128 -137c0 -37 12 -67 37 -90s56 -35 91 -35h121v-117h-80c-83 0 -149 19 -198 57c-55 44 -83 107 -83 190s23 146 69 189c41 39 97 58 166 58h123c-19 111 -77 157 -175 157c-38 0 -64 -8 -78 -16v96c21 9 50 17 86 17
c98 0 174 -29 227 -99c41 -54 61 -114 61 -179z" />
    <glyph glyph-name="khaharabic" unicode="&#x62e;" horiz-adv-x="543" arabic-form="isolated" 
d="M349 645h-110v112h110v-112zM511 305v-91h-239c-76 0 -128 -53 -128 -137c0 -37 12 -67 37 -90s56 -35 91 -35h121v-117h-80c-83 0 -149 19 -198 57c-55 44 -83 107 -83 190s23 146 69 189c41 39 97 58 166 58h123c-19 111 -77 157 -175 157c-38 0 -64 -8 -78 -16v96
c21 9 50 17 86 17c98 0 174 -29 227 -99c41 -54 61 -114 61 -179z" />
    <glyph glyph-name="dalarabic" unicode="&#x62f;" horiz-adv-x="569" arabic-form="isolated" 
d="M537 0h-475v114h362c0 131 -51 207 -152 229c-31 7 -65 9 -101 9v102c55 0 90 -1 104 -2s34 -5 60 -14c134 -45 201 -153 202 -324v-114z" />
    <glyph glyph-name="thalarabic" unicode="&#x630;" horiz-adv-x="569" arabic-form="isolated" 
d="M332 548h-109v111h109v-111zM537 0h-475v114h362c0 131 -51 207 -152 229c-31 7 -65 9 -101 9v102c55 0 90 -1 104 -2s34 -5 60 -14c134 -45 201 -153 202 -324v-114z" />
    <glyph glyph-name="reharabic" unicode="&#x631;" horiz-adv-x="325" arabic-form="isolated" 
d="M293 454v-365c0 -180 -79 -255 -251 -255v96c93 0 139 46 139 142v382h112z" />
    <glyph glyph-name="zainarabic" unicode="&#x632;" horiz-adv-x="325" arabic-form="isolated" 
d="M292 546h-110v111h110v-111zM293 454v-365c0 -180 -79 -255 -251 -255v96c93 0 139 46 139 142v382h112z" />
    <glyph glyph-name="seenarabic" unicode="&#x633;" horiz-adv-x="1273" arabic-form="isolated" 
d="M1231 238c0 -81 -22 -142 -65 -185c-35 -35 -78 -53 -129 -53h-418c-13 -23 -28 -44 -47 -64c-61 -68 -135 -102 -223 -102c-87 0 -161 33 -222 98c-63 66 -95 147 -95 244v278h113v-265c0 -65 17 -121 50 -168c39 -53 90 -80 154 -80c63 0 114 27 153 80
c33 47 49 103 49 168v265h113v-278c0 -21 -2 -42 -5 -62h90c57 0 85 37 85 111v229h113v-218c0 -65 -8 -106 -23 -122h109c57 0 85 37 85 110v230h113v-216z" />
    <glyph glyph-name="sheenarabic" unicode="&#x634;" horiz-adv-x="1273" arabic-form="isolated" 
d="M1231 238c0 -81 -22 -142 -65 -185c-35 -35 -78 -53 -129 -53h-418c-13 -23 -28 -44 -47 -64c-61 -68 -135 -102 -223 -102c-87 0 -161 33 -222 98c-63 66 -95 147 -95 244v278h113v-265c0 -65 17 -121 50 -168c39 -53 90 -80 154 -80c63 0 114 27 153 80
c33 47 49 103 49 168v265h113v-278c0 -21 -2 -42 -5 -62h90c57 0 85 37 85 111v229h113v-218c0 -65 -8 -106 -23 -122h109c57 0 85 37 85 110v230h113v-216zM945 703h-110v112h110v-112zM1038 546h-109v111h109v-111zM849 546h-109v111h109v-111z" />
    <glyph glyph-name="sadarabic" unicode="&#x635;" horiz-adv-x="1269" arabic-form="isolated" 
d="M1224 0h-605c-61 -109 -160 -166 -270 -166c-174 0 -317 154 -317 342v278h113v-265c0 -140 85 -248 204 -248c118 0 202 107 202 248v265h113v-187c89 121 199 189 307 189c172 0 258 -118 258 -352c0 -33 -2 -67 -5 -104zM1113 114l2 32c0 129 -60 210 -155 210
c-112 0 -231 -104 -293 -242h446z" />
    <glyph glyph-name="dadarabic" unicode="&#x636;" horiz-adv-x="1269" arabic-form="isolated" 
d="M1224 0h-605c-61 -109 -160 -166 -270 -166c-174 0 -317 154 -317 342v278h113v-265c0 -140 85 -248 204 -248c118 0 202 107 202 248v265h113v-187c89 121 199 189 307 189c172 0 258 -118 258 -352c0 -33 -2 -67 -5 -104zM1113 114l2 32c0 129 -60 210 -155 210
c-112 0 -231 -104 -293 -242h446zM1012 546h-110v111h110v-111z" />
    <glyph glyph-name="taharabic" unicode="&#x637;" horiz-adv-x="811" arabic-form="isolated" 
d="M32 114h96v531h111l-13 -362c92 119 188 173 294 173c173 0 259 -118 259 -352c0 -33 -2 -67 -5 -104h-742v114zM217 114h446l2 32c0 127 -59 210 -155 210c-112 0 -231 -104 -293 -242z" />
    <glyph glyph-name="zaharabic" unicode="&#x638;" horiz-adv-x="811" arabic-form="isolated" 
d="M774 0h-742v114h96v531h111l-13 -362c92 119 188 173 294 173c173 0 259 -118 259 -352c0 -33 -2 -67 -5 -104zM663 114l2 32c0 127 -59 210 -155 210c-112 0 -231 -104 -293 -242h446zM552 546h-109v111h109v-111z" />
    <glyph glyph-name="ainarabic" unicode="&#x639;" horiz-adv-x="591" arabic-form="isolated" 
d="M559 201h-264c-104 0 -156 -44 -156 -131c0 -78 60 -125 156 -125h179v-111h-171c-158 0 -271 94 -271 239c0 124 74 216 188 235c-25 44 -37 86 -37 125c0 125 89 212 206 212c75 0 130 -35 164 -106l-84 -40c-17 36 -44 54 -82 54c-62 0 -101 -49 -101 -118
c0 -53 32 -110 69 -123h204v-111z" />
    <glyph glyph-name="ghainarabic" unicode="&#x63a;" horiz-adv-x="591" arabic-form="isolated" 
d="M559 201h-264c-104 0 -156 -44 -156 -131c0 -78 60 -125 156 -125h179v-111h-171c-158 0 -271 94 -271 239c0 124 74 216 188 235c-25 44 -37 86 -37 125c0 125 89 212 206 212c75 0 130 -35 164 -106l-84 -40c-17 36 -44 54 -82 54c-62 0 -101 -49 -101 -118
c0 -53 32 -110 69 -123h204v-111zM443 722h-109v111h109v-111z" />
    <glyph glyph-name="feharabic" unicode="&#x641;" horiz-adv-x="951" arabic-form="isolated" 
d="M803 230c0 76 -46 132 -112 132c-65 0 -107 -50 -107 -128c0 -73 45 -131 112 -131c68 0 107 55 107 127zM918 230c0 -132 -90 -230 -224 -230h-355c-205 0 -307 98 -307 283v151h111v-151c0 -120 59 -169 194 -169h159c-17 38 -28 76 -28 119c0 134 93 231 226 231
s224 -103 224 -234zM750 546h-110v111h110v-111z" />
    <glyph glyph-name="qafarabic" unicode="&#x642;" horiz-adv-x="731" arabic-form="isolated" 
d="M699 162c0 -184 -145 -328 -331 -328c-193 0 -336 143 -336 328v186h106v-174c0 -145 89 -239 227 -239c101 0 192 61 222 151c-28 -19 -60 -28 -96 -28c-127 0 -208 82 -208 214s78 214 205 214s210 -78 210 -211c1 -5 1 -43 1 -113zM594 268c0 82 -45 137 -104 137
c-58 0 -103 -57 -103 -131c0 -76 40 -131 104 -131c63 0 103 53 103 125zM449 546h-110v111h110v-111zM639 546h-110v111h110v-111z" />
    <glyph glyph-name="kafarabic" unicode="&#x643;" horiz-adv-x="901" arabic-form="isolated" 
d="M868 645v-485c0 -100 -56 -160 -155 -160h-363c-212 0 -318 94 -318 283v171h111v-171c0 -65 19 -111 57 -137c30 -21 76 -32 137 -32h274c51 0 86 6 105 19c28 18 42 53 42 104v408h110zM579 389h-249v67h54c-7 15 -11 32 -11 49c0 63 45 113 108 113
c44 0 75 -20 92 -60l-47 -32c-7 21 -21 32 -42 32c-30 0 -45 -19 -45 -57c0 -19 5 -34 14 -45h126v-67z" />
    <glyph glyph-name="lamarabic" unicode="&#x644;" horiz-adv-x="696" arabic-form="isolated" 
d="M664 176c0 -184 -141 -342 -315 -342s-317 154 -317 342v98h113v-85c0 -137 82 -248 204 -248c118 0 202 109 202 248v456h113v-469z" />
    <glyph glyph-name="meemarabic" unicode="&#x645;" horiz-adv-x="805" arabic-form="isolated" 
d="M771 220c0 -131 -92 -230 -224 -230c-133 0 -226 103 -226 233c0 45 9 84 28 118h-82c-75 0 -123 -66 -123 -175v-332h-112v355c0 160 85 266 233 266h282c133 0 224 -103 224 -235zM656 220c0 75 -44 132 -113 132c-68 0 -107 -56 -107 -128c0 -73 47 -131 114 -131
c63 0 106 53 106 127z" />
    <glyph glyph-name="noonarabic" unicode="&#x646;" horiz-adv-x="696" arabic-form="isolated" 
d="M664 176c0 -93 -31 -173 -92 -240c-61 -68 -135 -102 -223 -102c-87 0 -161 33 -222 98c-63 66 -95 147 -95 244v278h113v-265c0 -65 17 -121 50 -168c39 -53 90 -80 154 -80c63 0 114 27 153 80c33 47 49 103 49 168v265h113v-278zM406 546h-110v111h110v-111z" />
    <glyph glyph-name="heharabic" unicode="&#x647;" horiz-adv-x="531" arabic-form="isolated" 
d="M506 242c0 -137 -94 -242 -236 -242c-140 0 -238 106 -238 246c0 143 101 243 238 243s236 -103 236 -247zM391 242c0 84 -49 147 -125 147c-74 0 -118 -61 -118 -142c0 -83 53 -146 125 -146s118 60 118 141z" />
    <glyph glyph-name="wawarabic" unicode="&#x648;" horiz-adv-x="525" arabic-form="isolated" 
d="M493 14c0 -119 -72 -179 -217 -179v89c70 2 105 49 107 127c-19 -34 -55 -51 -106 -51c-129 0 -215 95 -215 228c0 135 89 227 215 227c132 0 216 -98 216 -230v-211zM378 223c0 78 -42 130 -106 130c-59 0 -98 -57 -98 -125c0 -70 42 -127 103 -127c60 0 101 56 101 122
z" />
    <glyph glyph-name="alefmaksuraarabic" unicode="&#x649;" horiz-adv-x="759" arabic-form="isolated" 
d="M727 283v-107c0 -193 -153 -342 -344 -342h-7c-193 0 -344 148 -344 342v111h112v-99c0 -150 89 -247 235 -247c145 0 224 78 236 233h-264c0 212 122 328 337 328v-104c-120 0 -172 -30 -208 -115h247z" />
    <glyph glyph-name="yeharabic" unicode="&#x64a;" horiz-adv-x="759" arabic-form="isolated" 
d="M727 176c0 -97 -33 -179 -100 -244c-66 -65 -147 -98 -244 -98h-7c-97 0 -179 33 -245 98s-99 147 -99 244v111h112v-99c0 -74 20 -133 60 -177c41 -47 100 -70 175 -70c145 0 224 78 236 233h-264c0 212 122 328 337 328v-104c-55 0 -97 -7 -126 -21
c-35 -17 -63 -49 -82 -94h247v-107zM526 -387h-110v111h110v-111zM337 -387h-110v111h110v-111z" />
    <glyph glyph-name="fathatanarabic" unicode="&#xfe70;" arabic-form="isolated" 
d="M218 804c-3 -21 -19 -36 -48 -43c-7 -2 -52 -11 -136 -29l-10 -2c6 18 19 31 39 38zM206 742c-3 -22 -19 -37 -48 -44c-7 -1 -55 -11 -146 -30c6 18 19 31 39 38z" />
    <glyph glyph-name="dammatanarabic" unicode="&#xfe72;" arabic-form="isolated" 
d="M214 767c0 -37 -48 -99 -156 -99c-3 5 -8 13 -13 22c14 9 21 25 21 46c0 17 -8 29 -26 29c-9 0 -19 -4 -28 -11c7 21 20 31 41 31c25 0 37 -16 37 -44c0 -17 -6 -33 -17 -46c21 0 57 13 70 25c-19 15 -28 33 -28 54c0 24 17 50 46 50c36 0 53 -30 53 -57zM164 800
c-17 0 -25 -9 -25 -26c0 -19 7 -32 21 -41c21 13 31 26 31 40c0 15 -14 27 -27 27z" />
    <glyph glyph-name="kasratanarabic" unicode="&#xfe74;" arabic-form="isolated" 
d="M214 -275c-3 -21 -19 -36 -48 -43c-7 -2 -52 -11 -136 -29l-10 -2c7 18 20 31 39 38zM202 -337c-3 -22 -19 -37 -48 -44c-7 -1 -55 -11 -146 -30c7 18 20 31 39 38z" />
    <glyph glyph-name="fathaarabic" unicode="&#xfe76;" arabic-form="isolated" 
d="M214 739c-3 -21 -19 -36 -48 -43c-7 -1 -55 -11 -146 -30c7 18 20 30 39 37z" />
    <glyph glyph-name="dammaarabic" unicode="&#xfe78;" arabic-form="isolated" 
d="M192 768c0 -32 -28 -70 -92 -89c-24 -7 -45 -11 -64 -11c-3 6 -8 14 -14 24c18 0 37 3 57 10c21 7 34 13 41 19c-19 15 -28 33 -28 54c0 14 5 26 16 37c7 8 18 12 31 12c36 0 53 -31 53 -56zM142 800c-17 0 -25 -8 -25 -25c0 -18 7 -31 21 -40c21 11 31 25 31 40
c0 13 -14 25 -27 25z" />
    <glyph glyph-name="kasraarabic" unicode="&#xfe7a;" arabic-form="isolated" 
d="M203 -273c-3 -21 -18 -36 -47 -43c-7 -1 -55 -12 -146 -31c6 19 19 31 39 38z" />
    <glyph glyph-name="shaddaarabic" unicode="&#xfe7c;" arabic-form="isolated" 
d="M219 741c2 -8 3 -14 3 -19c0 -19 -15 -36 -46 -36c-17 0 -31 11 -44 33c-2 -32 -18 -53 -48 -53c-22 0 -38 13 -43 38l-16 76l32 8l15 -69c3 -11 8 -17 15 -17c13 0 24 16 24 29c0 4 -1 8 -2 12l-11 53l33 7l11 -52c4 -20 14 -31 31 -31c9 0 13 5 13 15c0 3 0 5 -1 8
l-14 69l33 6z" />
    <glyph glyph-name="sukunarabic" unicode="&#xfe7e;" arabic-form="isolated" 
d="M157 752c1 -7 2 -13 2 -19c0 -39 -24 -67 -71 -67c-36 0 -66 26 -66 77c0 38 24 65 70 65c35 0 57 -19 65 -56zM89 783c-24 0 -36 -12 -36 -37c0 -28 14 -54 40 -54c23 0 34 16 34 38c0 25 -14 53 -38 53z" />
    <glyph glyph-name="peharabic" unicode="&#x67e;" horiz-adv-x="901" arabic-form="isolated" 
d="M868 454v-294c0 -100 -56 -160 -155 -160h-363c-212 0 -318 94 -318 283v171h111v-171c0 -65 19 -111 57 -137c30 -21 76 -32 137 -32h274c51 0 86 6 105 19c28 18 42 53 42 104v217h110zM620 -178h-110v112h110v-112zM431 -178h-110v112h110v-112zM527 -336h-109v112
h109v-112z" />
    <glyph glyph-name="tcheharabic" unicode="&#x686;" horiz-adv-x="543" arabic-form="isolated" 
d="M407 91h-79v80h79v-80zM272 91h-78v80h78v-80zM340 -21h-78v79h78v-79zM511 305v-91h-239c-76 0 -128 -53 -128 -137c0 -37 12 -67 37 -90s56 -35 91 -35h121v-117h-80c-83 0 -149 19 -198 57c-55 44 -83 107 -83 190s23 146 69 189c41 39 97 58 166 58h123
c-19 111 -77 157 -175 157c-38 0 -64 -8 -78 -16v96c21 9 50 17 86 17c98 0 174 -29 227 -99c41 -54 61 -114 61 -179z" />
    <glyph glyph-name="veharabic" unicode="&#x6a4;" horiz-adv-x="951" arabic-form="isolated" 
d="M751 703v112h-109v-112h109zM845 546v111h-110v-111h110zM656 546v111h-110v-111h110zM918 230c0 131 -91 234 -224 234s-226 -97 -226 -231c0 -43 11 -82 28 -120v1h-159c-135 0 -194 49 -194 169v151h-111v-151c0 -185 102 -283 307 -283h355c134 0 224 98 224 230z
M803 230c0 -72 -39 -127 -107 -127c-67 0 -112 58 -112 131c0 78 42 128 107 128c66 0 112 -56 112 -132z" />
    <glyph glyph-name="jeharabic" unicode="&#x698;" horiz-adv-x="325" arabic-form="isolated" 
d="M293 454v-365c0 -180 -79 -255 -251 -255v96c93 0 139 46 139 142v382h112zM103 546h-110v112h110v-112zM292 546h-110v112h110v-112zM199 705h-110v111h110v-111z" />
    <glyph glyph-name="alefwaslafinal" unicode="&#x671;" horiz-adv-x="346" arabic-form="final" 
d="M366 0h-131c-54 0 -95 17 -124 52c-27 32 -40 75 -40 130v463h111v-418c0 -49 11 -81 32 -96c15 -11 44 -17 86 -17h66v-114zM234 701h-235v31h28v64l24 -1v-59c17 38 37 65 62 81c15 9 29 14 42 14h7c47 -6 72 -49 72 -130zM199 730v4c0 41 -14 63 -43 64
c-28 0 -57 -22 -86 -67z" />
    <glyph glyph-name="alefwaslaisolated" unicode="&#x671;" horiz-adv-x="214" arabic-form="isolated" 
d="M182 0h-111v646h111v-646zM234 701h-235v31h28v64l24 -1v-59c17 38 37 65 62 81c15 9 29 14 42 14h7c47 -6 72 -49 72 -130zM199 730v4c0 41 -14 63 -43 64c-28 0 -57 -22 -86 -67z" />
    <glyph glyph-name="pehmedialarabic" unicode="&#x67e;" horiz-adv-x="431" arabic-form="medial" 
d="M278 -178h-109v112h109v-112zM89 -178h-110v112h110v-112zM185 -336h-109v112h109v-112zM446 0h-462v114h104c33 0 55 11 67 34c8 15 12 41 12 76v230h111v-224c0 -59 -8 -97 -24 -116h192v-114z" />
    <glyph glyph-name="tchehfinalarabic" unicode="&#x686;" horiz-adv-x="689" arabic-form="final" 
d="M407 91h-79v80h79v-80zM272 91h-78v80h78v-80zM340 -21h-78v79h78v-79zM706 0h-26c-77 0 -142 26 -196 78c-43 42 -68 87 -77 136h-135c-76 0 -128 -53 -128 -137c0 -37 12 -67 37 -90s56 -35 91 -35h121v-117h-80c-83 0 -149 19 -198 57c-55 44 -83 107 -83 190
s23 146 69 189c41 39 97 58 166 58h123c-19 111 -77 157 -175 157c-38 0 -64 -8 -78 -16v96c21 9 50 17 86 17c169 0 265 -85 288 -278c9 -73 33 -125 74 -157c28 -23 60 -34 95 -34h26v-114z" />
    <glyph glyph-name="tchehmedialarabic" unicode="&#x686;" horiz-adv-x="774" arabic-form="medial" 
d="M515 -178h-109v112h109v-112zM325 -178h-109v112h109v-112zM422 -336h-109v112h109v-112zM787 0h-803v114h578c0 62 -17 115 -52 159c-41 51 -99 76 -172 76c-25 0 -53 -6 -84 -19c-36 -15 -66 -36 -90 -63c-11 21 -29 50 -54 88c31 29 66 53 107 71c44 19 88 28 132 28
c69 0 130 -16 182 -48c91 -56 141 -153 150 -292h106v-114z" />
    <glyph glyph-name="tchehinitialarabic" unicode="&#x686;" horiz-adv-x="715" arabic-form="initial" 
d="M498 -178h-110v112h110v-112zM309 -178h-110v112h110v-112zM405 -336h-110v112h110v-112zM683 70v-70h-704v114h583c0 62 -17 115 -52 159c-41 51 -99 76 -172 76c-25 0 -53 -6 -84 -19c-36 -15 -66 -36 -90 -63c-11 21 -29 50 -54 88c31 29 66 53 107 71
c44 19 88 28 132 28c74 0 138 -18 192 -55c95 -63 142 -172 142 -329z" />
    <glyph glyph-name="pehfinalarabic" unicode="&#x67e;" horiz-adv-x="1020" arabic-form="final" 
d="M1032 0h-682c-212 0 -318 94 -318 283v171h111v-171c0 -65 19 -111 57 -137c30 -21 76 -32 137 -32h340c33 0 56 11 67 34c8 15 12 41 12 76v230h112v-224c0 -59 -8 -97 -25 -116h189v-114zM636 -178h-110v112h110v-112zM446 -178h-109v112h109v-112zM543 -336h-110v112
h110v-112z" />
    <glyph glyph-name=".notdef" horiz-adv-x="500" 
d="M63 0v750h375v-750h-375zM125 63h250v625h-250v-625z" />
    <glyph glyph-name=".null" 
 />
    <glyph glyph-name="CR" horiz-adv-x="333" 
 />
    <glyph glyph-name="space" unicode=" " horiz-adv-x="240" 
 />
    <glyph glyph-name="_4" horiz-adv-x="280" 
 />
    <glyph glyph-name="_13" horiz-adv-x="273" 
 />
    <glyph glyph-name="kashidaautoarabic" horiz-adv-x="198" 
d="M206 0h-211v114h211v-114z" />
    <glyph glyph-name="decimalseparatorarabic" unicode="&#x66b;" horiz-adv-x="189" 
d="M24 149h123v-139c0 -38 -12 -66 -36 -85c-16 -12 -42 -22 -79 -30v53c33 4 50 29 50 75h-58v126z" />
    <glyph glyph-name="thousandsseparatorarabic" unicode="&#x66c;" horiz-adv-x="189" 
d="M24 149h123v-139c0 -38 -12 -66 -36 -85c-16 -12 -42 -22 -79 -30v53c33 4 50 29 50 75h-58v126z" />
    <glyph glyph-name="nonbreakingspace" horiz-adv-x="623" 
 />
    <glyph glyph-name="guillemotleft" unicode="&#xab;" horiz-adv-x="363" 
d="M313 33l-39 -35c-66 53 -99 116 -99 189s34 134 101 183l37 -38c-42 -38 -63 -88 -63 -150c0 -33 5 -60 16 -82c8 -18 24 -40 47 -67zM167 33l-40 -35c-65 53 -98 116 -98 189s33 134 100 183l38 -38c-43 -38 -64 -88 -64 -150c0 -33 5 -60 16 -82c8 -18 24 -40 48 -67z
" />
    <glyph glyph-name="guillemotright" unicode="&#xbb;" horiz-adv-x="407" 
d="M374 187c0 -73 -32 -136 -97 -189l-40 35c23 27 39 49 48 67c10 22 15 49 15 82c0 62 -21 112 -63 150l38 38c66 -49 99 -110 99 -183zM229 187c0 -73 -33 -136 -99 -189l-40 35c24 27 40 49 48 67c11 22 16 49 16 82c0 62 -21 112 -64 150l38 38
c67 -49 101 -110 101 -183z" />
    <glyph glyph-name="divide" unicode="&#xf7;" horiz-adv-x="662" 
d="M387 396h-112v124h112v-124zM592 237h-522v103h522v-103zM386 57h-111v124h111v-124z" />
    <glyph glyph-name="exclam" unicode="!" horiz-adv-x="230" 
d="M157 402c0 -12 -2 -25 -5 -40c-4 -23 -6 -37 -7 -40l-23 -160h-52l-23 160c-7 51 -11 77 -11 80v249h121v-249zM157 0h-121v127h121v-127z" />
    <glyph glyph-name="quotedbl" unicode="&#x22;" horiz-adv-x="251" 
d="M103 686l-25 -272h-30l-27 272h82zM228 686l-25 -272h-30l-27 272h82z" />
    <glyph glyph-name="dollar" unicode="$" horiz-adv-x="575" 
d="M542 160c0 -119 -75 -186 -226 -201v-113h-44v113c-96 10 -176 35 -240 76l66 77c57 -31 115 -49 174 -54v173c-147 29 -220 87 -220 172c0 67 22 116 65 147c33 23 85 38 154 45v107h45v-108c69 -7 135 -30 197 -67l-62 -74c-27 13 -48 22 -61 27c-25 10 -49 16 -74 19
v-156c74 -17 124 -34 151 -50c50 -30 75 -74 75 -133zM272 350v148c-32 -4 -55 -10 -69 -17c-22 -11 -33 -30 -33 -57c0 -24 12 -42 36 -54c13 -7 35 -13 66 -20zM425 148c0 39 -36 64 -109 74v-164c35 7 60 14 74 23c23 15 35 37 35 67z" />
    <glyph glyph-name="percentarabic" unicode="&#x66a;" horiz-adv-x="430" 
d="M187 526h-96v92h96v-92zM397 646l-266 -646h-99l266 646h99zM346 32h-97v92h97v-92z" />
    <glyph glyph-name="quotesingle" unicode="'" horiz-adv-x="126" 
d="M103 686l-25 -272h-30l-27 272h82z" />
    <glyph glyph-name="parenright" unicode=")" horiz-adv-x="368" 
d="M336 295c0 -115 -33 -220 -99 -313c-32 -46 -76 -90 -132 -133l-43 47c32 33 55 59 70 80c61 84 91 187 91 310c0 82 -14 158 -43 229c-28 71 -67 127 -118 168l41 55c5 -5 12 -10 21 -17c41 -33 76 -69 105 -106c71 -93 107 -199 107 -320z" />
    <glyph glyph-name="parenleft" unicode="(" horiz-adv-x="310" 
d="M310 -97l-41 -54c-11 8 -18 13 -22 16c-141 116 -212 258 -212 426c0 117 33 222 98 313c35 48 76 91 133 134l42 -47c-32 -33 -55 -60 -70 -81c-60 -83 -90 -186 -90 -309c0 -82 14 -159 43 -230s68 -127 119 -168z" />
    <glyph glyph-name="multiply" unicode="&#xd7;" horiz-adv-x="534" 
d="M464 141l-64 -68l-133 142l-132 -142l-65 68l133 142l-133 142l65 68l132 -142l133 142l64 -68l-133 -142z" />
    <glyph glyph-name="plus" unicode="+" horiz-adv-x="636" 
d="M566 240h-193v-199h-112v199h-191v95h191v200h112v-200h193v-95z" />
    <glyph glyph-name="commaarabic" unicode="&#x60c;" horiz-adv-x="208" 
d="M148 0h-123v139c0 38 12 66 36 85c16 12 42 22 79 30v-53c-33 -4 -50 -29 -50 -75h58v-126z" />
    <glyph glyph-name="hyphen" unicode="-" horiz-adv-x="443" 
d="M373 230h-303v100h303v-100z" />
    <glyph glyph-name="period" unicode="." horiz-adv-x="207" 
d="M147 0h-122v126h122v-126z" />
    <glyph glyph-name="slash" unicode="/" horiz-adv-x="419" 
d="M419 651l-309 -651h-110l309 651h110z" />
    <glyph glyph-name="zeroarabic" unicode="&#x660;" horiz-adv-x="280" 
d="M210 103l-140 70v154l140 -69v-155z" />
    <glyph glyph-name="onearabic" unicode="&#x661;" horiz-adv-x="251" 
d="M181 0h-111v551l111 81v-632z" />
    <glyph glyph-name="twoarabic" unicode="&#x662;" horiz-adv-x="526" 
d="M456 548h-108c-53 0 -95 -23 -126 -69c-27 -41 -41 -88 -41 -143v-336h-111v276c0 221 78 369 278 369c22 0 58 0 108 1v-98z" />
    <glyph glyph-name="threearabic" unicode="&#x663;" horiz-adv-x="568" 
d="M531 540c0 -59 -21 -105 -64 -137c-37 -28 -86 -42 -147 -42h-139v-361h-111v641h111v-178c71 0 81 34 81 103v75h98v-101c0 -29 0 -66 -23 -81c83 0 86 38 86 107v75h108v-101z" />
    <glyph glyph-name="fourarabic" unicode="&#x664;" horiz-adv-x="496" 
d="M447 0h-181c-125 0 -217 75 -217 183c0 83 46 133 137 150c-81 24 -122 76 -122 156c0 94 78 156 187 156h174v-90h-155c-63 0 -93 -38 -93 -94c0 -49 42 -86 93 -86h54v-75h-58c-62 0 -104 -39 -104 -107c0 -60 42 -100 104 -100h181v-93z" />
    <glyph glyph-name="fivearabic" unicode="&#x665;" horiz-adv-x="556" 
d="M505 283c0 -145 -86 -244 -229 -244s-231 92 -231 243c0 63 32 132 96 205c53 60 96 96 131 109c37 -13 82 -48 135 -105c66 -71 98 -141 98 -208zM391 279c0 71 -63 178 -118 208c-51 -27 -119 -139 -119 -208c0 -86 46 -139 119 -139c71 0 118 53 118 139z" />
    <glyph glyph-name="sixarabic" unicode="&#x666;" horiz-adv-x="526" 
d="M70 548v98c50 -1 86 -1 108 -1c200 0 278 -148 278 -369v-276h-111v336c0 55 -14 102 -41 143c-31 46 -73 69 -126 69h-108z" />
    <glyph glyph-name="sevenarabic" unicode="&#x667;" horiz-adv-x="549" 
d="M349 0h-146l-153 645h114l115 -521l98 521h122z" />
    <glyph glyph-name="eightarabic" unicode="&#x668;" horiz-adv-x="549" 
d="M499 0h-122l-98 522l-115 -522h-114l153 645h146z" />
    <glyph glyph-name="ninearabic" unicode="&#x669;" horiz-adv-x="558" 
d="M488 419v-419h-110v236c-30 -35 -69 -53 -118 -53c-73 0 -129 24 -168 71c-35 43 -52 99 -52 168c0 65 20 119 61 160c41 42 94 63 159 63c66 0 120 -22 163 -65s65 -96 65 -161zM374 411c0 35 -9 65 -27 90c-21 28 -48 42 -82 42c-33 0 -60 -14 -79 -41
c-17 -23 -25 -52 -25 -87s9 -65 27 -90c21 -27 48 -41 82 -41c33 0 60 14 79 41c17 24 25 53 25 86z" />
    <glyph glyph-name="colon" unicode=":" horiz-adv-x="217" 
d="M147 0h-122v126h122v-126zM147 219h-122v127h122v-127z" />
    <glyph glyph-name="semicolonarabic" unicode="&#x61b;" horiz-adv-x="208" 
d="M147 0h-122v126h122v-126zM148 221h-123v140c0 38 12 66 36 84c16 13 42 23 79 31v-54c-33 -3 -50 -28 -50 -74h58v-127z" />
    <glyph glyph-name="greater" unicode="&#x3e;" horiz-adv-x="542" 
d="M418 223l-234 -233h-109l234 233l-234 234h109z" />
    <glyph glyph-name="equal" unicode="=" horiz-adv-x="596" 
d="M540 326h-485v96h485v-96zM540 136h-485v97h485v-97z" />
    <glyph glyph-name="less" unicode="&#x3c;" horiz-adv-x="542" 
d="M477 0h-119l-234 233l234 234h119l-234 -234z" />
    <glyph glyph-name="questionarabic" unicode="&#x61f;" horiz-adv-x="509" 
d="M483 449l-111 -13c0 71 -41 121 -109 121c-51 0 -97 -37 -97 -88c0 -23 8 -43 23 -60c7 -9 24 -21 49 -38c22 -16 38 -31 47 -44c17 -25 26 -70 26 -136v-23h-109c1 5 1 14 1 26c0 29 -4 50 -11 63s-23 29 -50 46c-8 6 -20 14 -35 25c-45 37 -68 84 -68 141
c0 60 22 108 66 143c41 33 91 50 151 50c107 0 177 -42 210 -127c9 -21 14 -50 17 -86zM317 0h-122v126h122v-126z" />
    <glyph glyph-name="asteriskarabic" unicode="&#x66d;" horiz-adv-x="500" 
d="M447 245l-116 -92l51 -138l-17 -15l-113 94l-114 -94l-17 13l52 139l-117 93l9 21l138 -21l39 143h20l38 -143l138 20z" />
    <glyph glyph-name="bracketright" unicode="]" horiz-adv-x="254" 
d="M221 -133h-189v68h90v717h-90v66h189v-851z" />
    <glyph glyph-name="backslash" unicode="\" horiz-adv-x="479" 
d="M446 0h-109l-309 651h109z" />
    <glyph glyph-name="bracketleft" unicode="[" horiz-adv-x="254" 
d="M221 -133h-189v851h189v-67h-89v-717h89v-67z" />
    <glyph glyph-name="underscore" unicode="_" horiz-adv-x="382" 
d="M365 -100h-349v84h349v-84z" />
    <glyph glyph-name="tatweelarabic" unicode="&#x640;" horiz-adv-x="198" 
d="M206 0h-221v114h221v-114z" />
    <glyph glyph-name="braceright" unicode="}" horiz-adv-x="375" 
d="M35 -124c0 6 0 12 1 16c99 1 145 17 145 79c0 5 0 10 -1 16v202c0 36 24 69 72 100c-48 37 -72 73 -72 99v202c0 41 -11 67 -30 78c-18 14 -55 21 -113 21v9c0 9 0 19 2 29c152 0 211 -40 211 -137v-202c0 -19 6 -37 21 -56c16 -21 37 -33 61 -43h2
c-57 -37 -84 -72 -84 -100v-202c0 -46 -14 -77 -43 -97c-27 -23 -75 -33 -142 -33l-29 2c-1 5 -1 8 -1 17z" />
    <glyph glyph-name="bar" unicode="|" horiz-adv-x="132" 
d="M34 -141v866h63v-866h-63z" />
    <glyph glyph-name="braceleft" unicode="{" horiz-adv-x="375" 
d="M335 -124c0 -9 0 -12 -1 -17l-29 -2c-67 0 -115 10 -142 33c-29 20 -43 51 -43 97v202c0 28 -27 63 -84 100h2c24 10 45 22 61 43c15 19 21 37 21 56v202c0 97 59 137 211 137c2 -10 2 -20 2 -29v-9c-58 0 -95 -7 -113 -21c-19 -11 -30 -37 -30 -78v-202
c0 -26 -24 -62 -72 -99c48 -31 72 -64 72 -100v-202c-1 -6 -1 -11 -1 -16c0 -62 46 -78 145 -79c1 -4 1 -10 1 -16z" />
    <glyph glyph-name="zero" unicode="0" horiz-adv-x="604" 
d="M548 304c0 -107.333 -21.1667 -186 -63.5 -236c-42.3333 -50 -102.833 -75 -181.5 -75c-38 0 -72 5.83333 -102 17.5c-30 11.6667 -55.6667 30.1667 -77 55.5c-21.3333 25.3333 -37.8333 57.8333 -49.5 97.5c-11.6667 39.6667 -17.5 86.5 -17.5 140.5v135
c0 107.333 21.3333 186 64 236c42.6667 50 103.333 75 182 75c78.6667 0 139.167 -25 181.5 -75c42.3333 -50 63.5 -128.667 63.5 -236v-135zM457 304v135c0 54 -6.16667 98.5 -18.5 133.5s-30 60.5 -53 76.5s-50.5 24 -82.5 24s-59.5 -8 -82.5 -24
s-40.6667 -41.5 -53 -76.5s-18.5 -79.5 -18.5 -133.5v-135c0 -54.6667 6.16667 -99.3333 18.5 -134s30 -60 53 -76s50.5 -24 82.5 -24s59.5 8 82.5 24s40.6667 41.3333 53 76s18.5 79.3333 18.5 134z" />
    <glyph glyph-name="one" unicode="1" horiz-adv-x="429" 
d="M293 20c0 -6 -1.66667 -10.8333 -5 -14.5c-3.33333 -3.66667 -7.66667 -5.5 -13 -5.5h-55c-5.33333 0 -9.66667 2 -13 6s-5 8.66667 -5 14v629l-129 -56c-5.33333 -2 -9.66667 -3 -13 -3c-6 0 -9 3.66667 -9 11v51c0 4.66667 3.33333 9 10 13l151 72c8 4 15 6 21 6h41
c5.33333 0 9.83333 -1.66667 13.5 -5s5.5 -8 5.5 -14v-704z" />
    <glyph glyph-name="two" unicode="2" horiz-adv-x="604" 
d="M526 571c0 -39.3333 -9.66667 -73.1667 -29 -101.5c-19.3333 -28.3333 -53 -58.8333 -101 -91.5l-96 -65c-36 -24.6667 -64.1667 -47.6667 -84.5 -69c-20.3333 -21.3333 -34.6667 -43.1667 -43 -65.5s-12.5 -48.5 -12.5 -78.5v-21h337c5.33333 0 10 -1.5 14 -4.5
s6 -7.16667 6 -12.5v-44c0 -5.33333 -2 -9.66667 -6 -13c-4 -3.33333 -8.66667 -5 -14 -5h-397c-6 0 -10.8333 1.83333 -14.5 5.5c-3.66667 3.66667 -5.5 8.16667 -5.5 13.5v81c0 26.6667 3 52 9 76s15 46.5 27 67.5s27.6667 41.5 47 61.5s42.6667 39.3333 70 58l101 68
c42 28 69.6667 50.8333 83 68.5c13.3333 17.6667 20 41.5 20 71.5c0 36.6667 -11.6667 63 -35 79s-61.6667 24 -115 24c-48 0 -107 -5 -177 -15h-4c-10.6667 0 -16 6 -16 18v35c0 9.33333 6.33333 15.3333 19 18c52 13.3333 111.333 20 178 20
c81.3333 0 141.5 -14.5 180.5 -43.5s58.5 -74.1667 58.5 -135.5z" />
    <glyph glyph-name="three" unicode="3" horiz-adv-x="604" 
d="M521 207c0 -48 -10.5 -88 -31.5 -120s-49.8333 -55.6667 -86.5 -71c-36.6667 -15.3333 -80.3333 -23 -131 -23c-55.3333 0 -111.667 6.66667 -169 20c-12.6667 2 -19 8.33333 -19 19v34c0 11.3333 5.66667 17 17 17h3c72.6667 -9.33333 128.667 -14 168 -14
c54.6667 0 94.3333 11 119 33s37 57 37 105v21c0 19.3333 -3.66667 38.1667 -11 56.5s-19.6667 33.8333 -37 46.5s-40.3333 19 -69 19h-172c-12.6667 0 -19 6 -19 18v35c0 5.33333 1.83333 9.83333 5.5 13.5c3.66667 3.66667 8.16667 5.5 13.5 5.5h172
c30 0 53.6667 5.83333 71 17.5s29.3333 26.5 36 44.5s10 37 10 57v14c0 41.3333 -12 71.5 -36 90.5s-64 28.5 -120 28.5c-13.3333 0 -30.6667 -0.833333 -52 -2.5s-40.8333 -3.5 -58.5 -5.5s-36.8333 -4.33333 -57.5 -7h-3c-11.3333 0 -17 5.66667 -17 17v35
c0 4 1.83333 8 5.5 12s8.16667 6.33333 13.5 7c62 13.3333 118.333 20 169 20c52 0 96.3333 -6.16667 133 -18.5s65.1667 -33 85.5 -62s30.5 -67.1667 30.5 -114.5v-14c0 -17.3333 -2 -33.5 -6 -48.5s-10.1667 -29.3333 -18.5 -43s-18.5 -26 -30.5 -37
s-25.3333 -20.1667 -40 -27.5c33.3333 -16 57.5 -38 72.5 -66s22.5 -58.3333 22.5 -91v-21z" />
    <glyph glyph-name="four" unicode="4" horiz-adv-x="604" 
d="M567 216c0 -12 -6.33333 -18 -19 -18h-87v-178c0 -5.33333 -1.5 -10 -4.5 -14s-7.16667 -6 -12.5 -6h-58c-11.3333 0 -17 6.66667 -17 20v178h-289c-15.3333 0 -26 3 -32 9s-9 16 -9 30v38c0 14 4 26.3333 12 37l296 415c6.66667 10.6667 16.3333 16 29 16h59
c17.3333 0 26 -7.33333 26 -22v-447h87c5.33333 0 9.83333 -1.5 13.5 -4.5s5.5 -7.5 5.5 -13.5v-40zM370 274v342c0 4 -1.33333 6 -4 6h-1c-2.66667 0 -5.33333 -2 -8 -6l-231 -328c-2 -2.66667 -3 -5.33333 -3 -8c0 -4 2.66667 -6 8 -6h239z" />
    <glyph glyph-name="five" unicode="5" horiz-adv-x="604" 
d="M528 226c0 -48.6667 -10 -90.5 -30 -125.5s-49 -61.6667 -87 -80c-38 -18.3333 -84 -27.5 -138 -27.5c-68 0 -126.667 6 -176 18c-12.6667 3.33333 -19 10 -19 20v37c0 10 5 15 15 15h5c53.3333 -9.33333 111.667 -14 175 -14c108.667 0 163 52.3333 163 157v15
c0 49.3333 -16 84 -48 104s-85.6667 30 -161 30h-120c-4 0 -7.66667 1.83333 -11 5.5s-5 7.5 -5 11.5v1l28 333c0.666667 4.66667 3 8.66667 7 12s8.33333 5 13 5h344c6 0 10.8333 -1.5 14.5 -4.5s5.5 -7.16667 5.5 -12.5v-44c0 -10.6667 -6.66667 -16 -20 -16h-287
l-16 -216h47c65.3333 0 120 -6.5 164 -19.5s77.8333 -35 101.5 -66c23.6667 -31 35.5 -72.1667 35.5 -123.5v-15z" />
    <glyph glyph-name="six" unicode="6" horiz-adv-x="604" 
d="M546 246c0 -53.3333 -9 -98.8333 -27 -136.5c-18 -37.6667 -45.1667 -66.5 -81.5 -86.5s-81.5 -30 -135.5 -30c-38 0 -71.8333 5.83333 -101.5 17.5c-29.6667 11.6667 -55 29.3333 -76 53c-21 23.6667 -37 53.1667 -48 88.5c-11 35.3333 -16.5 77 -16.5 125v175
c0 70.6667 9.66667 127.833 29 171.5s48.3333 75.6667 87 96s87 30.5 145 30.5c64.6667 0 122 -5.66667 172 -17c8 -2 13.8333 -4.33333 17.5 -7c3.66667 -2.66667 5.5 -6.66667 5.5 -12v-39c0 -12 -6 -18 -18 -18c-0.666667 0 -1.5 0.166667 -2.5 0.5
s-2.16667 0.5 -3.5 0.5c-54.6667 10.6667 -111.667 16 -171 16c-48 0 -84.6667 -9 -110 -27s-41.8333 -42.5 -49.5 -73.5s-11.5 -71.5 -11.5 -121.5v-11c58.6667 13.3333 109 20 151 20c46.6667 0 88.1667 -6.5 124.5 -19.5s65.5 -35 87.5 -66s33 -72.1667 33 -123.5v-6z
M456 246v6c0 34 -7 61.1667 -21 81.5s-32.6667 34.8333 -56 43.5s-49.3333 13 -78 13c-22.6667 0 -48.8333 -1.83333 -78.5 -5.5s-53.8333 -7.83333 -72.5 -12.5v-95c0 -53.3333 5.83333 -95.3333 17.5 -126c11.6667 -30.6667 28.5 -52.3333 50.5 -65s50 -19 84 -19
c32.6667 0 60.3333 5.66667 83 17s40.1667 30.5 52.5 57.5s18.5 61.8333 18.5 104.5z" />
    <glyph glyph-name="seven" unicode="7" horiz-adv-x="526" 
d="M496 680c0 -16.6667 -4.33333 -34 -13 -52l-288 -613c-4.66667 -10 -12 -15 -22 -15h-60c-10 0 -15 5 -15 15c0 3.33333 1 7 3 11l302 628c0.666667 0.666667 1 2 1 4c0 4.66667 -2.33333 7 -7 7h-341c-13.3333 0 -20 5.66667 -20 17v42c0 4.66667 2 9 6 13
s8.66667 6 14 6h365c26.6667 0 45.8333 -5.83333 57.5 -17.5s17.5 -26.8333 17.5 -45.5z" />
    <glyph glyph-name="eight" unicode="8" horiz-adv-x="604" 
d="M551 207c0 -46.6667 -10.8333 -86.1667 -32.5 -118.5c-21.6667 -32.3333 -50.8333 -56.3333 -87.5 -72c-36.6667 -15.6667 -77.6667 -23.5 -123 -23.5h-10c-45.3333 0 -86.3333 7.83333 -123 23.5c-36.6667 15.6667 -65.8333 39.6667 -87.5 72
c-21.6667 32.3333 -32.5 71.8333 -32.5 118.5v19c0 32 8.5 62.6667 25.5 92s40.8333 52.6667 71.5 70c-21.3333 10.6667 -39 24 -53 40s-24.5 33.8333 -31.5 53.5s-10.5 40.5 -10.5 62.5v9c0 44.6667 10.3333 81.6667 31 111s49 51 85 65s77.6667 21 125 21h10
c47.3333 0 89 -7 125 -21s64.3333 -35.5 85 -64.5c20.6667 -29 31 -66.1667 31 -111.5v-9c0 -22 -3.5 -42.8333 -10.5 -62.5s-17.5 -37.5 -31.5 -53.5s-31.6667 -29.3333 -53 -40c30 -16.6667 53.6667 -39.8333 71 -69.5c17.3333 -29.6667 26 -60.5 26 -92.5v-19zM461 544v9
c0 40 -13.1667 70.5 -39.5 91.5s-64.1667 31.5 -113.5 31.5h-10c-49.3333 0 -87.1667 -10.6667 -113.5 -32s-39.5 -51.6667 -39.5 -91v-9c0 -34 10.5 -62.5 31.5 -85.5s52.8333 -34.5 95.5 -34.5h62c42.6667 0 74.5 11.5 95.5 34.5s31.5 51.5 31.5 85.5zM460 207v19
c0 20 -4.33333 39.6667 -13 59s-22.5 35.3333 -41.5 48s-42.8333 19 -71.5 19h-62c-21.3333 0 -40.1667 -3.66667 -56.5 -11s-29.6667 -17.3333 -40 -30s-17.8333 -26.5 -22.5 -41.5s-7 -29.5 -7 -43.5v-19c0 -43.3333 13.1667 -77.1667 39.5 -101.5
c26.3333 -24.3333 63.8333 -36.5 112.5 -36.5h10c48.6667 0 86.1667 12.1667 112.5 36.5c26.3333 24.3333 39.5 58.1667 39.5 101.5z" />
    <glyph glyph-name="nine" unicode="9" horiz-adv-x="604" 
d="M537 291c0 -54 -5.5 -99.6667 -16.5 -137c-11 -37.3333 -27.5 -67.8333 -49.5 -91.5c-22 -23.6667 -49.1667 -41.1667 -81.5 -52.5c-32.3333 -11.3333 -70.1667 -17 -113.5 -17c-36 0 -68.3333 1.66667 -97 5c-28.6667 3.33333 -53.6667 7.33333 -75 12
c-16 4 -24 10.3333 -24 19v39c0 12 6 18 18 18c1.33333 0 2.5 -0.166667 3.5 -0.5s1.83333 -0.5 2.5 -0.5c56 -10.6667 113 -16 171 -16c48.6667 0 85.6667 9 111 27s41.8333 42.6667 49.5 74s11.5 71.6667 11.5 121v11c-18.6667 -4 -35.5 -7.33333 -50.5 -10
s-30.5 -5 -46.5 -7s-34 -3 -54 -3c-35.3333 0 -67.3333 3.5 -96 10.5s-54.3333 18.6667 -77 35c-22.6667 16.3333 -40.5 38.1667 -53.5 65.5s-19.5 60 -19.5 98v6c0 38.6667 5 73.8333 15 105.5s25.3333 58.5 46 80.5c20.6667 22 46.1667 38.6667 76.5 50
s65.8333 17 106.5 17c38.6667 0 72.6667 -5.66667 102 -17s54.6667 -28.6667 76 -52s37.5 -53 48.5 -89s16.5 -78 16.5 -126v-175zM446 371l1 95c0 78.6667 -12.5 133.333 -37.5 164s-63.1667 46 -114.5 46c-32.6667 0 -60.5 -5.66667 -83.5 -17s-40.6667 -30.3333 -53 -57
s-18.5 -61.6667 -18.5 -105v-6c0 -50 14.5 -85.5 43.5 -106.5s66.1667 -31.5 111.5 -31.5c20.6667 0 45.8333 1.66667 75.5 5s54.8333 7.66667 75.5 13z" />
    <glyph glyph-name="quotedblleft" unicode="&#x201c;" horiz-adv-x="267" 
d="M237 647c-31 -28 -47 -58 -47 -89v-3c1 -17 10 -25 28 -25h3v-72h-80v81c0 29 23 65 70 108h26zM130 647c-31 -28 -47 -58 -47 -89v-3c1 -17 10 -25 28 -25h3v-72h-80v81c0 29 24 65 71 108h25z" />
    <glyph glyph-name="quotedblright" unicode="&#x201d;" horiz-adv-x="267" 
d="M237 565c0 -29 -24 -64 -71 -107h-25c31 28 47 58 47 88v3c0 17 -9 25 -27 25h-3v73h79v-82zM130 565c0 -29 -24 -64 -71 -107h-25c32 28 48 58 48 88v3c-1 17 -10 25 -28 25h-3v73h79v-82z" />
    <glyph glyph-name="hyphenminus" unicode="&#x2010;" horiz-adv-x="454" 
d="M24 192v39h421v-39h-421z" />
    <glyph glyph-name="delete" unicode="&#x2421;" horiz-adv-x="709" 
d="M674 57h-163v260h36v-229h127v-31zM479 57h-195v260h189v-31h-153v-79h143v-31h-143v-88h159v-31zM253 189c0 -72 -26 -114 -79 -127c-12 -3 -26 -5 -41 -5h-95v260h90c21 0 36 -1 46 -4c53 -12 79 -53 79 -124zM218 189c0 49 -15 80 -46 92c-9 3 -24 5 -44 5h-55v-198
h56c29 0 50 6 63 18c17 18 26 46 26 83z" />
    <glyph glyph-name="nbspace" unicode="&#xa0;" horiz-adv-x="623" 
 />
    <glyph glyph-name="ornaterightparenthesis" unicode="&#xfd3f;" horiz-adv-x="368" 
d="M336 295c0 -115 -33 -220 -99 -313c-32 -46 -76 -90 -132 -133l-43 47c32 33 55 59 70 80c61 84 91 187 91 310c0 82 -14 158 -43 229c-28 71 -67 127 -118 168l41 55c5 -5 12 -10 21 -17c41 -33 76 -69 105 -106c71 -93 107 -199 107 -320z" />
    <glyph glyph-name="ornateleftparenthesis" unicode="&#xfd3e;" horiz-adv-x="310" 
d="M310 -97l-41 -54c-11 8 -18 13 -22 16c-141 116 -212 258 -212 426c0 117 33 222 98 313c35 48 76 91 133 134l42 -47c-32 -33 -55 -60 -70 -81c-60 -83 -90 -186 -90 -309c0 -82 14 -159 43 -230s68 -127 119 -168z" />
    <glyph glyph-name="righttoleft" unicode="&#x200f;" horiz-adv-x="20" 
d="M20 0h-20v702h-78l38 -38l-14 -14l-60 61l60 61l14 -14l-36 -36h96v-722z" />
    <glyph glyph-name="lefttoright" unicode="&#x200e;" horiz-adv-x="20" 
d="M134 711l-60 -61l-14 14l38 38h-78v-702h-20v722h96l-36 36l14 14z" />
    <glyph glyph-name="zerojoin" unicode="&#x200d;" horiz-adv-x="20" 
d="M71 663l-14 -13l-37 37v-687h-20v687l-37 -37l-14 13l48 48l-48 47l14 14l47 -48l47 48l14 -14l-47 -47z" />
    <glyph glyph-name="zeronojoin" unicode="&#x200c;" horiz-adv-x="20" 
d="M20 0h-20v722h20v-722z" />
    <glyph glyph-name="extendedarabicindicdigitnine" unicode="&#x6f9;" horiz-adv-x="558" 
d="M488 419v-419h-110v236c-30 -35 -69 -53 -118 -53c-73 0 -129 24 -168 71c-35 43 -52 99 -52 168c0 65 20 119 61 160c41 42 94 63 159 63c66 0 120 -22 163 -65s65 -96 65 -161zM374 411c0 35 -9 65 -27 90c-21 28 -48 42 -82 42c-33 0 -60 -14 -79 -41
c-17 -23 -25 -52 -25 -87s9 -65 27 -90c21 -27 48 -41 82 -41c33 0 60 14 79 41c17 24 25 53 25 86z" />
    <glyph glyph-name="extendedarabicindicdigiteight" unicode="&#x6f8;" horiz-adv-x="549" 
d="M499 0h-122l-98 522l-115 -522h-114l153 645h146z" />
    <glyph glyph-name="extendedarabicindicdigitseven" unicode="&#x6f7;" horiz-adv-x="549" 
d="M349 0h-146l-153 645h114l115 -521l98 521h122z" />
    <glyph glyph-name="extendedarabicindicdigitsix" unicode="&#x6f6;" horiz-adv-x="526" 
d="M70 548v98c50 -1 86 -1 108 -1c200 0 278 -148 278 -369v-276h-111v336c0 55 -14 102 -41 143c-31 46 -73 69 -126 69h-108z" />
    <glyph glyph-name="extendedarabicindicdigitfive" unicode="&#x6f5;" horiz-adv-x="556" 
d="M505 283c0 -145 -86 -244 -229 -244s-231 92 -231 243c0 63 32 132 96 205c53 60 96 96 131 109c37 -13 82 -48 135 -105c66 -71 98 -141 98 -208zM391 279c0 71 -63 178 -118 208c-51 -27 -119 -139 -119 -208c0 -86 46 -139 119 -139c71 0 118 53 118 139z" />
    <glyph glyph-name="extendedarabicindicdigitfour" unicode="&#x6f4;" horiz-adv-x="496" 
d="M447 0h-181c-125 0 -217 75 -217 183c0 83 46 133 137 150c-81 24 -122 76 -122 156c0 94 78 156 187 156h174v-90h-155c-63 0 -93 -38 -93 -94c0 -49 42 -86 93 -86h54v-75h-58c-62 0 -104 -39 -104 -107c0 -60 42 -100 104 -100h181v-93z" />
    <glyph glyph-name="extendedarabicindicdigitthree" unicode="&#x6f3;" horiz-adv-x="568" 
d="M531 540c0 -59 -21 -105 -64 -137c-37 -28 -86 -42 -147 -42h-139v-361h-111v641h111v-178c71 0 81 34 81 103v75h98v-101c0 -29 0 -66 -23 -81c83 0 86 38 86 107v75h108v-101z" />
    <glyph glyph-name="extendedarabicindicdigittwo" unicode="&#x6f2;" horiz-adv-x="526" 
d="M456 548h-108c-53 0 -95 -23 -126 -69c-27 -41 -41 -88 -41 -143v-336h-111v276c0 221 78 369 278 369c22 0 58 0 108 1v-98z" />
    <glyph glyph-name="extendedarabicindicdigitone" unicode="&#x6f1;" horiz-adv-x="251" 
d="M181 0h-111v551l111 81v-632z" />
    <glyph glyph-name="extendedarabicindicdigitzero" unicode="&#x6f0;" horiz-adv-x="280" 
d="M210 103l-140 70v154l140 -69v-155z" />
    <glyph glyph-name="superscriptalef" unicode="&#x670;" 
d="M23 744v174h34v-174h-34z" />
    <glyph glyph-name="maddaabove" unicode="&#x653;" 
d="M196 731c-18 -28 -36 -42 -54 -42c-10 0 -27 8 -50 25s-43 25 -58 25s-29 -9 -42 -27l-9 34c16 28 33 42 51 42c11 0 29 -8 54 -25s42 -25 53 -25c15 0 31 9 46 28z" />
    <glyph glyph-name="hamzaabove" unicode="&#x654;" 
d="M180 697h-173v46h40c-6 19 -9 30 -9 35c0 47 35 81 78 81c28 0 49 -15 63 -44l-36 -19c-3 15 -13 22 -28 22c-21 0 -34 -19 -34 -38c0 -17 6 -30 18 -37h81v-46z" />
    <glyph glyph-name="hamzabelow" unicode="&#x655;" 
d="M184 -205h-173v46h40c-6 19 -9 31 -9 35c0 47 35 83 78 83c28 0 49 -15 63 -46l-36 -17c-3 15 -13 22 -28 22c-20 0 -34 -19 -34 -39c0 -18 6 -31 18 -38h81v-46z" />
    <glyph glyph-name="zerowidthnobreakspace" unicode="&#xfeff;" 
 />
    <glyph glyph-name="_246" 
 />
    <glyph glyph-name="asterisk" unicode="*" horiz-adv-x="342" 
d="M310 136l-109 6l66 -97l-47 -24l-49 103l-46 -108l-45 29l63 96l-111 -7v51l110 -12l-64 95l47 30l46 -110l48 110l43 -29l-63 -95l111 11v-49z" />
    <glyph glyph-name="nonmarkingreturn" horiz-adv-x="272" 
 />
    <glyph glyph-name="numbersign" unicode="#" horiz-adv-x="660" 
d="M610 512v-2l-2 -22c-0.666667 -12.6667 -7.33333 -19 -20 -19h-97l-18 -202h98c4.66667 0 8.5 -1.83333 11.5 -5.5s4.5 -8.16667 4.5 -13.5v-2l-2 -21c-0.666667 -12.6667 -7.33333 -19 -20 -19h-98l-16 -187c-1.33333 -12.6667 -7.33333 -19 -18 -19h-44
c-10.6667 0 -16 5.66667 -16 17v2l16 187h-155l-16 -187c-1.33333 -12.6667 -7.33333 -19 -18 -19h-45c-4 0 -7.66667 1.83333 -11 5.5c-3.33333 3.66667 -5 7.5 -5 11.5v2l16 187h-93c-4.66667 0 -8.5 1.83333 -11.5 5.5s-4.5 8.16667 -4.5 13.5v2l2 21
c0.666667 5.33333 2.83333 9.83333 6.5 13.5s8.16667 5.5 13.5 5.5h93l18 202h-94c-4.66667 0 -8.5 1.83333 -11.5 5.5s-4.5 8.16667 -4.5 13.5v2l2 22c0.666667 5.33333 2.83333 9.83333 6.5 13.5s8.16667 5.5 13.5 5.5h93l17 193c0 4.66667 2 9 6 13s8.33333 6 13 6h45
c4.66667 0 8.33333 -1.66667 11 -5s4 -7.33333 4 -12v-2l-17 -193h155l17 193c1.33333 12.6667 7.66667 19 19 19h44c10 0 15 -5.66667 15 -17v-2l-17 -193h98c4.66667 0 8.5 -1.83333 11.5 -5.5s4.5 -8.16667 4.5 -13.5zM413 469h-155l-18 -202h155z" />
    <glyph glyph-name="percent" unicode="%" horiz-adv-x="793" 
d="M749 155c0 -54 -11.5 -94.5 -34.5 -121.5s-56.1667 -40.5 -99.5 -40.5c-28 0 -52.1667 5.83333 -72.5 17.5c-20.3333 11.6667 -35.8333 29.6667 -46.5 54c-10.6667 24.3333 -16 54.5 -16 90.5v93c0 36.6667 5.33333 67 16 91s26.1667 41.8333 46.5 53.5
s44.5 17.5 72.5 17.5s52.1667 -5.83333 72.5 -17.5s35.6667 -29.5 46 -53.5s15.5 -54.3333 15.5 -91v-93zM650 737c0 -2 -1.66667 -6.33333 -5 -13l-418 -708c-4.66667 -8 -8.33333 -13.3333 -11 -16s-6.33333 -4 -11 -4h-49c-6.66667 0 -10 2.66667 -10 8
c0 4.66667 1.33333 8.66667 4 12l418 708c6 8.66667 10 14 12 16s5.66667 3 11 3h51c5.33333 0 8 -2 8 -6zM314 496c0 -53.3333 -11.5 -93.6667 -34.5 -121s-56.1667 -41 -99.5 -41c-28 0 -52.1667 6 -72.5 18c-20.3333 12 -35.8333 30.1667 -46.5 54.5
c-10.6667 24.3333 -16 54.1667 -16 89.5v93c0 54.6667 11.8333 95.1667 35.5 121.5c23.6667 26.3333 56.8333 39.5 99.5 39.5s75.6667 -13.3333 99 -40c23.3333 -26.6667 35 -67 35 -121v-93zM687 155v93c0 70 -24 105 -72 105c-48.6667 0 -73 -35 -73 -105v-93
c0 -70 24.3333 -105 73 -105c48 0 72 35 72 105zM252 496v93c0 70 -24 105 -72 105c-48.6667 0 -73 -35 -73 -105v-93c0 -70 24.3333 -105 73 -105c48 0 72 35 72 105z" />
    <glyph glyph-name="ampersand" unicode="&#x26;" horiz-adv-x="636" 
d="M618 356c0 -5.33333 -1.83333 -9.5 -5.5 -12.5s-8.16667 -4.5 -13.5 -4.5h-91v-319c0 -4 -1.33333 -8 -4 -12s-6.33333 -6.33333 -11 -7c-26 -2 -49.1667 -3.5 -69.5 -4.5s-38.6667 -1.83333 -55 -2.5s-39.5 -1 -69.5 -1c-34 0 -66 4.33333 -96 13
c-30 8.66667 -56.6667 22.1667 -80 40.5c-23.3333 18.3333 -41.5 42.3333 -54.5 72c-13 29.6667 -19.5 65.1667 -19.5 106.5c0 28.6667 5.5 56.6667 16.5 84s25.8333 50.6667 44.5 70c-18 22 -32.5 46.8333 -43.5 74.5s-16.5 56.1667 -16.5 85.5
c0 78.6667 21.1667 133.5 63.5 164.5c42.3333 31 104.167 46.5 185.5 46.5c35.3333 0 66.6667 -0.833333 94 -2.5s49.3333 -3.66667 66 -6s29 -4.83333 37 -7.5c5.33333 -1.33333 8.66667 -2.66667 10 -4s2 -4.33333 2 -9v-42c0 -4 -1.33333 -7.33333 -4 -10
s-6.33333 -4 -11 -4h-194c-41.3333 0 -73 -3 -95 -9s-38.1667 -18 -48.5 -36s-15.5 -45 -15.5 -81c0 -22 3.66667 -44 11 -66s17.3333 -41 30 -57h418c5.33333 0 9.83333 -1.66667 13.5 -5s5.5 -7.66667 5.5 -13v-42zM422 77v262h-241
c-14.6667 -17.3333 -25.1667 -35 -31.5 -53s-9.5 -38.3333 -9.5 -61c0 -54.6667 14.3333 -93 43 -115s67.3333 -33 116 -33h123z" />
    <glyph glyph-name="comma" unicode="," horiz-adv-x="213" 
d="M169 118c0 -1.33333 -0.666667 -4 -2 -8l-75 -189c-2.66667 -7.33333 -5.16667 -12.3333 -7.5 -15s-6.16667 -4 -11.5 -4h-41c-8 0 -12 4 -12 12c0 3.33333 0.333333 5.66667 1 7l57 189c4 12.6667 10.6667 19 20 19h58c8.66667 0 13 -3.66667 13 -11z" />
    <glyph glyph-name="semicolon" unicode=";" horiz-adv-x="219" 
d="M153 437c0 -5.33333 -1.83333 -9.83333 -5.5 -13.5s-8.16667 -5.5 -13.5 -5.5h-49c-5.33333 0 -9.83333 1.83333 -13.5 5.5s-5.5 8.16667 -5.5 13.5v93c0 5.33333 1.83333 10 5.5 14s8.16667 6 13.5 6h49c5.33333 0 9.83333 -1.83333 13.5 -5.5s5.5 -8.5 5.5 -14.5v-93z
M157 117c0 -0.666667 -0.666667 -3.33333 -2 -8l-75 -189c-2.66667 -7.33333 -5.33333 -12.5 -8 -15.5s-6.33333 -4.5 -11 -4.5h-40c-8 0 -12 4.33333 -12 13c0 3.33333 0.333333 5.66667 1 7l57 189c4 12.6667 10.6667 19 20 19h57c8.66667 0 13 -3.66667 13 -11z" />
    <glyph glyph-name="question" unicode="?" horiz-adv-x="445" 
d="M386 587c0 -16 -2.33333 -31.6667 -7 -47s-13.5 -32.6667 -26.5 -52s-32.1667 -43.3333 -57.5 -72l-45 -51c-21.3333 -24.6667 -35.5 -43 -42.5 -55s-10.5 -28 -10.5 -48v-49c0 -5.33333 -1.83333 -9.83333 -5.5 -13.5s-8.5 -5.5 -14.5 -5.5h-44
c-5.33333 0 -9.83333 1.83333 -13.5 5.5s-5.5 8.16667 -5.5 13.5v49c0 32 4.5 58.1667 13.5 78.5s26.5 44.5 52.5 72.5l46 51c24.6667 28 41.1667 50.3333 49.5 67s12.5 35.3333 12.5 56v12c0 26 -8.16667 44.5 -24.5 55.5c-16.3333 11 -42.1667 16.5 -77.5 16.5
c-36 0 -81 -3 -135 -9h-3c-10 0 -15 5.66667 -15 17v35c0 6.66667 1 11.8333 3 15.5s6.66667 6.16667 14 7.5c43.3333 8.66667 88.6667 13 136 13c62.6667 0 111.667 -11.6667 147 -35s53 -62 53 -116v-12zM198 19c0 -5.33333 -1.66667 -9.83333 -5 -13.5
c-3.33333 -3.66667 -8 -5.5 -14 -5.5h-48c-4.66667 0 -9.16667 1.83333 -13.5 5.5c-4.33333 3.66667 -6.5 8.16667 -6.5 13.5v93c0 5.33333 2 10 6 14s8.66667 6 14 6h48c5.33333 0 9.83333 -2 13.5 -6s5.5 -8.66667 5.5 -14v-93z" />
    <glyph glyph-name="A" unicode="A" horiz-adv-x="644" 
d="M566 20c0 -5.33333 -1.66667 -10 -5 -14s-7.66667 -6 -13 -6h-55c-5.33333 0 -9.66667 1.83333 -13 5.5c-3.33333 3.66667 -5 8.5 -5 14.5v296h-306v-296c0 -6 -1.66667 -10.8333 -5 -14.5c-3.33333 -3.66667 -7.66667 -5.5 -13 -5.5h-55c-5.33333 0 -9.66667 2 -13 6
s-5 8.66667 -5 14v523c0 50.6667 7.83333 91 23.5 121c15.6667 30 39.1667 51.8333 70.5 65.5s71.6667 20.5 121 20.5h58c48.6667 0 88.8333 -6.83333 120.5 -20.5s55.3333 -35.5 71 -65.5s23.5 -70.3333 23.5 -121v-523zM475 396v147c0 34.6667 -3.83333 61 -11.5 79
s-20.3333 30.5 -38 37.5s-42.5 10.5 -74.5 10.5h-58c-46.6667 0 -79 -8.5 -97 -25.5s-27 -50.8333 -27 -101.5v-147h306z" />
    <glyph glyph-name="B" unicode="B" horiz-adv-x="616" 
d="M566 205c0 -141.333 -97.3333 -212 -292 -212c-70.6667 0 -125 3 -163 9c-12 1.33333 -20.5 4.83333 -25.5 10.5c-5 5.66667 -7.5 14.5 -7.5 26.5v666c0 22.6667 10.6667 35 32 37c44 5.33333 97 8 159 8c58 0 108.5 -5.83333 151.5 -17.5s77.3333 -31.8333 103 -60.5
c25.6667 -28.6667 38.5 -67 38.5 -115v-16c0 -36.6667 -9.5 -68.8333 -28.5 -96.5s-45.1667 -47.8333 -78.5 -60.5c34 -11.3333 61 -31.5 81 -60.5s30 -62.8333 30 -101.5v-17zM471 541v16c0 44.6667 -16.6667 75.1667 -50 91.5s-84 24.5 -152 24.5
c-15.3333 0 -25.5 -0.166667 -30.5 -0.5s-14.6667 -0.666667 -29 -1s-27.5 -0.833333 -39.5 -1.5v-248h154c98 0 147 39.6667 147 119zM475 205v17c0 38 -11.5 68.6667 -34.5 92s-61.8333 35 -116.5 35h-154v-275c10.6667 0 27.6667 -0.666667 51 -2s41 -2 53 -2
c44 0 80.5 3.83333 109.5 11.5s51.5 21.3333 67.5 41c16 19.6667 24 47.1667 24 82.5z" />
    <glyph glyph-name="C" unicode="C" horiz-adv-x="544" 
d="M510 26c0 -11.3333 -6.66667 -18 -20 -20c-45.3333 -8.66667 -100.667 -13 -166 -13c-32.6667 0 -64.6667 5.16667 -96 15.5c-31.3333 10.3333 -59.5 27.1667 -84.5 50.5c-25 23.3333 -45.1667 55.1667 -60.5 95.5c-15.3333 40.3333 -23 89.5 -23 147.5v139
c0 76 12.8333 137.167 38.5 183.5c25.6667 46.3333 58.1667 78.8333 97.5 97.5s82 28 128 28c47.3333 0 103.333 -5.33333 168 -16c10.6667 -1.33333 16 -5.66667 16 -13v-51c0 -7.33333 -4 -11 -12 -11h-3c-72 6 -128 9 -168 9c-54 0 -96.5 -17.8333 -127.5 -53.5
s-46.5 -93.5 -46.5 -173.5v-139c0 -79.3333 15.6667 -137 47 -173s73.6667 -54 127 -54c46 0 101 2.66667 165 8h4c10.6667 0 16 -5.33333 16 -16v-41z" />
    <glyph glyph-name="D" unicode="D" horiz-adv-x="641" 
d="M584 304c0 -104.667 -26.6667 -182.667 -80 -234c-53.3333 -51.3333 -127.667 -77 -223 -77c-25.3333 0 -51.5 0.666667 -78.5 2c-27 1.33333 -47.5 2.5 -61.5 3.5s-28 2.5 -42 4.5s-21 10.3333 -21 25v687c0 14 7 22.3333 21 25c14 2 28 3.66667 42 5s34.5 2.5 61.5 3.5
s53.1667 1.5 78.5 1.5c63.3333 0 117.5 -11 162.5 -33s79.6667 -56.5 104 -103.5s36.5 -105.167 36.5 -174.5v-135zM493 304v135c0 57.3333 -9 103.333 -27 138s-42.6667 59.1667 -74 73.5s-68.3333 21.5 -111 21.5c-40.6667 0 -77.6667 -1 -111 -3v-596
c21.3333 -1.33333 58.3333 -2 111 -2c66.6667 0 118.667 17.6667 156 53c37.3333 35.3333 56 95.3333 56 180z" />
    <glyph glyph-name="E" unicode="E" horiz-adv-x="550" 
d="M496 12c0 -8.66667 -3.33333 -13.3333 -10 -14c-31.3333 -3.33333 -96.3333 -5 -195 -5c-71.3333 0 -124.667 14.6667 -160 44c-35.3333 29.3333 -53 76.6667 -53 142v385c0 65.3333 17.6667 112.667 53 142c35.3333 29.3333 88.6667 44 160 44
c28.6667 0 52.3333 -0.166667 71 -0.5s41.3333 -1 68 -2s45.3333 -2.16667 56 -3.5c3.33333 0 5.83333 -1.5 7.5 -4.5s2.5 -6.16667 2.5 -9.5v-50c0 -8 -3.66667 -12 -11 -12h-193c-35.3333 0 -61.6667 -3.33333 -79 -10s-29 -17.3333 -35 -32s-9 -35.3333 -9 -62v-139h307
c5.33333 0 10 -2 14 -6s6 -8.66667 6 -14v-38c0 -5.33333 -2.16667 -10 -6.5 -14s-8.83333 -6 -13.5 -6h-307v-168c0 -27.3333 3 -48.1667 9 -62.5c6 -14.3333 17.6667 -24.8333 35 -31.5s43.6667 -10 79 -10h193c7.33333 0 11 -4 11 -12v-51z" />
    <glyph glyph-name="F" unicode="F" horiz-adv-x="550" 
d="M496 367c0 -5.33333 -2.16667 -10 -6.5 -14s-8.83333 -6 -13.5 -6h-307v-327c0 -6 -2 -10.8333 -6 -14.5c-4 -3.66667 -8.66667 -5.5 -14 -5.5h-51c-5.33333 0 -10 2 -14 6s-6 8.66667 -6 14v544c0 65.3333 17.6667 112.667 53 142c35.3333 29.3333 88.6667 44 160 44
c28.6667 0 52.3333 -0.166667 71 -0.5s41.3333 -1 68 -2s45.3333 -2.16667 56 -3.5c3.33333 0 5.83333 -1.5 7.5 -4.5s2.5 -6.16667 2.5 -9.5v-50c0 -8 -3.66667 -12 -11 -12h-193c-35.3333 0 -61.6667 -3.33333 -79 -10s-29 -17.3333 -35 -32s-9 -35.3333 -9 -62v-139h307
c5.33333 0 10 -2 14 -6s6 -8.66667 6 -14v-38z" />
    <glyph glyph-name="G" unicode="G" horiz-adv-x="611" 
d="M534 30c0 -5.33333 -1.83333 -10.1667 -5.5 -14.5s-7.83333 -6.83333 -12.5 -7.5c-26 -4 -55.8333 -7.5 -89.5 -10.5s-70.1667 -4.5 -109.5 -4.5c-44 0 -85.8333 10.5 -125.5 31.5s-71.8333 54.8333 -96.5 101.5c-24.6667 46.6667 -37 106 -37 178v134
c0 58 7.66667 107.5 23 148.5s35.8333 73.3333 61.5 97c25.6667 23.6667 54.1667 40.6667 85.5 51c31.3333 10.3333 64 15.5 98 15.5c70 0 133.333 -4.66667 190 -14c11.3333 -1.33333 17 -6.33333 17 -15v-50c0 -6.66667 -4.33333 -10 -13 -10h-4
c-55.3333 4.66667 -118.667 7 -190 7c-34 0 -64.1667 -7 -90.5 -21c-26.3333 -14 -47.3333 -38.1667 -63 -72.5s-23.5 -79.8333 -23.5 -136.5v-134c0 -52.6667 7.33333 -96.1667 22 -130.5s34.6667 -59.5 60 -75.5c25.3333 -16 54 -24 86 -24c36 0 78 2 126 6v286
c0 5.33333 1.83333 10 5.5 14s7.83333 6 12.5 6h54c4.66667 0 9 -2 13 -6s6 -8.66667 6 -14v-336z" />
    <glyph glyph-name="H" unicode="H" horiz-adv-x="680" 
d="M602 20c0 -5.33333 -2.16667 -10 -6.5 -14s-8.83333 -6 -13.5 -6h-51c-5.33333 0 -10 2 -14 6s-6 8.66667 -6 14v332h-342v-332c0 -6 -2 -10.8333 -6 -14.5c-4 -3.66667 -8.66667 -5.5 -14 -5.5h-51c-5.33333 0 -10 2 -14 6s-6 8.66667 -6 14v703
c0 4.66667 2 9.16667 6 13.5s8.66667 6.5 14 6.5h51c5.33333 0 10 -2 14 -6s6 -8.66667 6 -14v-290h342v290c0 4.66667 2 9.16667 6 13.5s8.66667 6.5 14 6.5h51c4.66667 0 9.16667 -2.16667 13.5 -6.5s6.5 -8.83333 6.5 -13.5v-703z" />
    <glyph glyph-name="I" unicode="I" horiz-adv-x="267" 
d="M179 20c0 -5.33333 -1.66667 -10 -5 -14s-7.66667 -6 -13 -6h-55c-4.66667 0 -8.83333 1.83333 -12.5 5.5c-3.66667 3.66667 -5.5 8.5 -5.5 14.5v704c0 4.66667 1.83333 9 5.5 13s7.83333 6 12.5 6h55c4.66667 0 8.83333 -1.83333 12.5 -5.5s5.5 -8.16667 5.5 -13.5v-704
z" />
    <glyph glyph-name="J" unicode="J" horiz-adv-x="262" 
d="M174 111c0 -45.3333 -2.16667 -80.3333 -6.5 -105s-14.8333 -51.3333 -31.5 -80l-53 -96c-5.33333 -9.33333 -10 -15.8333 -14 -19.5s-9.33333 -5.5 -16 -5.5h-56c-8 0 -12 3.33333 -12 10c0 5.33333 1.66667 11 5 17l61 116c15.3333 29.3333 24.5 52.6667 27.5 70
c3 17.3333 4.5 48.3333 4.5 93v613c0 4.66667 1.66667 9 5 13s7.33333 6 12 6h57c4.66667 0 8.66667 -1.83333 12 -5.5s5 -8.16667 5 -13.5v-613z" />
    <glyph glyph-name="K" unicode="K" horiz-adv-x="606" 
d="M563 8c0 -5.33333 -3 -8 -9 -8h-80c-9.33333 0 -16.6667 3.33333 -22 10l-283 346v-336c0 -6 -1.66667 -10.8333 -5 -14.5c-3.33333 -3.66667 -7.66667 -5.5 -13 -5.5h-55c-5.33333 0 -9.66667 1.83333 -13 5.5c-3.33333 3.66667 -5 8.5 -5 14.5v704
c0 5.33333 1.83333 9.83333 5.5 13.5s8.16667 5.5 13.5 5.5h53c5.33333 0 9.83333 -1.66667 13.5 -5s5.5 -8 5.5 -14v-322l288 332c6 6 12.6667 9 20 9h70c5.33333 0 9.33333 -1.16667 12 -3.5s4 -5.16667 4 -8.5c0 -2 -1.33333 -5 -4 -9l-302 -340l303 -366
c2 -2.66667 3 -5.33333 3 -8z" />
    <glyph glyph-name="L" unicode="L" horiz-adv-x="514" 
d="M496 16c0 -8.66667 -3.33333 -13.3333 -10 -14c-12 -2 -38.1667 -4 -78.5 -6s-79.1667 -3 -116.5 -3c-41.3333 0 -77.5 4.5 -108.5 13.5s-56.1667 27.1667 -75.5 54.5c-19.3333 27.3333 -29 66.6667 -29 118v544c0 4.66667 2 9.16667 6 13.5s8.66667 6.5 14 6.5h51
c5.33333 0 10 -2 14 -6s6 -8.66667 6 -14v-544c0 -27.3333 3 -48.1667 9 -62.5c6 -14.3333 17.6667 -24.8333 35 -31.5s43.6667 -10 79 -10h193c7.33333 0 11 -4 11 -12v-47z" />
    <glyph glyph-name="M" unicode="M" horiz-adv-x="873" 
d="M798 20c0 -6 -1.66667 -10.8333 -5 -14.5c-3.33333 -3.66667 -7.66667 -5.5 -13 -5.5h-56c-5.33333 0 -9.66667 1.83333 -13 5.5c-3.33333 3.66667 -5 8.5 -5 14.5v437c0 48 -3.33333 85.6667 -10 113s-18.3333 48.1667 -35 62.5s-38.6667 24 -66 29s-65 7.5 -113 7.5
v-649c0 -6 -1.66667 -10.8333 -5 -14.5c-3.33333 -3.66667 -7.66667 -5.5 -13 -5.5h-55c-5.33333 0 -9.66667 2 -13 6s-5 8.66667 -5 14v649c-48 0 -85.6667 -2.5 -113 -7.5c-27.3333 -5 -49.1667 -14.6667 -65.5 -29s-28 -35.1667 -35 -62.5s-10.5 -65 -10.5 -113v-437
c0 -6 -1.66667 -10.8333 -5 -14.5c-3.33333 -3.66667 -7.66667 -5.5 -13 -5.5h-56c-4.66667 0 -8.83333 1.83333 -12.5 5.5c-3.66667 3.66667 -5.5 8.5 -5.5 14.5v437c0 63.3333 6.83333 114.333 20.5 153c13.6667 38.6667 34.8333 68.1667 63.5 88.5s65 34 109 41
s100.333 10.5 169 10.5c93.3333 0 164.833 -7 214.5 -21s86.5 -41.8333 110.5 -83.5s36 -104.5 36 -188.5v-437z" />
    <glyph glyph-name="N" unicode="N" horiz-adv-x="680" 
d="M602 78c0 -33.3333 -6.66667 -55.3333 -20 -66c-13.3333 -10.6667 -32.3333 -16 -57 -16h-22c-17.3333 0 -31.3333 3.66667 -42 11c-10.6667 7.33333 -21 22 -31 44l-254 591c-3.33333 7.33333 -5.66667 11 -7 11c-2.66667 0 -4 -3.66667 -4 -11v-625
c0 -5.33333 -1.66667 -9.5 -5 -12.5s-7.33333 -4.5 -12 -4.5h-53c-11.3333 0 -17 6.66667 -17 20v643c0 33.3333 6.83333 55.3333 20.5 66c13.6667 10.6667 32.5 16 56.5 16h22c16 0 30 -4 42 -12s22.6667 -23 32 -45l251 -590c1.33333 -2.66667 2.66667 -5.16667 4 -7.5
s3 -3.5 5 -3.5c2.66667 0 4 5 4 15v624c0 4.66667 1.83333 8.66667 5.5 12s7.5 5 11.5 5h53c11.3333 0 17 -6.66667 17 -20v-645z" />
    <glyph glyph-name="O" unicode="O" horiz-adv-x="661" 
d="M601 307c0 -54.6667 -6.5 -101.833 -19.5 -141.5c-13 -39.6667 -31.5 -72.3333 -55.5 -98c-24 -25.6667 -52.5 -44.5 -85.5 -56.5s-69.5 -18 -109.5 -18c-39.3333 0 -75.6667 6 -109 18s-62.1667 31 -86.5 57c-24.3333 26 -43 59.1667 -56 99.5
c-13 40.3333 -19.5 86.8333 -19.5 139.5v129c0 53.3333 6.5 100 19.5 140s31.6667 73 56 99c24.3333 26 53 45 86 57s69.5 18 109.5 18s76.3333 -6 109 -18s61.1667 -30.8333 85.5 -56.5c24.3333 -25.6667 43 -58.3333 56 -98s19.5 -86.8333 19.5 -141.5v-129zM509 307v129
c0 40.6667 -4.16667 76.1667 -12.5 106.5s-20 54.5 -35 72.5s-33.3333 31.3333 -55 40s-46.8333 13 -75.5 13c-119.333 0 -179 -77.3333 -179 -232v-129c0 -54 7.16667 -98.3333 21.5 -133s34.6667 -59.8333 61 -75.5c26.3333 -15.6667 58.5 -23.5 96.5 -23.5
c118.667 0 178 77.3333 178 232z" />
    <glyph glyph-name="P" unicode="P" horiz-adv-x="592" 
d="M548 520c0 -149.333 -93.3333 -224 -280 -224c-23.3333 0 -56.6667 1.66667 -100 5v-281c0 -6 -1.66667 -10.8333 -5 -14.5c-3.33333 -3.66667 -7.66667 -5.5 -13 -5.5h-54c-5.33333 0 -9.66667 1.83333 -13 5.5c-3.33333 3.66667 -5 8.5 -5 14.5v697
c0 14.6667 8 23 24 25c46 5.33333 101.333 8 166 8c186.667 0 280 -72.3333 280 -217v-13zM457 520v13c0 50 -15 85.8333 -45 107.5s-78 32.5 -144 32.5c-34.6667 0 -68 -1.33333 -100 -4v-293c3.33333 0 9.16667 -0.166667 17.5 -0.5s17.3333 -0.666667 27 -1
s19.8333 -0.833333 30.5 -1.5s19 -1 25 -1c68 0 116.5 11.5 145.5 34.5s43.5 60.8333 43.5 113.5z" />
    <glyph glyph-name="Q" unicode="Q" horiz-adv-x="661" 
d="M601 307c0 -64.6667 -9.33333 -119.333 -28 -164c-18.6667 -44.6667 -45 -79 -79 -103s-73.6667 -38.6667 -119 -44v-161c0 -5.33333 -1.5 -10 -4.5 -14s-7.16667 -6 -12.5 -6h-54c-5.33333 0 -9.5 2 -12.5 6s-4.5 8.66667 -4.5 14v161c-46 6 -86 21 -120 45
s-60.3333 58.1667 -79 102.5c-18.6667 44.3333 -28 98.8333 -28 163.5v129c0 53.3333 6.5 100 19.5 140s31.6667 73 56 99c24.3333 26 53 45 86 57s69.5 18 109.5 18s76.3333 -6 109 -18s61.1667 -30.8333 85.5 -56.5c24.3333 -25.6667 43 -58.3333 56 -98
s19.5 -86.8333 19.5 -141.5v-129zM509 307v129c0 40.6667 -4.16667 76.1667 -12.5 106.5s-20 54.5 -35 72.5s-33.3333 31.3333 -55 40s-46.8333 13 -75.5 13c-119.333 0 -179 -77.3333 -179 -232v-129c0 -54 7.16667 -98.3333 21.5 -133s34.6667 -59.8333 61 -75.5
c26.3333 -15.6667 58.5 -23.5 96.5 -23.5c118.667 0 178 77.3333 178 232z" />
    <glyph glyph-name="R" unicode="R" horiz-adv-x="625" 
d="M588 10c0 -6.66667 -4.33333 -10 -13 -10h-70c-6 0 -10 0.5 -12 1.5s-5.33333 4.83333 -10 11.5l-179 298h-9h-17c-23.3333 0 -60 1 -110 3v-294c0 -6 -1.66667 -10.8333 -5 -14.5c-3.33333 -3.66667 -7.66667 -5.5 -13 -5.5h-54c-5.33333 0 -9.66667 1.83333 -13 5.5
c-3.33333 3.66667 -5 8.5 -5 14.5v700c0 13.3333 8 20.6667 24 22c20 2 45.6667 3.83333 77 5.5s64.3333 2.5 99 2.5c55.3333 0 103.833 -7 145.5 -21s74.5 -37 98.5 -69s36 -73.6667 36 -125v-7c0 -53.3333 -14.1667 -97.1667 -42.5 -131.5
c-28.3333 -34.3333 -66.5 -57.8333 -114.5 -70.5l184 -307c2 -2.66667 3 -5.66667 3 -9zM468 528v7c0 32 -7 58 -21 78s-34.8333 34.1667 -62.5 42.5s-63.1667 12.5 -106.5 12.5c-57.3333 0 -94 -1 -110 -3v-274c6.66667 0 24.6667 -0.333333 54 -1s48 -1 56 -1
c42.6667 0 77.8333 4.16667 105.5 12.5s48.6667 22.6667 63 43s21.5 48.1667 21.5 83.5z" />
    <glyph glyph-name="S" unicode="S" horiz-adv-x="549" 
d="M500 193c0 -56.6667 -18.6667 -104.167 -56 -142.5c-37.3333 -38.3333 -101 -57.5 -191 -57.5c-52 0 -107.333 4.66667 -166 14c-8 1.33333 -13.1667 3.16667 -15.5 5.5s-3.5 6.5 -3.5 12.5v40c0 10.6667 5.66667 16 17 16h3c46 -4 101 -6 165 -6c56 0 95.3333 10 118 30
s34 49.3333 34 88c0 24.6667 -8.33333 46.1667 -25 64.5c-16.6667 18.3333 -48.3333 41.5 -95 69.5l-97 59c-48 29.3333 -83 58.3333 -105 87s-33 62 -33 100c0 58.6667 20.5 102.833 61.5 132.5s100.167 44.5 177.5 44.5c22.6667 0 44.6667 -0.5 66 -1.5
s40.1667 -2.33333 56.5 -4s33.5 -3.83333 51.5 -6.5c11.3333 -2 17 -7.66667 17 -17v-43c0 -10.6667 -5.66667 -16 -17 -16h-2c-58.6667 4 -116 6 -172 6c-53.3333 0 -91.1667 -7 -113.5 -21s-33.5 -38.6667 -33.5 -74c0 -22.6667 8 -42.3333 24 -59
c16 -16.6667 44.3333 -37.3333 85 -62l92 -55c38 -22.6667 68.5 -44.5 91.5 -65.5s39.6667 -42.5 50 -64.5s15.5 -46.6667 15.5 -74z" />
    <glyph glyph-name="T" unicode="T" horiz-adv-x="589" 
d="M555 681c0 -10.6667 -6.33333 -16 -19 -16h-195v-645c0 -6 -1.66667 -10.8333 -5 -14.5c-3.33333 -3.66667 -7.66667 -5.5 -13 -5.5h-55c-5.33333 0 -9.66667 1.83333 -13 5.5c-3.33333 3.66667 -5 8.5 -5 14.5v645h-195c-13.3333 0 -20 5.33333 -20 16v44
c0 4.66667 1.83333 8.83333 5.5 12.5s8.5 5.5 14.5 5.5h481c5.33333 0 9.83333 -1.66667 13.5 -5s5.5 -7.66667 5.5 -13v-44z" />
    <glyph glyph-name="U" unicode="U" horiz-adv-x="662" 
d="M584 36c0 -12 -2 -20 -6 -24s-11.3333 -6.66667 -22 -8c-24 -3.33333 -57.8333 -6.16667 -101.5 -8.5c-43.6667 -2.33333 -80.8333 -3.5 -111.5 -3.5c-46 0 -86 4.83333 -120 14.5c-34 9.66667 -62.3333 25.8333 -85 48.5c-22.6667 22.6667 -39.6667 52.3333 -51 89
c-11.3333 36.6667 -17 82.3333 -17 137v442c0 4.66667 1.66667 9.16667 5 13.5s7.66667 6.5 13 6.5h56c4.66667 0 8.66667 -2 12 -6s5 -8.66667 5 -14v-442c0 -56 6.5 -99.3333 19.5 -130c13 -30.6667 32.6667 -51.5 59 -62.5c26.3333 -11 61.5 -16.5 105.5 -16.5
c43.3333 0 92.6667 2 148 6v645c0 4.66667 1.66667 9.16667 5 13.5s7.66667 6.5 13 6.5h55c5.33333 0 9.66667 -1.83333 13 -5.5s5 -8.5 5 -14.5v-687z" />
    <glyph glyph-name="V" unicode="V" horiz-adv-x="643" 
d="M609 726c0 -2.66667 -0.333333 -4.66667 -1 -6l-184 -651c-8 -28 -21.3333 -47.6667 -40 -59c-18.6667 -11.3333 -39.3333 -17 -62 -17c-54 0 -88 25.3333 -102 76l-185 651c-0.666667 1.33333 -1 3.33333 -1 6c0 5.33333 1.66667 9.5 5 12.5s7.66667 4.5 13 4.5h58
c4 0 7.66667 -1.5 11 -4.5s5.66667 -6.5 7 -10.5l174 -637c4.66667 -14 11.3333 -21 20 -21s15 7 19 21l175 637c2.66667 10 8.33333 15 17 15h59c11.3333 0 17 -5.66667 17 -17z" />
    <glyph glyph-name="W" unicode="W" horiz-adv-x="893" 
d="M815 266c0 -89.3333 -17 -157.167 -51 -203.5c-34 -46.3333 -87.6667 -69.5 -161 -69.5c-27.3333 0 -53.3333 1.83333 -78 5.5c-24.6667 3.66667 -51 10.1667 -79 19.5c-27.3333 -9.33333 -53.5 -15.8333 -78.5 -19.5c-25 -3.66667 -50.8333 -5.5 -77.5 -5.5
c-73.3333 0 -127 23.1667 -161 69.5c-34 46.3333 -51 114.167 -51 203.5v458c0 5.33333 1.83333 9.83333 5.5 13.5s8.16667 5.5 13.5 5.5h53c4.66667 0 9 -1.83333 13 -5.5s6 -8.16667 6 -13.5v-458c0 -33.3333 2.16667 -62.6667 6.5 -88s11.5 -45.8333 21.5 -61.5
c10 -15.6667 24.1667 -27.3333 42.5 -35c18.3333 -7.66667 41.5 -11.5 69.5 -11.5c38 0 68.6667 3 92 9v645c0 5.33333 1.83333 9.83333 5.5 13.5s8.16667 5.5 13.5 5.5h54c4.66667 0 8.83333 -1.83333 12.5 -5.5s5.5 -7.83333 5.5 -12.5v-646
c11.3333 -2.66667 27.1667 -4.83333 47.5 -6.5s35.1667 -2.5 44.5 -2.5c36.6667 0 65.3333 6.83333 86 20.5c20.6667 13.6667 34.8333 34.5 42.5 62.5s11.5 65.6667 11.5 113v458c0 5.33333 1.83333 9.83333 5.5 13.5s8.16667 5.5 13.5 5.5h53c4.66667 0 9 -1.83333 13 -5.5
s6 -8.16667 6 -13.5v-458z" />
    <glyph glyph-name="X" unicode="X" horiz-adv-x="645" 
d="M604 14c0 -9.33333 -5.33333 -14 -16 -14h-63c-4.66667 0 -8.16667 0.833333 -10.5 2.5c-2.33333 1.66667 -5.83333 5.83333 -10.5 12.5l-183 291l-179 -291c-6.66667 -10 -13.6667 -15 -21 -15h-59c-10.6667 0 -16 5 -16 15c0 3.33333 1 6.66667 3 10l222 353l-220 341
c-2 2.66667 -3 6 -3 10c0 9.33333 5 14 15 14h65c8.66667 0 14.6667 -3.33333 18 -10l180 -285l174 285c4 6.66667 10.3333 10 19 10h59c4.66667 0 8.5 -1.33333 11.5 -4s4.5 -6.33333 4.5 -11c0 -2 -1 -5 -3 -9l-215 -343l225 -351c2 -3.33333 3 -7 3 -11z" />
    <glyph glyph-name="Y" unicode="Y" horiz-adv-x="596" 
d="M556 729c0 -2.66667 -1 -6.33333 -3 -11l-209 -416v-282c0 -5.33333 -1.66667 -10 -5 -14s-7.66667 -6 -13 -6h-57c-4.66667 0 -8.66667 2 -12 6c-3.33333 4 -5 8.66667 -5 14v282l-209 416c-2 5.33333 -3 9.33333 -3 12c0 8.66667 5.33333 13 16 13h63
c6.66667 0 12.3333 -4.66667 17 -14l162 -339l162 339c4 9.33333 9.66667 14 17 14h62c11.3333 0 17 -4.66667 17 -14z" />
    <glyph glyph-name="Z" unicode="Z" horiz-adv-x="592" 
d="M543 18c0 -5.33333 -1.83333 -9.66667 -5.5 -13c-3.66667 -3.33333 -8.5 -5 -14.5 -5h-385c-27.3333 0 -48 7 -62 21s-21 31.6667 -21 53c0 19.3333 5 36.6667 15 52l358 521c2 2.66667 3 5.33333 3 8c0 4.66667 -3.33333 7 -10 7h-332c-5.33333 0 -10 1.5 -14 4.5
s-6 7.16667 -6 12.5v47c0 4.66667 2 8.66667 6 12s8.66667 5 14 5h356c18.6667 0 34.3333 -3.16667 47 -9.5s22.1667 -15.1667 28.5 -26.5s9.5 -23.3333 9.5 -36c0 -19.3333 -5.33333 -37 -16 -53l-357 -521c-2 -2.66667 -3 -5.66667 -3 -9c0 -4 3.33333 -6 10 -6h359
c13.3333 0 20 -5.66667 20 -17v-47z" />
    <glyph glyph-name="asciicircum" unicode="^" horiz-adv-x="604" 
d="M505 572c0 -6 -3.66667 -9 -11 -9h-60c-6.66667 0 -11 0.833333 -13 2.5s-7 6.83333 -15 15.5l-103 120l-103 -120c-6 -7.33333 -10.5 -12.1667 -13.5 -14.5s-7.83333 -3.5 -14.5 -3.5h-60c-7.33333 0 -11 3 -11 9c0 4 1.33333 7.66667 4 11l115 149
c5.33333 7.33333 10 12.1667 14 14.5s9.33333 3.5 16 3.5h106c6.66667 0 12 -1.16667 16 -3.5s8.66667 -7.16667 14 -14.5l115 -149c2.66667 -3.33333 4 -7 4 -11z" />
    <glyph glyph-name="grave" unicode="`" horiz-adv-x="372" 
d="M243 630c0 -4.66667 -3 -7 -9 -7h-54c-4.66667 0 -8.16667 0.833333 -10.5 2.5s-6.5 5.83333 -12.5 12.5l-113 126c-2.66667 2.66667 -4 5.33333 -4 8c0 4.66667 3.66667 7 11 7h66c5.33333 0 9.66667 -1 13 -3c3.33333 -2 7.33333 -6 12 -12l97 -124
c2.66667 -2.66667 4 -6 4 -10z" />
    <glyph glyph-name="a" unicode="a" horiz-adv-x="519" 
d="M451 38c0 -12.6667 -5 -20 -15 -22c-52 -15.3333 -108.333 -23 -169 -23c-52.6667 0 -95 5.83333 -127 17.5c-32 11.6667 -55.3333 29.6667 -70 54c-14.6667 24.3333 -22 55.5 -22 93.5v9c0 37.3333 7.83333 67.8333 23.5 91.5c15.6667 23.6667 41.3333 41.3333 77 53
c35.6667 11.6667 82.5 17.5 140.5 17.5h74v40c0 41.3333 -8 70.1667 -24 86.5s-43.6667 24.5 -83 24.5c-62 0 -113 -2 -153 -6c-15.3333 -1.33333 -23 4 -23 16v35c0 10.6667 7 17 21 19c52.6667 8.66667 104.333 13 155 13c130 0 195 -62.6667 195 -188v-331zM363 75v190
h-74c-40 0 -71 -3.16667 -93 -9.5c-22 -6.33333 -37.3333 -16.5 -46 -30.5s-13 -33 -13 -57v-9c0 -23.3333 3.66667 -41.6667 11 -55c7.33333 -13.3333 20.5 -23 39.5 -29s45.5 -9 79.5 -9c14.6667 0 32 1 52 3s34.6667 4 44 6z" />
    <glyph glyph-name="b" unicode="b" horiz-adv-x="541" 
d="M491 240c0 -51.3333 -7.83333 -95.3333 -23.5 -132c-15.6667 -36.6667 -40 -65 -73 -85s-73.5 -30 -121.5 -30c-64 0 -125.333 5.66667 -184 17c-9.33333 2 -15.1667 4.5 -17.5 7.5s-3.5 8.16667 -3.5 15.5v700c0 4.66667 1.66667 9 5 13s7.66667 6 13 6h51
c5.33333 0 9.83333 -1.83333 13.5 -5.5s5.5 -8.16667 5.5 -13.5v-186c35.3333 6.66667 74.3333 10 117 10c36.6667 0 68.6667 -5.5 96 -16.5s50 -26.6667 68 -47c18 -20.3333 31.5 -45.6667 40.5 -76s13.5 -65.5 13.5 -105.5v-72zM403 240v72
c0 56.6667 -9.83333 98.8333 -29.5 126.5s-53.1667 41.5 -100.5 41.5c-24 0 -45.5 -0.333333 -64.5 -1s-36.5 -2.66667 -52.5 -6v-397c49.3333 -4 88.3333 -6 117 -6c31.3333 0 56.6667 6.33333 76 19c19.3333 12.6667 33.1667 31.5 41.5 56.5s12.5 56.5 12.5 94.5z" />
    <glyph glyph-name="c" unicode="c" horiz-adv-x="452" 
d="M408 26c0 -12 -6.66667 -19.3333 -20 -22c-40.6667 -7.33333 -82.3333 -11 -125 -11c-44 0 -82.1667 10 -114.5 30c-32.3333 20 -56.8333 48.1667 -73.5 84.5c-16.6667 36.3333 -25 79.1667 -25 128.5v78c0 48.6667 8.16667 91.3333 24.5 128
c16.3333 36.6667 40.6667 65 73 85c32.3333 20 70.8333 30 115.5 30c41.3333 0 83 -3.66667 125 -11c8 -1.33333 13.3333 -3.5 16 -6.5s4 -8.16667 4 -15.5v-36c0 -10 -5.66667 -15 -17 -15h-4c-41.3333 4.66667 -82.6667 7 -124 7c-83.3333 0 -125 -55.3333 -125 -166v-78
c0 -55.3333 10.6667 -96.8333 32 -124.5c21.3333 -27.6667 52.3333 -41.5 93 -41.5c42 0 83.3333 2.33333 124 7h4c11.3333 0 17 -5 17 -15v-36z" />
    <glyph glyph-name="d" unicode="d" horiz-adv-x="541" 
d="M473 33c0 -7.33333 -1.33333 -12.6667 -4 -16s-8.33333 -5.66667 -17 -7c-58.6667 -11.3333 -120 -17 -184 -17c-48.6667 0 -89.3333 10 -122 30c-32.6667 20 -56.8333 48.6667 -72.5 86c-15.6667 37.3333 -23.5 81 -23.5 131v72c0 40 4.5 75 13.5 105
s22.6667 55.5 41 76.5c18.3333 21 41 36.8333 68 47.5s58.8333 16 95.5 16c20 0 40.1667 -0.833333 60.5 -2.5s39.1667 -4.16667 56.5 -7.5v186c0 5.33333 1.83333 9.83333 5.5 13.5s8.16667 5.5 13.5 5.5h51c4.66667 0 8.83333 -1.83333 12.5 -5.5s5.5 -8.16667 5.5 -13.5
v-700zM385 76v397c-15.3333 2.66667 -32.5 4.5 -51.5 5.5s-40.8333 1.5 -65.5 1.5c-31.3333 0 -56.6667 -6.5 -76 -19.5s-33.1667 -31.6667 -41.5 -56s-12.5 -55.1667 -12.5 -92.5v-72c0 -57.3333 9.83333 -100 29.5 -128s53.1667 -42 100.5 -42c29.3333 0 68.3333 2 117 6z
" />
    <glyph glyph-name="e" unicode="e" horiz-adv-x="543" 
d="M494 269c0 -14.6667 -6.33333 -22 -19 -22h-335v-12c0 -37.3333 5.66667 -68.6667 17 -94c11.3333 -25.3333 27.8333 -44 49.5 -56s48.1667 -18 79.5 -18c24.6667 0 53.3333 1.5 86 4.5s61 6.16667 85 9.5h5c10.6667 0 16 -4.66667 16 -14v-34
c0 -6.66667 -1.33333 -11.6667 -4 -15s-8 -6 -16 -8c-28 -5.33333 -55.6667 -9.5 -83 -12.5s-57 -4.5 -89 -4.5c-42.6667 0 -81.3333 7.66667 -116 23c-34.6667 15.3333 -63 41.3333 -85 78c-22 36.6667 -33 85.3333 -33 146v70c0 47.3333 8.66667 89.8333 26 127.5
c17.3333 37.6667 42.8333 67 76.5 88c33.6667 21 73.5 31.5 119.5 31.5c47.3333 0 87.5 -10.5 120.5 -31.5s57.8333 -50 74.5 -87s25 -79.5 25 -127.5v-42zM405 314v5c0 54 -11 94.3333 -33 121s-54.6667 40 -98 40c-28 0 -52.1667 -6.16667 -72.5 -18.5
s-35.6667 -30.6667 -46 -55s-15.5 -53.5 -15.5 -87.5v-5h265z" />
    <glyph glyph-name="f" unicode="f" horiz-adv-x="356" 
d="M332 702c0 -9.33333 -7 -14 -21 -14h-89c-19.3333 0 -33.5 -1.5 -42.5 -4.5s-15.1667 -9.5 -18.5 -19.5s-5 -24.6667 -5 -44v-70h156c12.6667 0 19 -6 19 -18v-34c0 -5.33333 -1.83333 -9.66667 -5.5 -13s-8.16667 -5 -13.5 -5h-156v-460c0 -6 -2 -10.8333 -6 -14.5
c-4 -3.66667 -8.66667 -5.5 -14 -5.5h-48c-4.66667 0 -9.16667 2 -13.5 6s-6.5 8.66667 -6.5 14v600c0 51.3333 13 87.3333 39 108s64.3333 31 115 31c34.6667 0 64.6667 -2 90 -6c13.3333 -1.33333 20 -7 20 -17v-34z" />
    <glyph glyph-name="g" unicode="g" horiz-adv-x="541" 
d="M473 1c0 -50 -7.33333 -89.3333 -22 -118c-14.6667 -28.6667 -37 -49.1667 -67 -61.5s-68 -18.5 -114 -18.5c-34.6667 0 -67.3333 1.83333 -98 5.5s-54.6667 7.83333 -72 12.5c-8 2.66667 -13.3333 5.33333 -16 8s-4 7 -4 13v29c0 4.66667 1.66667 8.5 5 11.5
s7.66667 4.5 13 4.5h3c35.3333 -4 66.5 -7 93.5 -9s52.1667 -3 75.5 -3c32 0 56 3.33333 72 10s27.1667 18.5 33.5 35.5s9.5 42.5 9.5 76.5v10c-13.3333 -3.33333 -31.5 -6.5 -54.5 -9.5s-42.1667 -4.5 -57.5 -4.5c-148.667 0 -223 82 -223 246v73
c0 82.6667 18.3333 144.167 55 184.5c36.6667 40.3333 92.6667 60.5 168 60.5c52 0 111.667 -7.66667 179 -23c8.66667 -1.33333 14.3333 -3.66667 17 -7s4 -8.66667 4 -16v-510zM385 78v394c-39.3333 7.33333 -76.6667 11 -112 11c-25.3333 0 -46.3333 -3.16667 -63 -9.5
s-30.3333 -16.1667 -41 -29.5s-18.5 -31 -23.5 -53s-7.5 -48.3333 -7.5 -79v-73c0 -42 5 -75.6667 15 -101c10 -25.3333 25 -43.5 45 -54.5s45 -16.5 75 -16.5c16 0 35 1 57 3s40.3333 4.66667 55 8z" />
    <glyph glyph-name="h" unicode="h" horiz-adv-x="557" 
d="M489 20c0 -6 -2 -10.8333 -6 -14.5c-4 -3.66667 -8.66667 -5.5 -14 -5.5h-48c-4.66667 0 -9.16667 2 -13.5 6s-6.5 8.66667 -6.5 14v336c0 84 -43.3333 126 -130 126c-42.6667 0 -81 -5 -115 -15v-447c0 -6 -2 -10.8333 -6 -14.5c-4 -3.66667 -8.66667 -5.5 -14 -5.5h-48
c-4.66667 0 -9.16667 2 -13.5 6s-6.5 8.66667 -6.5 14v713c0 4.66667 1.66667 9 5 13s7.66667 6 13 6h51c5.33333 0 9.83333 -1.83333 13.5 -5.5s5.5 -8.16667 5.5 -13.5v-190c41.3333 9.33333 79.6667 14 115 14c37.3333 0 69.6667 -4.66667 97 -14s50 -23 68 -41
s31.3333 -39.3333 40 -64s13 -52 13 -82v-336z" />
    <glyph glyph-name="i" unicode="i" horiz-adv-x="247" 
d="M169 658c0 -6 -2 -10.8333 -6 -14.5s-8.66667 -5.5 -14 -5.5h-51c-5.33333 0 -10 2 -14 6s-6 8.66667 -6 14v80c0 5.33333 1.83333 10 5.5 14s8.5 6 14.5 6h51c6 0 10.8333 -1.83333 14.5 -5.5s5.5 -8.5 5.5 -14.5v-80zM167 20c0 -6 -2 -10.8333 -6 -14.5
c-4 -3.66667 -8.66667 -5.5 -14 -5.5h-48c-5.33333 0 -10 2 -14 6s-6 8.66667 -6 14v510c0 5.33333 1.83333 10 5.5 14s8.5 6 14.5 6h48c6 0 10.8333 -1.83333 14.5 -5.5s5.5 -8.5 5.5 -14.5v-510z" />
    <glyph glyph-name="j" unicode="j" horiz-adv-x="247" 
d="M169 658c0 -6 -2 -10.8333 -6 -14.5s-8.66667 -5.5 -14 -5.5h-52c-4.66667 0 -9 2 -13 6s-6 8.66667 -6 14v81c0 5.33333 1.83333 9.83333 5.5 13.5s8.16667 5.5 13.5 5.5h52c5.33333 0 10 -1.83333 14 -5.5s6 -8.16667 6 -13.5v-81zM167 -64
c0 -34 -4.83333 -60.6667 -14.5 -80c-9.66667 -19.3333 -23.8333 -33 -42.5 -41c-18.6667 -8 -41.6667 -12 -69 -12c-18 0 -36 1.33333 -54 4c-12 2 -18 7.33333 -18 16v37c0 9.33333 7 14 21 14h42c19.3333 0 32 4.16667 38 12.5s9 24.8333 9 49.5v594
c0 5.33333 1.83333 10 5.5 14s8.5 6 14.5 6h48c6 0 10.8333 -1.83333 14.5 -5.5s5.5 -8.5 5.5 -14.5v-594z" />
    <glyph glyph-name="k" unicode="k" horiz-adv-x="496" 
d="M461 13c0 -8.66667 -3.66667 -13 -11 -13h-72c-4.66667 0 -8.66667 0.833333 -12 2.5c-3.33333 1.66667 -7 5.16667 -11 10.5l-199 246v-239c0 -6 -2 -10.8333 -6 -14.5c-4 -3.66667 -8.66667 -5.5 -14 -5.5h-48c-4.66667 0 -9.16667 2 -13.5 6s-6.5 8.66667 -6.5 14v712
c0 5.33333 2 10 6 14s8.66667 6 14 6h48c6 0 10.8333 -1.83333 14.5 -5.5s5.5 -8.5 5.5 -14.5v-416l200 225c4.66667 6 11.3333 9 20 9h70c10 0 15 -3.66667 15 -11c0 -4 -1.66667 -7.66667 -5 -11l-220 -238l222 -268c2 -2 3 -5 3 -9z" />
    <glyph glyph-name="l" unicode="l" horiz-adv-x="244" 
d="M166 20c0 -6 -1.66667 -10.8333 -5 -14.5c-3.33333 -3.66667 -7.66667 -5.5 -13 -5.5h-52c-5.33333 0 -9.66667 1.83333 -13 5.5c-3.33333 3.66667 -5 8.5 -5 14.5v713c0 4.66667 1.5 9 4.5 13s7.5 6 13.5 6h52c5.33333 0 9.66667 -1.83333 13 -5.5s5 -8.16667 5 -13.5
v-713z" />
    <glyph glyph-name="m" unicode="m" horiz-adv-x="797" 
d="M730 20c0 -6 -1.66667 -10.8333 -5 -14.5c-3.33333 -3.66667 -7.66667 -5.5 -13 -5.5h-52c-5.33333 0 -9.66667 2 -13 6s-5 8.66667 -5 14v362c0 40 -7.33333 66.3333 -22 79s-37.3333 19 -68 19h-23c-23.3333 0 -40.8333 -1.66667 -52.5 -5s-20.1667 -10 -25.5 -20
s-8 -24.3333 -8 -43v-392c0 -6 -1.66667 -10.8333 -5 -14.5c-3.33333 -3.66667 -7.66667 -5.5 -13 -5.5h-52c-5.33333 0 -9.66667 2 -13 6s-5 8.66667 -5 14v392c0 28 -5.83333 46.3333 -17.5 55s-34.5 13 -68.5 13h-23c-30 0 -52.5 -6.5 -67.5 -19.5
s-22.5 -39.1667 -22.5 -78.5v-362c0 -6 -1.66667 -10.8333 -5 -14.5c-3.33333 -3.66667 -7.66667 -5.5 -13 -5.5h-52c-4.66667 0 -8.83333 2 -12.5 6s-5.5 8.66667 -5.5 14v362c0 26 3.66667 49.6667 11 71s18.5 39.8333 33.5 55.5c15 15.6667 33.6667 27.6667 56 36
s48.1667 12.5 77.5 12.5h23c32 0 58 -2.66667 78 -8s37.3333 -14.6667 52 -28c14.6667 12.6667 32.3333 21.8333 53 27.5s46.3333 8.5 77 8.5h23c29.3333 0 55.3333 -4.16667 78 -12.5s41.3333 -20.5 56 -36.5s25.6667 -34.3333 33 -55s11 -44.3333 11 -71v-362z" />
    <glyph glyph-name="n" unicode="n" horiz-adv-x="557" 
d="M489 20c0 -6 -1.66667 -10.8333 -5 -14.5c-3.33333 -3.66667 -7.66667 -5.5 -13 -5.5h-52c-4.66667 0 -8.83333 2 -12.5 6s-5.5 8.66667 -5.5 14v357c0 26.6667 -2.5 47.1667 -7.5 61.5s-14 25 -27 32s-30.5 10.5 -52.5 10.5h-71
c-33.3333 0 -56.1667 -7.83333 -68.5 -23.5s-18.5 -42.5 -18.5 -80.5v-357c0 -6 -1.66667 -10.8333 -5 -14.5c-3.33333 -3.66667 -7.66667 -5.5 -13 -5.5h-52c-4.66667 0 -8.83333 2 -12.5 6s-5.5 8.66667 -5.5 14v357c0 47.3333 9.16667 84.3333 27.5 111
c18.3333 26.6667 40.6667 44.8333 67 54.5s53.1667 14.5 80.5 14.5h71c46 0 86.6667 -13 122 -39s53 -73 53 -141v-357z" />
    <glyph glyph-name="o" unicode="o" horiz-adv-x="544" 
d="M495 237c0 -49.3333 -8.5 -92.3333 -25.5 -129c-17 -36.6667 -42.1667 -65 -75.5 -85s-74 -30 -122 -30c-71.3333 0 -126.167 22 -164.5 66c-38.3333 44 -57.5 103.333 -57.5 178v76c0 75.3333 19.1667 134.833 57.5 178.5c38.3333 43.6667 93.1667 65.5 164.5 65.5
c37.3333 0 69.6667 -5.66667 97 -17s50.5 -27.6667 69.5 -49c19 -21.3333 33.1667 -47.1667 42.5 -77.5s14 -63.8333 14 -100.5v-76zM407 237v76c0 52.6667 -11 93.6667 -33 123s-56 44 -102 44c-44.6667 0 -78.1667 -14.5 -100.5 -43.5s-33.5 -70.1667 -33.5 -123.5v-76
c0 -111.333 44.6667 -167 134 -167c45.3333 0 79.1667 14.5 101.5 43.5s33.5 70.1667 33.5 123.5z" />
    <glyph glyph-name="p" unicode="p" horiz-adv-x="541" 
d="M491 238c0 -79.3333 -18.3333 -140 -55 -182s-91 -63 -163 -63c-37.3333 0 -76.3333 3.66667 -117 11v-181c0 -5.33333 -1.66667 -9.83333 -5 -13.5s-8 -5.5 -14 -5.5h-51c-4.66667 0 -8.83333 1.83333 -12.5 5.5s-5.5 8.16667 -5.5 13.5v688
c0 6.66667 1.5 11.6667 4.5 15s8.5 6 16.5 8c16.6667 4 36 7.83333 58 11.5s43.3333 6.5 64 8.5s41.3333 3 62 3c48.6667 0 89.1667 -10 121.5 -30s56.5 -48.5 72.5 -85.5s24 -80.8333 24 -131.5v-72zM403 238v72c0 56 -10 98.8333 -30 128.5s-53.3333 44.5 -100 44.5
c-40.6667 0 -79.6667 -3.33333 -117 -10v-396c36 -6.66667 75 -10 117 -10c46.6667 0 80 14.3333 100 43c20 28.6667 30 71.3333 30 128z" />
    <glyph glyph-name="q" unicode="q" horiz-adv-x="541" 
d="M473 -177c0 -4.66667 -1.83333 -9 -5.5 -13s-7.83333 -6 -12.5 -6h-51c-5.33333 0 -9.83333 1.83333 -13.5 5.5s-5.5 8.16667 -5.5 13.5v181c-39.3333 -7.33333 -78.3333 -11 -117 -11c-71.3333 0 -125.5 21.1667 -162.5 63.5c-37 42.3333 -55.5 102.833 -55.5 181.5v72
c0 38 4.33333 72.1667 13 102.5c8.66667 30.3333 22 56.3333 40 78c18 21.6667 40.6667 38.1667 68 49.5s59.6667 17 97 17c20 0 40.5 -1 61.5 -3s42.5 -4.66667 64.5 -8s41.3333 -7.33333 58 -12c8.66667 -1.33333 14.3333 -3.66667 17 -7s4 -8.66667 4 -16v-688zM385 77
v396c-14 2 -25.1667 3.5 -33.5 4.5s-20.8333 2.16667 -37.5 3.5s-32 2 -46 2c-47.3333 0 -80.8333 -14.6667 -100.5 -44s-29.5 -72.3333 -29.5 -129v-72c0 -28 2.33333 -52.5 7 -73.5s12 -38.6667 22 -53c10 -14.3333 23.1667 -25.3333 39.5 -33s36.8333 -11.5 61.5 -11.5
c17.3333 0 36.3333 0.833333 57 2.5s40.6667 4.16667 60 7.5z" />
    <glyph glyph-name="r" unicode="r" horiz-adv-x="354" 
d="M316 496c0 -6 -1.33333 -10.1667 -4 -12.5s-8.33333 -3.5 -17 -3.5c-60.6667 0 -107 -3.33333 -139 -10v-450c0 -6 -1.66667 -10.8333 -5 -14.5c-3.33333 -3.66667 -7.66667 -5.5 -13 -5.5h-52c-4.66667 0 -8.83333 1.83333 -12.5 5.5
c-3.66667 3.66667 -5.5 8.5 -5.5 14.5v486c0 10 6 17.6667 18 23c27.3333 12 56.5 19.6667 87.5 23s71.5 5 121.5 5c8 0 13.5 -0.833333 16.5 -2.5s4.5 -5.83333 4.5 -12.5v-46z" />
    <glyph glyph-name="s" unicode="s" horiz-adv-x="465" 
d="M416 138c0 -49.3333 -16.6667 -85.8333 -50 -109.5c-33.3333 -23.6667 -79 -35.5 -137 -35.5c-22.6667 0 -49.5 1.33333 -80.5 4c-31 2.66667 -56.8333 6.33333 -77.5 11c-14 4 -21 10.6667 -21 20v35c0 4.66667 1.83333 8.33333 5.5 11s7.83333 4 12.5 4h4
c56.6667 -7.33333 109 -11 157 -11c33.3333 0 58.1667 5.33333 74.5 16s24.5 29 24.5 55c0 14.6667 -5.33333 28 -16 40s-30.3333 26.3333 -59 43l-101 60c-33.3333 20.6667 -58.6667 42.1667 -76 64.5c-17.3333 22.3333 -26 48.5 -26 78.5c0 48.6667 16 83 48 103
s76.3333 30 133 30c50.6667 0 102.667 -4.33333 156 -13c12.6667 -2 19 -8.66667 19 -20v-33c0 -11.3333 -5.66667 -17 -17 -17h-3c-62.6667 5.33333 -114.333 8 -155 8c-32 0 -55.5 -3.83333 -70.5 -11.5s-22.5 -23.1667 -22.5 -46.5c0 -14 5.16667 -26.3333 15.5 -37
s28.1667 -23.6667 53.5 -39l99 -59c40.6667 -24 69.1667 -47.6667 85.5 -71s24.5 -50 24.5 -80z" />
    <glyph glyph-name="t" unicode="t" horiz-adv-x="356" 
d="M332 16c0 -10 -6.66667 -15.6667 -20 -17c-10 -1.33333 -25.1667 -2.66667 -45.5 -4c-20.3333 -1.33333 -37.1667 -2 -50.5 -2c-32.6667 0 -59.8333 4.16667 -81.5 12.5c-21.6667 8.33333 -38.1667 22.6667 -49.5 43c-11.3333 20.3333 -17 48.1667 -17 83.5v516
c0 4.66667 1.83333 8.83333 5.5 12.5s8.5 5.83333 14.5 6.5l49 8h2c5.33333 0 9.5 -1.83333 12.5 -5.5s4.5 -8.16667 4.5 -13.5v-106h156c12.6667 0 19 -6 19 -18v-34c0 -5.33333 -1.83333 -9.66667 -5.5 -13s-8.16667 -5 -13.5 -5h-156v-348c0 -14 1.33333 -25.6667 4 -35
c2.66667 -9.33333 6.66667 -16.3333 12 -21s12.6667 -7.83333 22 -9.5s21.3333 -2.5 36 -2.5h81c14 0 21 -4.66667 21 -14v-34z" />
    <glyph glyph-name="u" unicode="u" horiz-adv-x="557" 
d="M489 228c0 -46.6667 -7 -85.5 -21 -116.5s-31.6667 -55 -53 -72s-43.6667 -29 -67 -36s-45 -10.5 -65 -10.5h-9c-29.3333 0 -59.5 6.66667 -90.5 20c-31 13.3333 -58 37.5 -81 72.5s-34.5 82.5 -34.5 142.5v302c0 5.33333 1.66667 10 5 14s7.66667 6 13 6h52
c5.33333 0 9.66667 -1.83333 13 -5.5s5 -8.5 5 -14.5v-302c0 -56.6667 10.5 -97.1667 31.5 -121.5c21 -24.3333 49.8333 -36.5 86.5 -36.5h9c36.6667 0 65.5 12.1667 86.5 36.5c21 24.3333 31.5 64.8333 31.5 121.5v302c0 5.33333 1.66667 10 5 14s7.66667 6 13 6h52
c5.33333 0 9.66667 -1.83333 13 -5.5s5 -8.5 5 -14.5v-302z" />
    <glyph glyph-name="v" unicode="v" horiz-adv-x="529" 
d="M491 534c0 -3.33333 -0.333333 -6 -1 -8l-128 -454c-14.6667 -52.6667 -47 -79 -97 -79c-22 0 -41.5 5.66667 -58.5 17c-17 11.3333 -29.8333 32 -38.5 62l-128 454c-0.666667 2 -1 4.33333 -1 7c0 5.33333 1.33333 9.5 4 12.5s6.66667 4.5 12 4.5h55
c10 0 16.3333 -6.33333 19 -19l112 -434c2.66667 -12 5.83333 -20.1667 9.5 -24.5s8.5 -6.5 14.5 -6.5c11.3333 0 19.3333 10.3333 24 31l112 434c2.66667 12.6667 9 19 19 19h56c10 0 15 -5.33333 15 -16z" />
    <glyph glyph-name="w" unicode="w" horiz-adv-x="805" 
d="M737 217c0 -81.3333 -18.8333 -139 -56.5 -173s-86.1667 -51 -145.5 -51c-44 0 -88 8 -132 24c-44 -16 -88.3333 -24 -133 -24c-59.3333 0 -107.833 17 -145.5 51c-37.6667 34 -56.5 91.6667 -56.5 173v313c0 5.33333 2 10 6 14s8.66667 6 14 6h47
c6 0 10.8333 -1.83333 14.5 -5.5s5.5 -8.5 5.5 -14.5v-313c0 -36 4.33333 -65 13 -87s22 -37.8333 40 -47.5s41.3333 -14.5 70 -14.5c12 0 23.3333 1 34 3s26 5.33333 46 10v449c0 5.33333 2 10 6 14s8.66667 6 14 6h49c6 0 10.8333 -1.83333 14.5 -5.5s5.5 -8.5 5.5 -14.5
v-449c38 -8.66667 64.6667 -13 80 -13c42 0 73 11.5 93 34.5s30 61.1667 30 114.5v313c0 5.33333 2 10 6 14s8.66667 6 14 6h47c6 0 10.8333 -1.83333 14.5 -5.5s5.5 -8.5 5.5 -14.5v-313z" />
    <glyph glyph-name="x" unicode="x" horiz-adv-x="517" 
d="M496 11c0 -7.33333 -4.33333 -11 -13 -11h-69c-6 0 -10.6667 2.66667 -14 8l-143 209l-143 -207c-2.66667 -4 -5 -6.66667 -7 -8c-2 -1.33333 -5.33333 -2 -10 -2h-60c-8 0 -12 3.33333 -12 10c0 4.66667 1.66667 9 5 13l180 257l-170 245
c-3.33333 5.33333 -5 9.66667 -5 13c0 8 5 12 15 12h65c7.33333 0 14 -4.66667 20 -14l127 -188l128 188c4 6 7.16667 9.83333 9.5 11.5s6.16667 2.5 11.5 2.5h58c8.66667 0 13 -4 13 -12c0 -3.33333 -1.66667 -7.66667 -5 -13l-168 -239l183 -263c2.66667 -4 4 -8 4 -12z
" />
    <glyph glyph-name="y" unicode="y" horiz-adv-x="557" 
d="M489 0c0 -38.6667 -4.16667 -70.8333 -12.5 -96.5c-8.33333 -25.6667 -21 -46 -38 -61s-37.8333 -25.5 -62.5 -31.5s-55 -9 -91 -9c-65.3333 0 -120.333 5.66667 -165 17c-7.33333 2.66667 -12.3333 5.5 -15 8.5s-4 7.16667 -4 12.5v28c0 5.33333 1.66667 9.5 5 12.5
s7.66667 4.5 13 4.5h3c2.66667 0 14.8333 -1.33333 36.5 -4s44.8333 -4.66667 69.5 -6s43.6667 -2 57 -2c30.6667 0 54.5 3.33333 71.5 10s29 19 36 37s10.5 44.6667 10.5 80v5c-11.3333 -3.33333 -28.8333 -6.16667 -52.5 -8.5c-23.6667 -2.33333 -43.1667 -3.5 -58.5 -3.5
c-149.333 0 -224 69 -224 207v330c0 5.33333 2 10 6 14s8.66667 6 14 6h48c6 0 10.8333 -1.83333 14.5 -5.5s5.5 -8.5 5.5 -14.5v-330c0 -50.6667 11.3333 -85.3333 34 -104c22.6667 -18.6667 56.6667 -28 102 -28c35.3333 0 71.6667 4.33333 109 13v449
c0 5.33333 2 10 6 14s8.66667 6 14 6h48c6 0 10.8333 -1.83333 14.5 -5.5s5.5 -8.5 5.5 -14.5v-530z" />
    <glyph glyph-name="z" unicode="z" horiz-adv-x="481" 
d="M432 20c0 -5.33333 -2.16667 -10 -6.5 -14s-8.83333 -6 -13.5 -6h-264c-31.3333 0 -55.6667 5.16667 -73 15.5c-17.3333 10.3333 -26 29.5 -26 57.5c0 25.3333 7.66667 47.3333 23 66l258 321c2.66667 4 4 7 4 9c0 4.66667 -3.33333 7 -10 7h-243c-5.33333 0 -10 2 -14 6
s-6 8.66667 -6 14v34c0 5.33333 1.83333 10 5.5 14c3.66667 4 8.5 6 14.5 6h247c22.6667 0 41.3333 -2.16667 56 -6.5s25.6667 -11.5 33 -21.5s11 -23.6667 11 -41c0 -24 -7.33333 -44.6667 -22 -62l-261 -326c-3.33333 -3.33333 -5 -7 -5 -11c0 -5.33333 3.33333 -8 10 -8
h262c4.66667 0 9.16667 -2 13.5 -6s6.5 -8.66667 6.5 -14v-34z" />
    <glyph glyph-name="asciitilde" unicode="~" horiz-adv-x="604" 
d="M514 467c0 -42.6667 -8.5 -74.6667 -25.5 -96s-44.8333 -32 -83.5 -32c-26 0 -51.3333 9.33333 -76 28l-73 58c-14.6667 12.6667 -25.5 21 -32.5 25s-13.8333 6 -20.5 6c-17.3333 0 -28.6667 -4.66667 -34 -14s-8 -24.3333 -8 -45v-26c0 -5.33333 -2.16667 -10 -6.5 -14
s-8.83333 -6 -13.5 -6h-29c-4.66667 0 -9.16667 2 -13.5 6c-4.33333 4 -6.5 8.66667 -6.5 14v26c0 28 4.33333 51.8333 13 71.5c8.66667 19.6667 21.1667 34.3333 37.5 44c16.3333 9.66667 36.5 14.5 60.5 14.5c27.3333 0 52.3333 -9.33333 75 -28l85 -68
c8 -6 15.6667 -10.8333 23 -14.5s13.6667 -5.5 19 -5.5c12 0 20.8333 1.83333 26.5 5.5s9.33333 9 11 16s2.5 18.5 2.5 34.5v28c0 4.66667 2.16667 9.16667 6.5 13.5c4.33333 4.33333 8.83333 6.5 13.5 6.5h29c4.66667 0 9.16667 -2.16667 13.5 -6.5
c4.33333 -4.33333 6.5 -8.83333 6.5 -13.5v-28z" />
    <glyph glyph-name="exclamdown" unicode="&#xa1;" horiz-adv-x="216" 
d="M153 437c0 -5.33333 -1.83333 -9.83333 -5.5 -13.5s-8.16667 -5.5 -13.5 -5.5h-48c-5.33333 0 -9.83333 1.83333 -13.5 5.5s-5.5 8.16667 -5.5 13.5v94c0 5.33333 1.83333 9.83333 5.5 13.5s8.16667 5.5 13.5 5.5h48c5.33333 0 9.83333 -1.66667 13.5 -5s5.5 -8 5.5 -14
v-94zM135 -203h-51c-5.33333 0 -9.83333 1.83333 -13.5 5.5s-5.5 8.16667 -5.5 13.5l7 520c0 4.66667 1.83333 9 5.5 13s8.5 6 14.5 6h35c6 0 10.8333 -1.83333 14.5 -5.5s5.5 -8.16667 5.5 -13.5l8 -520c0 -5.33333 -2 -9.83333 -6 -13.5s-8.66667 -5.5 -14 -5.5z" />
    <glyph glyph-name="cent" unicode="&#xa2;" horiz-adv-x="604" 
d="M482 26c0 -6.66667 -1.33333 -11.6667 -4 -15c-2.66667 -3.33333 -8 -5.66667 -16 -7c-29.3333 -4.66667 -60.6667 -8 -94 -10v-90c0 -4.66667 -2.16667 -9.16667 -6.5 -13.5s-8.83333 -6.5 -13.5 -6.5h-41c-5.33333 0 -10 2 -14 6s-6 8.66667 -6 14v94
c-34 6.66667 -63.3333 20.6667 -88 42c-24.6667 21.3333 -43.3333 48.6667 -56 82c-12.6667 33.3333 -19 71.3333 -19 114v78c0 64 14.1667 117.167 42.5 159.5c28.3333 42.3333 68.5 68.5 120.5 78.5v93c0 4.66667 2 9.16667 6 13.5s8.66667 6.5 14 6.5h41
c4.66667 0 9.16667 -2.16667 13.5 -6.5s6.5 -8.83333 6.5 -13.5v-89c29.3333 -1.33333 60.6667 -4.66667 94 -10c8 -1.33333 13.3333 -3.5 16 -6.5s4 -8.16667 4 -15.5v-36c0 -10 -5.66667 -15 -17 -15h-4c-46.6667 5.33333 -88 8 -124 8c-40.6667 0 -71.6667 -14 -93 -42
c-21.3333 -28 -32 -69.6667 -32 -125v-78c0 -55.3333 10.5 -97 31.5 -125s52.1667 -42 93.5 -42c37.3333 0 78.6667 2.66667 124 8h4c11.3333 0 17 -5 17 -15v-36z" />
    <glyph glyph-name="sterling" unicode="&#xa3;" horiz-adv-x="604" 
d="M525 17c0 -11.3333 -6.66667 -17 -20 -17h-399c-11.3333 0 -17 5 -17 15v39c0 3.33333 0.5 6 1.5 8s2.16667 4.16667 3.5 6.5s3 5.16667 5 8.5c11.3333 18.6667 19.3333 36.6667 24 54c4.66667 17.3333 7 38.6667 7 64v152h-52c-6 0 -10.5 1.66667 -13.5 5
s-4.5 7.66667 -4.5 13v42c0 4.66667 2 8.83333 6 12.5s8.66667 5.5 14 5.5h50v65c0 56.6667 6.83333 103.667 20.5 141s36.8333 65.1667 69.5 83.5s76.3333 27.5 131 27.5c22 0 48 -1.33333 78 -4s55.6667 -5.66667 77 -9c8 -1.33333 13.1667 -3.16667 15.5 -5.5
s3.5 -6.16667 3.5 -11.5v-41c0 -11.3333 -5 -17 -15 -17h-5c-61.3333 7.33333 -112.667 11 -154 11c-35.3333 0 -62.1667 -5.16667 -80.5 -15.5c-18.3333 -10.3333 -31.1667 -28 -38.5 -53s-11 -60.5 -11 -106.5v-65h215c5.33333 0 9.83333 -1.66667 13.5 -5
s5.5 -7.66667 5.5 -13v-42c0 -5.33333 -2 -9.66667 -6 -13s-8.66667 -5 -14 -5h-214v-152c0 -36.6667 -11.6667 -76.3333 -35 -119h319c13.3333 0 20 -5 20 -15v-44z" />
    <glyph glyph-name="Euro" unicode="&#x20ac;" horiz-adv-x="604" 
d="M554 26c0 -11.3333 -6.66667 -18 -20 -20c-24 -4.66667 -46 -8 -66 -10s-48 -3 -84 -3c-30.6667 0 -61.6667 4.66667 -93 14c-31.3333 9.33333 -60.3333 24.3333 -87 45c-26.6667 20.6667 -48.8333 48.6667 -66.5 84c-17.6667 35.3333 -28.5 78.3333 -32.5 129h-33
c-4.66667 0 -9.16667 2 -13.5 6s-6.5 8.66667 -6.5 14v28c0 5.33333 1.83333 10 5.5 14s8.5 6 14.5 6h32v81h-32c-4.66667 0 -9.16667 2 -13.5 6s-6.5 8.66667 -6.5 14v28c0 5.33333 1.83333 10 5.5 14s8.5 6 14.5 6h33c3.33333 50 14 92.5 32 127.5
s40.3333 62.8333 67 83.5s55.3333 35.3333 86 44s62 13 94 13c29.3333 0 54.8333 -1.33333 76.5 -4s46.8333 -6.66667 75.5 -12c10.6667 -1.33333 16 -5.66667 16 -13v-51c0 -7.33333 -4 -11 -12 -11h-3c-72 6 -122.667 9 -152 9c-50 0 -92.1667 -14.5 -126.5 -43.5
c-34.3333 -29 -54.8333 -76.5 -61.5 -142.5h290c5.33333 0 9.5 -1.5 12.5 -4.5s4.5 -6.83333 4.5 -11.5c0 -0.666667 -0.166667 -1.33333 -0.5 -2s-0.5 -1.33333 -0.5 -2l-7 -28c-3.33333 -13.3333 -10 -20 -20 -20h-281v-81h257c10 0 15 -5 15 -15
c0 -0.666667 -0.166667 -1.5 -0.5 -2.5s-0.5 -1.83333 -0.5 -2.5l-7 -28c-3.33333 -13.3333 -10 -20 -20 -20h-243c3.33333 -44.6667 14.1667 -81.3333 32.5 -110c18.3333 -28.6667 41 -49.1667 68 -61.5c27 -12.3333 56.5 -18.5 88.5 -18.5c35.3333 0 85 2.66667 149 8h4
c10.6667 0 16 -5.33333 16 -16v-41z" />
    <glyph glyph-name="yen" unicode="&#xa5;" horiz-adv-x="604" 
d="M569 231c0 -5.33333 -2 -10 -6 -14s-8.66667 -6 -14 -6h-200v-191c0 -5.33333 -1.66667 -10 -5 -14s-7.66667 -6 -13 -6h-57c-4.66667 0 -8.66667 2 -12 6s-5 8.66667 -5 14v191h-201c-5.33333 0 -10 2.16667 -14 6.5s-6 8.83333 -6 13.5v30c0 5.33333 1.83333 10 5.5 14
s8.5 6 14.5 6h201v21l-55 110h-146c-5.33333 0 -10 2 -14 6s-6 8.66667 -6 14v30c0 5.33333 1.83333 10 5.5 14s8.5 6 14.5 6h111l-119 236c-2 5.33333 -3 9.33333 -3 12c0 8.66667 5.33333 13 16 13h63c7.33333 0 13 -4.66667 17 -14l162 -339l162 339
c4 9.33333 9.66667 14 17 14h62c11.3333 0 17 -4.66667 17 -14c0 -2.66667 -1 -6.33333 -3 -11l-119 -236h110c6 0 10.8333 -1.83333 14.5 -5.5s5.5 -8.5 5.5 -14.5v-30c0 -6 -2 -10.8333 -6 -14.5s-8.66667 -5.5 -14 -5.5h-145l-55 -110v-21h200
c6 0 10.8333 -1.83333 14.5 -5.5s5.5 -8.5 5.5 -14.5v-30z" />
    <glyph glyph-name="Scaron" unicode="&#x160;" horiz-adv-x="549" 
d="M500 193c0 -56.667 -18.667 -104.167 -56 -142.5s-101 -57.5 -191 -57.5c-52 0 -107.333 4.66699 -166 14c-8 1.33301 -13.167 3.16699 -15.5 5.5s-3.5 6.5 -3.5 12.5v40c0 10.667 5.66699 16 17 16h3c46 -4 101 -6 165 -6c56 0 95.333 10 118 30s34 49.333 34 88
c0 24.667 -8.33301 46.167 -25 64.5s-48.333 41.5 -95 69.5l-97 59c-48 29.333 -83 58.333 -105 87s-33 62 -33 100c0 58.667 20.5 102.833 61.5 132.5s100.167 44.5 177.5 44.5c22.667 0 44.667 -0.5 66 -1.5s40.167 -2.33301 56.5 -4s33.5 -3.83301 51.5 -6.5
c11.333 -2 17 -7.66699 17 -17v-43c0 -10.667 -5.66699 -16 -17 -16h-2c-58.667 4 -116 6 -172 6c-53.333 0 -91.167 -7 -113.5 -21s-33.5 -38.667 -33.5 -74c0 -22.667 8 -42.333 24 -59s44.333 -37.333 85 -62l92 -55c38 -22.667 68.5 -44.5 91.5 -65.5
s39.667 -42.5 50 -64.5s15.5 -46.667 15.5 -74zM456 943c0 -4 -1.33301 -7.33301 -4 -10l-97 -124c-5.33301 -6.66699 -9.33301 -10.833 -12 -12.5s-7 -2.5 -13 -2.5h-85c-5.33301 0 -9.33301 0.833008 -12 2.5s-6.66699 5.83301 -12 12.5l-98 124
c-2.66699 2.66699 -4 6 -4 10c0 4.66699 3 7 9 7h54c4.66699 0 8 -0.833008 10 -2.5s6.33301 -6.16699 13 -13.5l83 -96l82 96c6.66699 7.33301 11 11.833 13 13.5s5.33301 2.5 10 2.5h54c6 0 9 -2.33301 9 -7z" />
    <glyph glyph-name="section" unicode="&#xa7;" horiz-adv-x="546" 
d="M499 -17c0 -58 -18.5 -105.667 -55.5 -143c-37 -37.3333 -100.833 -56 -191.5 -56c-53.3333 0 -109.333 4.66667 -168 14c-4.66667 0.666667 -9 2.83333 -13 6.5s-6 7.83333 -6 12.5v42c0 5.33333 2 9.5 6 12.5s8.66667 4.5 14 4.5h2c72 -6.66667 126 -10 162 -10h3
c56 0 95 10 117 30s33 49 33 87c0 18 -3 33.3333 -9 46c-6 12.6667 -16.5 25.3333 -31.5 38c-15 12.6667 -37.5 28 -67.5 46l-112 67c-25.3333 15.3333 -47 30.5 -65 45.5s-31.8333 29.8333 -41.5 44.5c-9.66667 14.6667 -16.6667 29.8333 -21 45.5s-6.5 33.1667 -6.5 52.5
s2.83333 37.1667 8.5 53.5s14.1667 33.5 25.5 51.5c-11.3333 12 -19.8333 26.8333 -25.5 44.5c-5.66667 17.6667 -8.5 36.5 -8.5 56.5c0 38 7.83333 69.8333 23.5 95.5c15.6667 25.6667 41.3333 45.5 77 59.5c35.6667 14 81.8333 21 138.5 21c25.3333 0 58 -1.66667 98 -5
s65.6667 -6 77 -8c12 -2 18 -8.33333 18 -19v-43c0 -4.66667 -1.66667 -8.66667 -5 -12s-7.66667 -5 -13 -5h-1c-10 0 -35.3333 1.5 -76 4.5s-73.3333 4.5 -98 4.5c-56 0 -94 -7 -114 -21s-30 -38 -30 -72c0 -15.3333 2.83333 -28.8333 8.5 -40.5s15.5 -23.1667 29.5 -34.5
s35 -25.3333 63 -42l109 -64c28 -16 52 -32.3333 72 -49s35.1667 -32.8333 45.5 -48.5s17.6667 -31.5 22 -47.5s6.5 -34.3333 6.5 -55c0 -42.6667 -9.66667 -79 -29 -109c19.3333 -28 29 -61.6667 29 -101zM407 193c0 18.6667 -3 34.1667 -9 46.5s-16.3333 24.5 -31 36.5
s-35.3333 26.3333 -62 43l-90 55c-2 1.33333 -12 7.66667 -30 19s-32 20.6667 -42 28c-4 -12 -6.5 -20.6667 -7.5 -26s-1.5 -14.3333 -1.5 -27c0 -22.6667 7.16667 -42.8333 21.5 -60.5s36.8333 -35.5 67.5 -53.5l110 -64c23.3333 -14 45.6667 -28.3333 67 -43
c3.33333 9.33333 5.33333 16.3333 6 21s1 13 1 25z" />
    <glyph glyph-name="scaron" unicode="&#x161;" horiz-adv-x="465" 
d="M416 138c0 -49.333 -16.667 -85.833 -50 -109.5s-79 -35.5 -137 -35.5c-22.667 0 -49.5 1.33301 -80.5 4s-56.833 6.33301 -77.5 11c-14 4 -21 10.667 -21 20v35c0 4.66699 1.83301 8.33301 5.5 11s7.83301 4 12.5 4h4c56.667 -7.33301 109 -11 157 -11
c33.333 0 58.167 5.33301 74.5 16s24.5 29 24.5 55c0 14.667 -5.33301 28 -16 40s-30.333 26.333 -59 43l-101 60c-33.333 20.667 -58.667 42.167 -76 64.5s-26 48.5 -26 78.5c0 48.667 16 83 48 103s76.333 30 133 30c50.667 0 102.667 -4.33301 156 -13
c12.667 -2 19 -8.66699 19 -20v-33c0 -11.333 -5.66699 -17 -17 -17h-3c-62.667 5.33301 -114.333 8 -155 8c-32 0 -55.5 -3.83301 -70.5 -11.5s-22.5 -23.167 -22.5 -46.5c0 -14 5.16699 -26.333 15.5 -37s28.167 -23.667 53.5 -39l99 -59
c40.667 -24 69.167 -47.667 85.5 -71s24.5 -50 24.5 -80zM396 772c0 -4 -1.33301 -7.33301 -4 -10l-97 -124c-5.33301 -6.66699 -9.33301 -10.833 -12 -12.5s-7 -2.5 -13 -2.5h-85c-5.33301 0 -9.33301 0.833008 -12 2.5s-6.66699 5.83301 -12 12.5l-98 124
c-2.66699 2.66699 -4 6 -4 10c0 4.66699 3 7 9 7h54c4.66699 0 8 -0.833008 10 -2.5s6.33301 -6.16699 13 -13.5l83 -96l82 96c6.66699 7.33301 11 11.833 13 13.5s5.33301 2.5 10 2.5h54c6 0 9 -2.33301 9 -7z" />
    <glyph glyph-name="copyright" unicode="&#xa9;" horiz-adv-x="750" 
d="M700 374c0 -58.6667 -14.6667 -112.833 -44 -162.5c-29.3333 -49.6667 -69.1667 -89 -119.5 -118c-50.3333 -29 -104.5 -43.5 -162.5 -43.5s-112 14.5 -162 43.5s-89.5 68.5 -118.5 118.5s-43.5 104 -43.5 162c0 58.6667 14.5 113.167 43.5 163.5
c29 50.3333 68.3333 90.1667 118 119.5c49.6667 29.3333 103.833 44 162.5 44c44 0 86 -8.5 126 -25.5s75 -40.6667 105 -71s53.3333 -65.3333 70 -105c16.6667 -39.6667 25 -81.5 25 -125.5zM656 374c0 51.3333 -12.5 98.6667 -37.5 142
c-25 43.3333 -59.3333 77.6667 -103 103c-43.6667 25.3333 -90.8333 38 -141.5 38s-97.6667 -12.6667 -141 -38c-43.3333 -25.3333 -77.5 -59.6667 -102.5 -103c-25 -43.3333 -37.5 -90.6667 -37.5 -142s12.5 -98.5 37.5 -141.5s59.1667 -76.8333 102.5 -101.5
c43.3333 -24.6667 90.3333 -37 141 -37c38 0 74.1667 7.16667 108.5 21.5c34.3333 14.3333 64.5 34.1667 90.5 59.5s46.3333 55.1667 61 89.5c14.6667 34.3333 22 70.8333 22 109.5zM476 183c0 -8.66667 -5 -13.6667 -15 -15c-23.3333 -4.66667 -53.6667 -7 -91 -7
c-30 0 -56.5 6.16667 -79.5 18.5s-41 32.1667 -54 59.5c-13 27.3333 -19.5 62.3333 -19.5 105v66c0 63.3333 14 109.833 42 139.5s65 44.5 111 44.5c32 0 62.3333 -2.66667 91 -8c10 -1.33333 15 -6 15 -14v-28c0 -8 -4.33333 -12 -13 -12h-3
c-34.6667 3.33333 -64.6667 5 -90 5c-28 0 -50.1667 -9.83333 -66.5 -29.5c-16.3333 -19.6667 -24.5 -52.1667 -24.5 -97.5v-66c0 -84 30.3333 -126 91 -126c21.3333 0 51.3333 1.66667 90 5h2c9.33333 0 14 -4.33333 14 -13v-27z" />
    <glyph glyph-name="ordfeminine" unicode="&#xaa;" horiz-adv-x="301" 
d="M264 450c0 -9.33333 -3.33333 -14.6667 -10 -16c-29.3333 -8.66667 -62 -13 -98 -13c-44 0 -76 7.83333 -96 23.5s-30 40.5 -30 74.5v7c0 32 11.5 55.3333 34.5 70s58.8333 22 107.5 22h32v13c0 23.3333 -4 39.6667 -12 49s-22 14 -42 14
c-17.3333 0 -45.3333 -1.66667 -84 -5h-2c-9.33333 0 -14 4.33333 -14 13v21c0 8 5 12.6667 15 14c30.6667 6 59 9 85 9c40 0 69 -9.66667 87 -29s27 -48 27 -86v-181zM205 473v103h-23h-9c-20.6667 0 -37.3333 -1.83333 -50 -5.5c-12.6667 -3.66667 -21.6667 -9 -27 -16
c-5.33333 -7 -8 -16.5 -8 -28.5v-7c0 -18 4.83333 -31 14.5 -39c9.66667 -8 27.5 -12 53.5 -12c12 0 28.3333 1.66667 49 5z" />
    <glyph glyph-name="logicalnot" unicode="&#xac;" horiz-adv-x="604" 
d="M515 247c0 -5.33333 -2.16667 -10 -6.5 -14c-4.33333 -4 -8.83333 -6 -13.5 -6h-32c-4.66667 0 -9.16667 2 -13.5 6s-6.5 8.66667 -6.5 14v219h-333c-5.33333 0 -10 1.5 -14 4.5s-6 6.83333 -6 11.5v40c0 10.6667 6.66667 16 20 16h388c3.33333 0 6.33333 -0.666667 9 -2
s4.66667 -3.33333 6 -6c1.33333 -2.66667 2 -5.66667 2 -9v-274z" />
    <glyph glyph-name="uni00AD" unicode="&#xad;" horiz-adv-x="443" 
d="M373 230h-303v100h303v-100z" />
    <glyph glyph-name="registered" unicode="&#xae;" horiz-adv-x="598" 
d="M569 484c0 -48.6667 -12.1667 -93.5 -36.5 -134.5c-24.3333 -41 -57.1667 -73.5 -98.5 -97.5s-86.3333 -36 -135 -36c-48.6667 0 -93.6667 12 -135 36c-41.3333 24 -74 56.5 -98 97.5s-36 85.8333 -36 134.5c0 48.6667 12 93.6667 36 135s56.6667 74 98 98
c41.3333 24 86.3333 36 135 36c49.3333 0 94.5 -12 135.5 -36s73.6667 -56.6667 98 -98c24.3333 -41.3333 36.5 -86.3333 36.5 -135zM528 484c0 41.3333 -10.3333 79.5 -31 114.5c-20.6667 35 -48.5 62.8333 -83.5 83.5s-73.1667 31 -114.5 31s-79.3333 -10.3333 -114 -31
s-62.1667 -48.6667 -82.5 -84c-20.3333 -35.3333 -30.5 -73.3333 -30.5 -114c0 -41.3333 10 -79.5 30 -114.5s47.5 -62.5 82.5 -82.5s73.1667 -30 114.5 -30s79.5 10.1667 114.5 30.5s62.8333 47.8333 83.5 82.5c20.6667 34.6667 31 72.6667 31 114zM425 331
c0 -8.66667 -4 -13 -12 -13h-28c-5.33333 0 -9.33333 2.66667 -12 8l-81 128l-10 3h-42v-124c0 -4 -1.33333 -7.5 -4 -10.5s-6 -4.5 -10 -4.5h-25c-4 0 -7.16667 1.66667 -9.5 5s-3.5 6.66667 -3.5 10v302c0 14 6 21.3333 18 22c15.3333 2 40.6667 3 76 3
c43.3333 0 76 -7.66667 98 -23s33 -41.3333 33 -78v-4c0 -47.3333 -22.3333 -77.3333 -67 -90l77 -125c1.33333 -2.66667 2 -5.66667 2 -9zM363 555v4c0 20 -6 34 -18 42s-32 12 -60 12h-32h-14v-112c10 0 18.3333 -0.166667 25 -0.5s13.6667 -0.5 21 -0.5
c28 0 48 4.16667 60 12.5c12 8.33333 18 22.5 18 42.5z" />
    <glyph glyph-name="uni00AF" unicode="&#xaf;" horiz-adv-x="382" 
d="M365 798h-349v84h349v-84z" />
    <glyph glyph-name="degree" unicode="&#xb0;" horiz-adv-x="341" 
d="M314 608c0 -26 -6.33333 -49.8333 -19 -71.5s-29.8333 -38.8333 -51.5 -51.5c-21.6667 -12.6667 -45.5 -19 -71.5 -19s-49.8333 6.33333 -71.5 19c-21.6667 12.6667 -39 30 -52 52s-19.5 45.6667 -19.5 71s6.5 48.8333 19.5 70.5s30.3333 39 52 52
c21.6667 13 45.5 19.5 71.5 19.5s49.8333 -6.33333 71.5 -19c21.6667 -12.6667 38.8333 -29.8333 51.5 -51.5s19 -45.5 19 -71.5zM260 608c0 15.3333 -4 29.8333 -12 43.5s-18.6667 24.5 -32 32.5s-28 12 -44 12c-15.3333 0 -29.8333 -4 -43.5 -12
c-13.6667 -8 -24.5 -18.8333 -32.5 -32.5s-12 -28.1667 -12 -43.5s4 -29.8333 12 -43.5s18.6667 -24.5 32 -32.5c13.3333 -8 28 -12 44 -12s30.6667 4 44 12s24 18.8333 32 32.5s12 28.1667 12 43.5z" />
    <glyph glyph-name="plusminus" unicode="&#xb1;" horiz-adv-x="604" 
d="M530 371c0 -10.6667 -6.66667 -16 -20 -16h-172v-171c0 -13.3333 -5.33333 -20 -16 -20h-40c-10.6667 0 -16 6.66667 -16 20v171h-171c-13.3333 0 -20 5.33333 -20 16v40c0 10.6667 6.66667 16 20 16h171v172c0 13.3333 5.33333 20 16 20h40
c10.6667 0 16 -6.66667 16 -20v-172h172c13.3333 0 20 -5.33333 20 -16v-40zM530 9c0 -10.6667 -6.66667 -16 -20 -16h-415c-13.3333 0 -20 5.33333 -20 16v33c0 10.6667 6.66667 16 20 16h415c13.3333 0 20 -5.33333 20 -16v-33z" />
    <glyph glyph-name="twosuperior" unicode="&#xb2;" horiz-adv-x="340" 
d="M297 647c0 -21.3333 -5.66667 -40.5 -17 -57.5s-30.6667 -34.5 -58 -52.5l-52 -35c-28 -18.6667 -45.8333 -35.5 -53.5 -50.5s-11.5 -33.8333 -11.5 -56.5v-4h176c8.66667 0 13 -3.33333 13 -10v-37c0 -6.66667 -4.33333 -10 -13 -10h-225c-8 0 -12 4 -12 12v39
c0 35.3333 6.5 64.8333 19.5 88.5s36.1667 47.1667 69.5 70.5l55 38c14 9.33333 23.8333 16.8333 29.5 22.5s9.5 11.6667 11.5 18s3 14.5 3 24.5c0 18 -5.5 30.3333 -16.5 37s-32.1667 10 -63.5 10c-28.6667 0 -58.3333 -2.66667 -89 -8h-3c-6.66667 0 -10 3.33333 -10 10
v31c0 4.66667 4 8.33333 12 11c32 8 64 12 96 12c46 0 80.6667 -8 104 -24c23.3333 -16 35 -42.3333 35 -79z" />
    <glyph glyph-name="threesuperior" unicode="&#xb3;" horiz-adv-x="337" 
d="M294 640c0 -40.6667 -16.3333 -70.6667 -49 -90c18 -10.6667 30.5 -23.6667 37.5 -39c7 -15.3333 10.5 -31.3333 10.5 -48v-11c0 -40.6667 -13 -70.5 -39 -89.5s-61.6667 -28.5 -107 -28.5c-35.3333 0 -66.3333 4 -93 12c-6.66667 2.66667 -10 6.33333 -10 11v29
c0 7.33333 3.33333 11 10 11h2c28 -4 52.6667 -6 74 -6c36.6667 0 62.5 4.16667 77.5 12.5s22.5 24.5 22.5 48.5v11c0 16 -4.5 30.1667 -13.5 42.5c-9 12.3333 -24.5 18.5 -46.5 18.5h-100c-8 0 -12 3.66667 -12 11v31c0 7.33333 4 11 12 11h98c41.3333 0 62 19.3333 62 58
v6c0 20.6667 -7.83333 34.5 -23.5 41.5s-39.5 10.5 -71.5 10.5h-6c-15.3333 0 -39.3333 -2.33333 -72 -7h-2c-6.66667 0 -10 3.66667 -10 11v30c0 6 3.66667 9.66667 11 11c28 8 58.3333 12 91 12c46.6667 0 82.8333 -7.83333 108.5 -23.5
c25.6667 -15.6667 38.5 -42.1667 38.5 -79.5v-7z" />
    <glyph glyph-name="Zcaron" unicode="&#x17d;" horiz-adv-x="592" 
d="M543 18c0 -5.33301 -1.83301 -9.66699 -5.5 -13s-8.5 -5 -14.5 -5h-385c-27.333 0 -48 7 -62 21s-21 31.667 -21 53c0 19.333 5 36.667 15 52l358 521c2 2.66699 3 5.33301 3 8c0 4.66699 -3.33301 7 -10 7h-332c-5.33301 0 -10 1.5 -14 4.5s-6 7.16699 -6 12.5v47
c0 4.66699 2 8.66699 6 12s8.66699 5 14 5h356c18.667 0 34.333 -3.16699 47 -9.5s22.167 -15.167 28.5 -26.5s9.5 -23.333 9.5 -36c0 -19.333 -5.33301 -37 -16 -53l-357 -521c-2 -2.66699 -3 -5.66699 -3 -9c0 -4 3.33301 -6 10 -6h359c13.333 0 20 -5.66699 20 -17v-47z
M470 943c0 -4 -1.33301 -7.33301 -4 -10l-97 -124c-5.33301 -6.66699 -9.33301 -10.833 -12 -12.5s-7 -2.5 -13 -2.5h-85c-5.33301 0 -9.33301 0.833008 -12 2.5s-6.66699 5.83301 -12 12.5l-98 124c-2.66699 2.66699 -4 6 -4 10c0 4.66699 3 7 9 7h54
c4.66699 0 8 -0.833008 10 -2.5s6.33301 -6.16699 13 -13.5l83 -96l82 96c6.66699 7.33301 11 11.833 13 13.5s5.33301 2.5 10 2.5h54c6 0 9 -2.33301 9 -7z" />
    <glyph glyph-name="uni00B5" unicode="&#xb5;" horiz-adv-x="557" 
d="M489 44c0 -11.3333 -6.33333 -19 -19 -23c-24.6667 -8.66667 -53.6667 -15.5 -87 -20.5s-66 -7.5 -98 -7.5c-52.6667 0 -95.6667 9.66667 -129 29v-198c0 -6 -2 -10.8333 -6 -14.5s-8.66667 -5.5 -14 -5.5h-48c-4.66667 0 -9.16667 2 -13.5 6s-6.5 8.66667 -6.5 14v706
c0 5.33333 1.83333 10 5.5 14s8.16667 6 13.5 6h50c5.33333 0 9.83333 -1.83333 13.5 -5.5s5.5 -8.5 5.5 -14.5v-329c0 -46.6667 10.3333 -80.5 31 -101.5s53.3333 -31.5 98 -31.5c19.3333 0 39.8333 1.33333 61.5 4s39.8333 6 54.5 10v448c0 5.33333 2 10 6 14
s8.66667 6 14 6h49c5.33333 0 9.83333 -1.83333 13.5 -5.5s5.5 -8.5 5.5 -14.5v-486z" />
    <glyph glyph-name="paragraph" unicode="&#xb6;" horiz-adv-x="622" 
d="M557 -176c0 -4.66667 -1.66667 -9 -5 -13s-7.33333 -6 -12 -6h-23c-4.66667 0 -8.66667 2 -12 6s-5 8.33333 -5 13v865h-58v-865c0 -5.33333 -1.66667 -9.83333 -5 -13.5s-7.33333 -5.5 -12 -5.5h-23c-4.66667 0 -8.66667 2 -12 6s-5 8.33333 -5 13v439h-104
c-45.3333 0 -86.1667 8.66667 -122.5 26c-36.3333 17.3333 -64.3333 42.8333 -84 76.5c-19.6667 33.6667 -29.5 73.8333 -29.5 120.5v34c0 46.6667 9.83333 86.8333 29.5 120.5c19.6667 33.6667 47.5 59.1667 83.5 76.5s77 26 123 26h260c10.6667 0 16 -6.33333 16 -19v-900
z" />
    <glyph glyph-name="uni00B7" unicode="&#xb7;" horiz-adv-x="213" 
d="M150 345c0 -6 -1.83301 -10.833 -5.5 -14.5s-8.16699 -5.5 -13.5 -5.5h-48c-4.66699 0 -9 2 -13 6s-6 8.66699 -6 14v93c0 5.33301 1.83301 9.83301 5.5 13.5s8.16699 5.5 13.5 5.5h48c5.33301 0 9.83301 -1.66699 13.5 -5s5.5 -8 5.5 -14v-93z" />
    <glyph glyph-name="zcaron" unicode="&#x17e;" horiz-adv-x="481" 
d="M432 20c0 -5.33301 -2.16699 -10 -6.5 -14s-8.83301 -6 -13.5 -6h-264c-31.333 0 -55.667 5.16699 -73 15.5s-26 29.5 -26 57.5c0 25.333 7.66699 47.333 23 66l258 321c2.66699 4 4 7 4 9c0 4.66699 -3.33301 7 -10 7h-243c-5.33301 0 -10 2 -14 6s-6 8.66699 -6 14v34
c0 5.33301 1.83301 10 5.5 14s8.5 6 14.5 6h247c22.667 0 41.333 -2.16699 56 -6.5s25.667 -11.5 33 -21.5s11 -23.667 11 -41c0 -24 -7.33301 -44.667 -22 -62l-261 -326c-3.33301 -3.33301 -5 -7 -5 -11c0 -5.33301 3.33301 -8 10 -8h262c4.66699 0 9.16699 -2 13.5 -6
s6.5 -8.66699 6.5 -14v-34zM413 772c0 -4 -1.33301 -7.33301 -4 -10l-97 -124c-5.33301 -6.66699 -9.33301 -10.833 -12 -12.5s-7 -2.5 -13 -2.5h-85c-5.33301 0 -9.33301 0.833008 -12 2.5s-6.66699 5.83301 -12 12.5l-98 124c-2.66699 2.66699 -4 6 -4 10
c0 4.66699 3 7 9 7h54c4.66699 0 8 -0.833008 10 -2.5s6.33301 -6.16699 13 -13.5l83 -96l82 96c6.66699 7.33301 11 11.833 13 13.5s5.33301 2.5 10 2.5h54c6 0 9 -2.33301 9 -7z" />
    <glyph glyph-name="onesuperior" unicode="&#xb9;" horiz-adv-x="282" 
d="M192 345c0 -7.33333 -3.33333 -11 -10 -11h-45c-6 0 -9 3.66667 -9 11v334l-72 -31c-4 -1.33333 -6.33333 -2 -7 -2c-3.33333 0 -5 2 -5 6v42c0 4 2.33333 7 7 9l73 33c9.33333 4.66667 17.6667 7 25 7h32c3.33333 0 6 -1 8 -3s3 -4.33333 3 -7v-388z" />
    <glyph glyph-name="ordmasculine" unicode="&#xba;" horiz-adv-x="321" 
d="M291 566c0 -30.6667 -4.83333 -56.8333 -14.5 -78.5s-24.1667 -38.1667 -43.5 -49.5s-43 -17 -71 -17c-42 0 -74.1667 12.5 -96.5 37.5c-22.3333 25 -33.5 60.8333 -33.5 107.5v35c0 46.6667 11.1667 82.5 33.5 107.5c22.3333 25 54.5 37.5 96.5 37.5s74 -12.5 96 -37.5
s33 -60.8333 33 -107.5v-35zM230 566v35c0 31.3333 -5.33333 54.5 -16 69.5s-28 22.5 -52 22.5s-41.6667 -7.66667 -53 -23c-11.3333 -15.3333 -17 -38.3333 -17 -69v-35c0 -30.6667 5.66667 -53.8333 17 -69.5c11.3333 -15.6667 29 -23.5 53 -23.5s41.3333 7.83333 52 23.5
c10.6667 15.6667 16 38.8333 16 69.5z" />
    <glyph glyph-name="OE" unicode="&#x152;" horiz-adv-x="982" 
d="M928 15c0 -3.33333 -1 -6.5 -3 -9.5s-4.33333 -4.5 -7 -4.5c-12 -2 -38.1667 -4 -78.5 -6s-79.1667 -3 -116.5 -3c-98 0 -161.667 27.6667 -191 83c-23.3333 -27.3333 -52 -47.8333 -86 -61.5c-34 -13.6667 -72.3333 -20.5 -115 -20.5c-39.3333 0 -75.6667 6 -109 18
s-62.1667 31 -86.5 57c-24.3333 26 -43 59.1667 -56 99.5c-13 40.3333 -19.5 86.8333 -19.5 139.5v129c0 53.3333 6.5 100 19.5 140s31.6667 73 56 99c24.3333 26 53 45 86 57s69.5 18 109.5 18c42 0 80.1667 -6.83333 114.5 -20.5s63.1667 -34.1667 86.5 -61.5
c29.3333 54.6667 93 82 191 82c48.6667 0 89.1667 -0.833333 121.5 -2.5s56.8333 -3.83333 73.5 -6.5c2.66667 0 5 -1.5 7 -4.5s3 -6.16667 3 -9.5v-47c0 -8 -3.66667 -12 -11 -12h-193c-35.3333 0 -61.6667 -3.33333 -79 -10s-29 -17.3333 -35 -32s-9 -35.3333 -9 -62v-139
h307c5.33333 0 10 -2 14 -6s6 -8.66667 6 -14v-38c0 -5.33333 -2 -10 -6 -14s-8.66667 -6 -14 -6h-307v-169c0 -27.3333 3 -48.1667 9 -62.5c6 -14.3333 17.6667 -24.8333 35 -31.5s43.6667 -10 79 -10h193c7.33333 0 11 -4 11 -12v-47zM510 306v134
c0 44.6667 -5.33333 83.8333 -16 117.5s-29.3333 60.5 -56 80.5s-62.3333 30 -107 30c-38 0 -70.1667 -7.83333 -96.5 -23.5c-26.3333 -15.6667 -46.6667 -40.8333 -61 -75.5s-21.5 -79 -21.5 -133v-129c0 -54 7.16667 -98.3333 21.5 -133s34.6667 -59.8333 61 -75.5
c26.3333 -15.6667 58.5 -23.5 96.5 -23.5c119.333 0 179 77 179 231z" />
    <glyph glyph-name="oe" unicode="&#x153;" horiz-adv-x="900" 
d="M849 269c0 -14.6667 -6.33333 -22 -19 -22h-333v-12c0 -37.3333 5.66667 -68.6667 17 -94c11.3333 -25.3333 27.8333 -44 49.5 -56s48.1667 -18 79.5 -18c24.6667 0 53.3333 1.5 86 4.5s61 6.16667 85 9.5h5c10.6667 0 16 -4.66667 16 -14v-34
c0 -6.66667 -1.33333 -11.6667 -4 -15s-8 -6 -16 -8c-28 -5.33333 -55.6667 -9.5 -83 -12.5s-57 -4.5 -89 -4.5c-18 0 -35.6667 1.5 -53 4.5s-34.5 7.83333 -51.5 14.5c-17 6.66667 -32.6667 15.5 -47 26.5s-26.8333 23.8333 -37.5 38.5c-39.3333 -56 -99.3333 -84 -180 -84
c-71.3333 0 -126.167 22 -164.5 66c-38.3333 44 -57.5 103.333 -57.5 178v76c0 75.3333 19.1667 134.833 57.5 178.5c38.3333 43.6667 93.1667 65.5 164.5 65.5c81.3333 0 141.667 -28.6667 181 -86c18.6667 27.3333 43 48.5 73 63.5s64.3333 22.5 103 22.5
c36 0 67.6667 -6 95 -18s50.1667 -29 68.5 -51s32 -47.8333 41 -77.5s13.5 -62.8333 13.5 -99.5v-42zM762 314v5c0 54 -10.8333 94.6667 -32.5 122s-54.5 41 -98.5 41c-42 0 -74.8333 -14.3333 -98.5 -43c-23.6667 -28.6667 -35.5 -68.6667 -35.5 -120v-5h265zM410 237v76
c0 53.3333 -11.1667 94.5 -33.5 123.5s-56.5 43.5 -102.5 43.5c-44.6667 0 -78.1667 -14.5 -100.5 -43.5s-33.5 -70.1667 -33.5 -123.5v-76c0 -111.333 44.6667 -167 134 -167c45.3333 0 79.3333 14.5 102 43.5s34 70.1667 34 123.5z" />
    <glyph glyph-name="Ydieresis" unicode="&#x178;" horiz-adv-x="596" 
d="M556 729c0 -2.66699 -1 -6.33301 -3 -11l-209 -416v-282c0 -5.33301 -1.66699 -10 -5 -14s-7.66699 -6 -13 -6h-57c-4.66699 0 -8.66699 2 -12 6s-5 8.66699 -5 14v282l-209 416c-2 5.33301 -3 9.33301 -3 12c0 8.66699 5.33301 13 16 13h63
c6.66699 0 12.333 -4.66699 17 -14l162 -339l162 339c4 9.33301 9.66699 14 17 14h62c11.333 0 17 -4.66699 17 -14zM424 821c0 -5.33301 -2 -9.83301 -6 -13.5s-8.66699 -5.5 -14 -5.5h-39c-4.66699 0 -9.16699 1.83301 -13.5 5.5s-6.5 8.16699 -6.5 13.5v81
c0 4.66699 2.16699 9.16699 6.5 13.5s8.83301 6.5 13.5 6.5h39c5.33301 0 10 -2 14 -6s6 -8.66699 6 -14v-81zM249 821c0 -5.33301 -2.16699 -9.83301 -6.5 -13.5s-8.83301 -5.5 -13.5 -5.5h-39c-5.33301 0 -10 1.83301 -14 5.5s-6 8.16699 -6 13.5v81
c0 4.66699 2 9.16699 6 13.5s8.66699 6.5 14 6.5h39c4.66699 0 9.16699 -2 13.5 -6s6.5 -8.66699 6.5 -14v-81z" />
    <glyph glyph-name="questiondown" unicode="&#xbf;" horiz-adv-x="445" 
d="M328 438c0 -4.66667 -2 -9.16667 -6 -13.5s-8.66667 -6.5 -14 -6.5h-48c-4.66667 0 -9 2 -13 6s-6 8.66667 -6 14v93c0 12.6667 6.33333 19 19 19h48c4.66667 0 9.16667 -1.83333 13.5 -5.5s6.5 -8.16667 6.5 -13.5v-93zM406 -165c0 -7.33333 -1 -12.6667 -3 -16
s-6.66667 -5.66667 -14 -7c-46 -8.66667 -91.3333 -13 -136 -13c-133.333 0 -200 50.3333 -200 151v12c0 16 2.5 31.8333 7.5 47.5c5 15.6667 13.6667 32.8333 26 51.5c12.3333 18.6667 31.5 42.6667 57.5 72l45 51c21.3333 24.6667 35.5 43 42.5 55s10.5 28 10.5 48v49
c0 5.33333 1.83333 9.83333 5.5 13.5s8.5 5.5 14.5 5.5h44c5.33333 0 9.83333 -1.83333 13.5 -5.5s5.5 -8.16667 5.5 -13.5v-49c0 -32 -4.5 -58 -13.5 -78s-26.5 -44.3333 -52.5 -73l-46 -51c-24.6667 -26.6667 -41.1667 -48.6667 -49.5 -66
c-8.33333 -17.3333 -12.5 -36.3333 -12.5 -57v-12c0 -26 8.16667 -44.5 24.5 -55.5s42.1667 -16.5 77.5 -16.5c21.3333 0 41.3333 0.666667 60 2s43.6667 3.66667 75 7h3c10 0 15 -5.66667 15 -17v-35z" />
    <glyph glyph-name="Agrave" unicode="&#xc0;" horiz-adv-x="644" 
d="M566 20c0 -5.33301 -1.66699 -10 -5 -14s-7.66699 -6 -13 -6h-55c-5.33301 0 -9.66699 1.83301 -13 5.5s-5 8.5 -5 14.5v296h-306v-296c0 -6 -1.66699 -10.833 -5 -14.5s-7.66699 -5.5 -13 -5.5h-55c-5.33301 0 -9.66699 2 -13 6s-5 8.66699 -5 14v523
c0 50.667 7.83301 91 23.5 121s39.167 51.833 70.5 65.5s71.667 20.5 121 20.5h58c48.667 0 88.833 -6.83301 120.5 -20.5s55.333 -35.5 71 -65.5s23.5 -70.333 23.5 -121v-523zM475 396v147c0 34.667 -3.83301 61 -11.5 79s-20.333 30.5 -38 37.5s-42.5 10.5 -74.5 10.5
h-58c-46.667 0 -79 -8.5 -97 -25.5s-27 -50.833 -27 -101.5v-147h306zM385 801c0 -4.66699 -3 -7 -9 -7h-54c-4.66699 0 -8.16699 0.833008 -10.5 2.5s-6.5 5.83301 -12.5 12.5l-113 126c-2.66699 2.66699 -4 5.33301 -4 8c0 4.66699 3.66699 7 11 7h66
c5.33301 0 9.66699 -1 13 -3s7.33301 -6 12 -12l97 -124c2.66699 -2.66699 4 -6 4 -10z" />
    <glyph glyph-name="Aacute" unicode="&#xc1;" horiz-adv-x="644" 
d="M566 20c0 -5.33301 -1.66699 -10 -5 -14s-7.66699 -6 -13 -6h-55c-5.33301 0 -9.66699 1.83301 -13 5.5s-5 8.5 -5 14.5v296h-306v-296c0 -6 -1.66699 -10.833 -5 -14.5s-7.66699 -5.5 -13 -5.5h-55c-5.33301 0 -9.66699 2 -13 6s-5 8.66699 -5 14v523
c0 50.667 7.83301 91 23.5 121s39.167 51.833 70.5 65.5s71.667 20.5 121 20.5h58c48.667 0 88.833 -6.83301 120.5 -20.5s55.333 -35.5 71 -65.5s23.5 -70.333 23.5 -121v-523zM475 396v147c0 34.667 -3.83301 61 -11.5 79s-20.333 30.5 -38 37.5s-42.5 10.5 -74.5 10.5
h-58c-46.667 0 -79 -8.5 -97 -25.5s-27 -50.833 -27 -101.5v-147h306zM469 943c0 -2.66699 -1.33301 -5.33301 -4 -8l-113 -126c-6 -6.66699 -10.167 -10.833 -12.5 -12.5s-5.83301 -2.5 -10.5 -2.5h-54c-6 0 -9 2.33301 -9 7c0 4 1.33301 7.33301 4 10l98 124
c6 6.66699 10.167 10.833 12.5 12.5s6.16699 2.5 11.5 2.5h66c7.33301 0 11 -2.33301 11 -7z" />
    <glyph glyph-name="Acircumflex" unicode="&#xc2;" horiz-adv-x="644" 
d="M566 20c0 -5.33301 -1.66699 -10 -5 -14s-7.66699 -6 -13 -6h-55c-5.33301 0 -9.66699 1.83301 -13 5.5s-5 8.5 -5 14.5v296h-306v-296c0 -6 -1.66699 -10.833 -5 -14.5s-7.66699 -5.5 -13 -5.5h-55c-5.33301 0 -9.66699 2 -13 6s-5 8.66699 -5 14v523
c0 50.667 7.83301 91 23.5 121s39.167 51.833 70.5 65.5s71.667 20.5 121 20.5h58c48.667 0 88.833 -6.83301 120.5 -20.5s55.333 -35.5 71 -65.5s23.5 -70.333 23.5 -121v-523zM475 396v147c0 34.667 -3.83301 61 -11.5 79s-20.333 30.5 -38 37.5s-42.5 10.5 -74.5 10.5
h-58c-46.667 0 -79 -8.5 -97 -25.5s-27 -50.833 -27 -101.5v-147h306zM488 801c0 -4.66699 -3 -7 -9 -7h-52c-4.66699 0 -8.16699 0.833008 -10.5 2.5s-6.5 5.83301 -12.5 12.5l-82 97l-83 -97c-6 -6.66699 -10.167 -10.833 -12.5 -12.5s-5.83301 -2.5 -10.5 -2.5h-52
c-6 0 -9 2.33301 -9 7c0 4 1.33301 7.33301 4 10l96 124c5.33301 6.66699 9.33301 10.833 12 12.5s6.66699 2.5 12 2.5h85c8.66699 0 17 -5 25 -15l95 -124c2.66699 -2.66699 4 -6 4 -10z" />
    <glyph glyph-name="Atilde" unicode="&#xc3;" horiz-adv-x="644" 
d="M566 20c0 -5.33301 -1.66699 -10 -5 -14s-7.66699 -6 -13 -6h-55c-5.33301 0 -9.66699 1.83301 -13 5.5s-5 8.5 -5 14.5v296h-306v-296c0 -6 -1.66699 -10.833 -5 -14.5s-7.66699 -5.5 -13 -5.5h-55c-5.33301 0 -9.66699 2 -13 6s-5 8.66699 -5 14v523
c0 50.667 7.83301 91 23.5 121s39.167 51.833 70.5 65.5s71.667 20.5 121 20.5h58c48.667 0 88.833 -6.83301 120.5 -20.5s55.333 -35.5 71 -65.5s23.5 -70.333 23.5 -121v-523zM475 396v147c0 34.667 -3.83301 61 -11.5 79s-20.333 30.5 -38 37.5s-42.5 10.5 -74.5 10.5
h-58c-46.667 0 -79 -8.5 -97 -25.5s-27 -50.833 -27 -101.5v-147h306zM497 894c0 -35.333 -7.33301 -61.667 -22 -79s-38.667 -26 -72 -26c-25.333 0 -46.667 7 -64 21l-61 49c-12 9.33301 -20.333 15.333 -25 18s-10 4 -16 4c-12 0 -20.167 -3.83301 -24.5 -11.5
s-6.5 -19.167 -6.5 -34.5v-21c0 -4.66699 -1.66699 -8.66699 -5 -12s-7.33301 -5 -12 -5h-31c-4.66699 0 -8.5 1.83301 -11.5 5.5s-4.5 7.5 -4.5 11.5v21c0 35.333 8.33301 62.333 25 81s40 28 70 28c19.333 0 39.333 -8 60 -24l71 -56
c5.33301 -4.66699 11.333 -8.16699 18 -10.5s12.333 -3.5 17 -3.5c10.667 0 18.333 3.33301 23 10s7 18 7 34v23c0 4 1.83301 7.83301 5.5 11.5s7.5 5.5 11.5 5.5h31c4.66699 0 8.5 -1.66699 11.5 -5s4.5 -7.33301 4.5 -12v-23z" />
    <glyph glyph-name="Adieresis" unicode="&#xc4;" horiz-adv-x="644" 
d="M566 20c0 -5.33301 -1.66699 -10 -5 -14s-7.66699 -6 -13 -6h-55c-5.33301 0 -9.66699 1.83301 -13 5.5s-5 8.5 -5 14.5v296h-306v-296c0 -6 -1.66699 -10.833 -5 -14.5s-7.66699 -5.5 -13 -5.5h-55c-5.33301 0 -9.66699 2 -13 6s-5 8.66699 -5 14v523
c0 50.667 7.83301 91 23.5 121s39.167 51.833 70.5 65.5s71.667 20.5 121 20.5h58c48.667 0 88.833 -6.83301 120.5 -20.5s55.333 -35.5 71 -65.5s23.5 -70.333 23.5 -121v-523zM475 396v147c0 34.667 -3.83301 61 -11.5 79s-20.333 30.5 -38 37.5s-42.5 10.5 -74.5 10.5
h-58c-46.667 0 -79 -8.5 -97 -25.5s-27 -50.833 -27 -101.5v-147h306zM450 827c0 -5.33301 -2 -9.83301 -6 -13.5s-8.66699 -5.5 -14 -5.5h-39c-4.66699 0 -9.16699 1.83301 -13.5 5.5s-6.5 8.16699 -6.5 13.5v81c0 4.66699 2.16699 9.16699 6.5 13.5s8.83301 6.5 13.5 6.5
h39c5.33301 0 10 -2 14 -6s6 -8.66699 6 -14v-81zM275 827c0 -5.33301 -2.16699 -9.83301 -6.5 -13.5s-8.83301 -5.5 -13.5 -5.5h-39c-5.33301 0 -10 1.83301 -14 5.5s-6 8.16699 -6 13.5v81c0 4.66699 2 9.16699 6 13.5s8.66699 6.5 14 6.5h39
c4.66699 0 9.16699 -2 13.5 -6s6.5 -8.66699 6.5 -14v-81z" />
    <glyph glyph-name="Aring" unicode="&#xc5;" horiz-adv-x="644" 
d="M566 20c0 -5.33301 -1.66699 -10 -5 -14s-7.66699 -6 -13 -6h-55c-5.33301 0 -9.66699 1.83301 -13 5.5s-5 8.5 -5 14.5v296h-306v-296c0 -6 -1.66699 -10.833 -5 -14.5s-7.66699 -5.5 -13 -5.5h-55c-5.33301 0 -9.66699 2 -13 6s-5 8.66699 -5 14v523
c0 50.667 7.83301 91 23.5 121s39.167 51.833 70.5 65.5s71.667 20.5 121 20.5h58c48.667 0 88.833 -6.83301 120.5 -20.5s55.333 -35.5 71 -65.5s23.5 -70.333 23.5 -121v-523zM475 396v147c0 34.667 -3.83301 61 -11.5 79s-20.333 30.5 -38 37.5s-42.5 10.5 -74.5 10.5
h-58c-46.667 0 -79 -8.5 -97 -25.5s-27 -50.833 -27 -101.5v-147h306zM427 878c0 -28 -9.83301 -51.833 -29.5 -71.5s-43.5 -29.5 -71.5 -29.5c-18.667 0 -35.833 4.5 -51.5 13.5s-28 21.167 -37 36.5s-13.5 32.333 -13.5 51s4.5 35.667 13.5 51s21.333 27.667 37 37
s32.833 14 51.5 14s35.667 -4.5 51 -13.5s27.5 -21.333 36.5 -37s13.5 -32.833 13.5 -51.5zM379 879c0 14.667 -5.33301 27 -16 37s-23 15 -37 15s-26.167 -5 -36.5 -15s-15.5 -22.333 -15.5 -37c0 -14 5.16699 -26.333 15.5 -37s22.5 -16 36.5 -16
c14.667 0 27.167 5.16699 37.5 15.5s15.5 22.833 15.5 37.5z" />
    <glyph glyph-name="AE" unicode="&#xc6;" horiz-adv-x="948" 
d="M893 17c0 -3.33333 -0.833333 -6.5 -2.5 -9.5s-4.16667 -4.5 -7.5 -4.5c-38.6667 -6 -103.667 -9 -195 -9c-71.3333 0 -124.667 14.6667 -160 44c-35.3333 29.3333 -53 76.6667 -53 142v136h-306v-296c0 -6 -1.66667 -10.8333 -5 -14.5
c-3.33333 -3.66667 -7.66667 -5.5 -13 -5.5h-55c-5.33333 0 -9.66667 2 -13 6s-5 8.66667 -5 14v523c0 50.6667 7.83333 91 23.5 121c15.6667 30 39.1667 51.8333 70.5 65.5s71.6667 20.5 121 20.5h58c77.3333 0 133 -17 167 -51c34 35.3333 90.6667 53 170 53
c48.6667 0 89.1667 -0.833333 121.5 -2.5s56.8333 -3.83333 73.5 -6.5c3.33333 0 5.83333 -1.5 7.5 -4.5s2.5 -6.16667 2.5 -9.5v-47c0 -8 -3.66667 -12 -11 -12h-193c-34 0 -59.6667 -2.83333 -77 -8.5s-29.3333 -16.6667 -36 -33s-10 -40.5 -10 -72.5v-129h307
c5.33333 0 10 -2 14 -6s6 -8.66667 6 -14v-38c0 -5.33333 -2.16667 -10 -6.5 -14s-8.83333 -6 -13.5 -6h-307v-169c0 -27.3333 2.83333 -48.1667 8.5 -62.5c5.66667 -14.3333 17.3333 -24.8333 35 -31.5s44.1667 -10 79.5 -10h193c7.33333 0 11 -4 11 -12v-47zM475 396v160
c0 44.6667 -9.33333 74.8333 -28 90.5s-50.6667 23.5 -96 23.5h-58c-46.6667 0 -79 -8.5 -97 -25.5s-27 -50.8333 -27 -101.5v-147h306z" />
    <glyph glyph-name="Ccedilla" unicode="&#xc7;" horiz-adv-x="544" 
d="M510 26c0 -11.3333 -6.66667 -18 -20 -20c-45.3333 -8.66667 -100.667 -13 -166 -13c-32.6667 0 -64.6667 5.16667 -96 15.5c-31.3333 10.3333 -59.5 27.1667 -84.5 50.5c-25 23.3333 -45.1667 55.1667 -60.5 95.5c-15.3333 40.3333 -23 89.5 -23 147.5v139
c0 76 12.8333 137.167 38.5 183.5c25.6667 46.3333 58.1667 78.8333 97.5 97.5s82 28 128 28c47.3333 0 103.333 -5.33333 168 -16c10.6667 -1.33333 16 -5.66667 16 -13v-51c0 -7.33333 -4 -11 -12 -11h-3c-72 6 -128 9 -168 9c-54 0 -96.5 -17.8333 -127.5 -53.5
s-46.5 -93.5 -46.5 -173.5v-139c0 -79.3333 15.6667 -137 47 -173s73.6667 -54 127 -54c46 0 101 2.66667 165 8h4c10.6667 0 16 -5.33333 16 -16v-41zM381 -39c0 -2.66667 -1.33333 -5.33333 -4 -8l-113 -126c-5.33333 -6 -9.33333 -10 -12 -12s-6.33333 -3 -11 -3h-54
c-6 0 -9 2.33333 -9 7c0 2.66667 1.33333 6 4 10l97 124c8.66667 10 17 15 25 15h66c7.33333 0 11 -2.33333 11 -7z" />
    <glyph glyph-name="Egrave" unicode="&#xc8;" horiz-adv-x="550" 
d="M496 12c0 -8.66699 -3.33301 -13.333 -10 -14c-31.333 -3.33301 -96.333 -5 -195 -5c-71.333 0 -124.667 14.667 -160 44s-53 76.667 -53 142v385c0 65.333 17.667 112.667 53 142s88.667 44 160 44c28.667 0 52.333 -0.166992 71 -0.5s41.333 -1 68 -2
s45.333 -2.16699 56 -3.5c3.33301 0 5.83301 -1.5 7.5 -4.5s2.5 -6.16699 2.5 -9.5v-50c0 -8 -3.66699 -12 -11 -12h-193c-35.333 0 -61.667 -3.33301 -79 -10s-29 -17.333 -35 -32s-9 -35.333 -9 -62v-139h307c5.33301 0 10 -2 14 -6s6 -8.66699 6 -14v-38
c0 -5.33301 -2.16699 -10 -6.5 -14s-8.83301 -6 -13.5 -6h-307v-168c0 -27.333 3 -48.167 9 -62.5s17.667 -24.833 35 -31.5s43.667 -10 79 -10h193c7.33301 0 11 -4 11 -12v-51zM359 800c0 -4.66699 -3 -7 -9 -7h-54c-4.66699 0 -8.16699 0.833008 -10.5 2.5
s-6.5 5.83301 -12.5 12.5l-113 126c-2.66699 2.66699 -4 5.33301 -4 8c0 4.66699 3.66699 7 11 7h66c5.33301 0 9.66699 -1 13 -3s7.33301 -6 12 -12l97 -124c2.66699 -2.66699 4 -6 4 -10z" />
    <glyph glyph-name="Eacute" unicode="&#xc9;" horiz-adv-x="550" 
d="M496 12c0 -8.66699 -3.33301 -13.333 -10 -14c-31.333 -3.33301 -96.333 -5 -195 -5c-71.333 0 -124.667 14.667 -160 44s-53 76.667 -53 142v385c0 65.333 17.667 112.667 53 142s88.667 44 160 44c28.667 0 52.333 -0.166992 71 -0.5s41.333 -1 68 -2
s45.333 -2.16699 56 -3.5c3.33301 0 5.83301 -1.5 7.5 -4.5s2.5 -6.16699 2.5 -9.5v-50c0 -8 -3.66699 -12 -11 -12h-193c-35.333 0 -61.667 -3.33301 -79 -10s-29 -17.333 -35 -32s-9 -35.333 -9 -62v-139h307c5.33301 0 10 -2 14 -6s6 -8.66699 6 -14v-38
c0 -5.33301 -2.16699 -10 -6.5 -14s-8.83301 -6 -13.5 -6h-307v-168c0 -27.333 3 -48.167 9 -62.5s17.667 -24.833 35 -31.5s43.667 -10 79 -10h193c7.33301 0 11 -4 11 -12v-51zM436 943c0 -2.66699 -1.33301 -5.33301 -4 -8l-113 -126
c-6 -6.66699 -10.167 -10.833 -12.5 -12.5s-5.83301 -2.5 -10.5 -2.5h-54c-6 0 -9 2.33301 -9 7c0 4 1.33301 7.33301 4 10l98 124c6 6.66699 10.167 10.833 12.5 12.5s6.16699 2.5 11.5 2.5h66c7.33301 0 11 -2.33301 11 -7z" />
    <glyph glyph-name="Ecircumflex" unicode="&#xca;" horiz-adv-x="550" 
d="M496 12c0 -8.66699 -3.33301 -13.333 -10 -14c-31.333 -3.33301 -96.333 -5 -195 -5c-71.333 0 -124.667 14.667 -160 44s-53 76.667 -53 142v385c0 65.333 17.667 112.667 53 142s88.667 44 160 44c28.667 0 52.333 -0.166992 71 -0.5s41.333 -1 68 -2
s45.333 -2.16699 56 -3.5c3.33301 0 5.83301 -1.5 7.5 -4.5s2.5 -6.16699 2.5 -9.5v-50c0 -8 -3.66699 -12 -11 -12h-193c-35.333 0 -61.667 -3.33301 -79 -10s-29 -17.333 -35 -32s-9 -35.333 -9 -62v-139h307c5.33301 0 10 -2 14 -6s6 -8.66699 6 -14v-38
c0 -5.33301 -2.16699 -10 -6.5 -14s-8.83301 -6 -13.5 -6h-307v-168c0 -27.333 3 -48.167 9 -62.5s17.667 -24.833 35 -31.5s43.667 -10 79 -10h193c7.33301 0 11 -4 11 -12v-51zM456 801c0 -4.66699 -3 -7 -9 -7h-52c-4.66699 0 -8.16699 0.833008 -10.5 2.5
s-6.5 5.83301 -12.5 12.5l-82 97l-83 -97c-6 -6.66699 -10.167 -10.833 -12.5 -12.5s-5.83301 -2.5 -10.5 -2.5h-52c-6 0 -9 2.33301 -9 7c0 4 1.33301 7.33301 4 10l96 124c5.33301 6.66699 9.33301 10.833 12 12.5s6.66699 2.5 12 2.5h85c8.66699 0 17 -5 25 -15l95 -124
c2.66699 -2.66699 4 -6 4 -10z" />
    <glyph glyph-name="Edieresis" unicode="&#xcb;" horiz-adv-x="550" 
d="M496 12c0 -8.66699 -3.33301 -13.333 -10 -14c-31.333 -3.33301 -96.333 -5 -195 -5c-71.333 0 -124.667 14.667 -160 44s-53 76.667 -53 142v385c0 65.333 17.667 112.667 53 142s88.667 44 160 44c28.667 0 52.333 -0.166992 71 -0.5s41.333 -1 68 -2
s45.333 -2.16699 56 -3.5c3.33301 0 5.83301 -1.5 7.5 -4.5s2.5 -6.16699 2.5 -9.5v-50c0 -8 -3.66699 -12 -11 -12h-193c-35.333 0 -61.667 -3.33301 -79 -10s-29 -17.333 -35 -32s-9 -35.333 -9 -62v-139h307c5.33301 0 10 -2 14 -6s6 -8.66699 6 -14v-38
c0 -5.33301 -2.16699 -10 -6.5 -14s-8.83301 -6 -13.5 -6h-307v-168c0 -27.333 3 -48.167 9 -62.5s17.667 -24.833 35 -31.5s43.667 -10 79 -10h193c7.33301 0 11 -4 11 -12v-51zM424 829c0 -5.33301 -2 -9.83301 -6 -13.5s-8.66699 -5.5 -14 -5.5h-39
c-4.66699 0 -9.16699 1.83301 -13.5 5.5s-6.5 8.16699 -6.5 13.5v81c0 4.66699 2.16699 9.16699 6.5 13.5s8.83301 6.5 13.5 6.5h39c5.33301 0 10 -2 14 -6s6 -8.66699 6 -14v-81zM249 829c0 -5.33301 -2.16699 -9.83301 -6.5 -13.5s-8.83301 -5.5 -13.5 -5.5h-39
c-5.33301 0 -10 1.83301 -14 5.5s-6 8.16699 -6 13.5v81c0 4.66699 2 9.16699 6 13.5s8.66699 6.5 14 6.5h39c4.66699 0 9.16699 -2 13.5 -6s6.5 -8.66699 6.5 -14v-81z" />
    <glyph glyph-name="Igrave" unicode="&#xcc;" horiz-adv-x="267" 
d="M179 20c0 -5.33301 -1.66699 -10 -5 -14s-7.66699 -6 -13 -6h-55c-4.66699 0 -8.83301 1.83301 -12.5 5.5s-5.5 8.5 -5.5 14.5v704c0 4.66699 1.83301 9 5.5 13s7.83301 6 12.5 6h55c4.66699 0 8.83301 -1.83301 12.5 -5.5s5.5 -8.16699 5.5 -13.5v-704zM195 801
c0 -4.66699 -3 -7 -9 -7h-54c-4.66699 0 -8.16699 0.833008 -10.5 2.5s-6.5 5.83301 -12.5 12.5l-113 126c-2.66699 2.66699 -4 5.33301 -4 8c0 4.66699 3.66699 7 11 7h66c5.33301 0 9.66699 -1 13 -3s7.33301 -6 12 -12l97 -124c2.66699 -2.66699 4 -6 4 -10z" />
    <glyph glyph-name="Iacute" unicode="&#xcd;" horiz-adv-x="267" 
d="M179 20c0 -5.33301 -1.66699 -10 -5 -14s-7.66699 -6 -13 -6h-55c-4.66699 0 -8.83301 1.83301 -12.5 5.5s-5.5 8.5 -5.5 14.5v704c0 4.66699 1.83301 9 5.5 13s7.83301 6 12.5 6h55c4.66699 0 8.83301 -1.83301 12.5 -5.5s5.5 -8.16699 5.5 -13.5v-704zM266 943
c0 -2.66699 -1.33301 -5.33301 -4 -8l-113 -126c-6 -6.66699 -10.167 -10.833 -12.5 -12.5s-5.83301 -2.5 -10.5 -2.5h-54c-6 0 -9 2.33301 -9 7c0 4 1.33301 7.33301 4 10l98 124c6 6.66699 10.167 10.833 12.5 12.5s6.16699 2.5 11.5 2.5h66c7.33301 0 11 -2.33301 11 -7z
" />
    <glyph glyph-name="Icircumflex" unicode="&#xce;" horiz-adv-x="267" 
d="M179 20c0 -5.33301 -1.66699 -10 -5 -14s-7.66699 -6 -13 -6h-55c-4.66699 0 -8.83301 1.83301 -12.5 5.5s-5.5 8.5 -5.5 14.5v704c0 4.66699 1.83301 9 5.5 13s7.83301 6 12.5 6h55c4.66699 0 8.83301 -1.83301 12.5 -5.5s5.5 -8.16699 5.5 -13.5v-704zM296 801
c0 -4.66699 -3 -7 -9 -7h-52c-4.66699 0 -8.16699 0.833008 -10.5 2.5s-6.5 5.83301 -12.5 12.5l-82 97l-83 -97c-6 -6.66699 -10.167 -10.833 -12.5 -12.5s-5.83301 -2.5 -10.5 -2.5h-52c-6 0 -9 2.33301 -9 7c0 4 1.33301 7.33301 4 10l96 124
c5.33301 6.66699 9.33301 10.833 12 12.5s6.66699 2.5 12 2.5h85c8.66699 0 17 -5 25 -15l95 -124c2.66699 -2.66699 4 -6 4 -10z" />
    <glyph glyph-name="Idieresis" unicode="&#xcf;" horiz-adv-x="267" 
d="M179 20c0 -5.33301 -1.66699 -10 -5 -14s-7.66699 -6 -13 -6h-55c-4.66699 0 -8.83301 1.83301 -12.5 5.5s-5.5 8.5 -5.5 14.5v704c0 4.66699 1.83301 9 5.5 13s7.83301 6 12.5 6h55c4.66699 0 8.83301 -1.83301 12.5 -5.5s5.5 -8.16699 5.5 -13.5v-704zM261 828
c0 -5.33301 -2 -9.83301 -6 -13.5s-8.66699 -5.5 -14 -5.5h-39c-4.66699 0 -9.16699 1.83301 -13.5 5.5s-6.5 8.16699 -6.5 13.5v81c0 4.66699 2.16699 9.16699 6.5 13.5s8.83301 6.5 13.5 6.5h39c5.33301 0 10 -2 14 -6s6 -8.66699 6 -14v-81zM86 828
c0 -5.33301 -2.16699 -9.83301 -6.5 -13.5s-8.83301 -5.5 -13.5 -5.5h-39c-5.33301 0 -10 1.83301 -14 5.5s-6 8.16699 -6 13.5v81c0 4.66699 2 9.16699 6 13.5s8.66699 6.5 14 6.5h39c4.66699 0 9.16699 -2 13.5 -6s6.5 -8.66699 6.5 -14v-81z" />
    <glyph glyph-name="Eth" unicode="&#xd0;" horiz-adv-x="641" 
d="M584 304c0 -104.667 -26.6667 -182.667 -80 -234c-53.3333 -51.3333 -127.667 -77 -223 -77c-25.3333 0 -51.5 0.666667 -78.5 2c-27 1.33333 -47.5 2.5 -61.5 3.5s-28 2.5 -42 4.5s-21 10.3333 -21 25v319h-38c-5.33333 0 -10 2 -14 6s-6 8.66667 -6 14v38
c0 5.33333 1.83333 10 5.5 14s8.5 6 14.5 6h38v290c0 14 7 22.3333 21 25c14 2 28 3.66667 42 5s34.5 2.5 61.5 3.5s53.1667 1.5 78.5 1.5c63.3333 0 117.5 -11 162.5 -33s79.6667 -56.5 104 -103.5s36.5 -105.167 36.5 -174.5v-135zM493 304v135
c0 57.3333 -9 103.333 -27 138s-42.6667 59.1667 -74 73.5s-68.3333 21.5 -111 21.5c-40.6667 0 -77.6667 -1 -111 -3v-244h103c6 0 10.8333 -1.83333 14.5 -5.5s5.5 -8.5 5.5 -14.5v-38c0 -6 -2 -10.8333 -6 -14.5s-8.66667 -5.5 -14 -5.5h-103v-274
c21.3333 -1.33333 58.3333 -2 111 -2c66.6667 0 118.667 17.6667 156 53c37.3333 35.3333 56 95.3333 56 180z" />
    <glyph glyph-name="Ntilde" unicode="&#xd1;" horiz-adv-x="680" 
d="M602 78c0 -33.333 -6.66699 -55.333 -20 -66s-32.333 -16 -57 -16h-22c-17.333 0 -31.333 3.66699 -42 11s-21 22 -31 44l-254 591c-3.33301 7.33301 -5.66699 11 -7 11c-2.66699 0 -4 -3.66699 -4 -11v-625c0 -5.33301 -1.66699 -9.5 -5 -12.5s-7.33301 -4.5 -12 -4.5
h-53c-11.333 0 -17 6.66699 -17 20v643c0 33.333 6.83301 55.333 20.5 66s32.5 16 56.5 16h22c16 0 30 -4 42 -12s22.667 -23 32 -45l251 -590c1.33301 -2.66699 2.66699 -5.16699 4 -7.5s3 -3.5 5 -3.5c2.66699 0 4 5 4 15v624c0 4.66699 1.83301 8.66699 5.5 12
s7.5 5 11.5 5h53c11.333 0 17 -6.66699 17 -20v-645zM523 892c0 -35.333 -7.33301 -61.667 -22 -79s-38.667 -26 -72 -26c-25.333 0 -46.667 7 -64 21l-61 49c-12 9.33301 -20.333 15.333 -25 18s-10 4 -16 4c-12 0 -20.167 -3.83301 -24.5 -11.5s-6.5 -19.167 -6.5 -34.5
v-21c0 -4.66699 -1.66699 -8.66699 -5 -12s-7.33301 -5 -12 -5h-31c-4.66699 0 -8.5 1.83301 -11.5 5.5s-4.5 7.5 -4.5 11.5v21c0 35.333 8.33301 62.333 25 81s40 28 70 28c19.333 0 39.333 -8 60 -24l71 -56c5.33301 -4.66699 11.333 -8.16699 18 -10.5
s12.333 -3.5 17 -3.5c10.667 0 18.333 3.33301 23 10s7 18 7 34v23c0 4 1.83301 7.83301 5.5 11.5s7.5 5.5 11.5 5.5h31c4.66699 0 8.5 -1.66699 11.5 -5s4.5 -7.33301 4.5 -12v-23z" />
    <glyph glyph-name="Ograve" unicode="&#xd2;" horiz-adv-x="661" 
d="M601 307c0 -54.667 -6.5 -101.833 -19.5 -141.5s-31.5 -72.333 -55.5 -98s-52.5 -44.5 -85.5 -56.5s-69.5 -18 -109.5 -18c-39.333 0 -75.667 6 -109 18s-62.167 31 -86.5 57s-43 59.167 -56 99.5s-19.5 86.833 -19.5 139.5v129c0 53.333 6.5 100 19.5 140
s31.667 73 56 99s53 45 86 57s69.5 18 109.5 18s76.333 -6 109 -18s61.167 -30.833 85.5 -56.5s43 -58.333 56 -98s19.5 -86.833 19.5 -141.5v-129zM509 307v129c0 40.667 -4.16699 76.167 -12.5 106.5s-20 54.5 -35 72.5s-33.333 31.333 -55 40s-46.833 13 -75.5 13
c-119.333 0 -179 -77.333 -179 -232v-129c0 -54 7.16699 -98.333 21.5 -133s34.667 -59.833 61 -75.5s58.5 -23.5 96.5 -23.5c118.667 0 178 77.333 178 232zM396 801c0 -4.66699 -3 -7 -9 -7h-54c-4.66699 0 -8.16699 0.833008 -10.5 2.5s-6.5 5.83301 -12.5 12.5l-113 126
c-2.66699 2.66699 -4 5.33301 -4 8c0 4.66699 3.66699 7 11 7h66c5.33301 0 9.66699 -1 13 -3s7.33301 -6 12 -12l97 -124c2.66699 -2.66699 4 -6 4 -10z" />
    <glyph glyph-name="Oacute" unicode="&#xd3;" horiz-adv-x="661" 
d="M601 307c0 -54.667 -6.5 -101.833 -19.5 -141.5s-31.5 -72.333 -55.5 -98s-52.5 -44.5 -85.5 -56.5s-69.5 -18 -109.5 -18c-39.333 0 -75.667 6 -109 18s-62.167 31 -86.5 57s-43 59.167 -56 99.5s-19.5 86.833 -19.5 139.5v129c0 53.333 6.5 100 19.5 140
s31.667 73 56 99s53 45 86 57s69.5 18 109.5 18s76.333 -6 109 -18s61.167 -30.833 85.5 -56.5s43 -58.333 56 -98s19.5 -86.833 19.5 -141.5v-129zM509 307v129c0 40.667 -4.16699 76.167 -12.5 106.5s-20 54.5 -35 72.5s-33.333 31.333 -55 40s-46.833 13 -75.5 13
c-119.333 0 -179 -77.333 -179 -232v-129c0 -54 7.16699 -98.333 21.5 -133s34.667 -59.833 61 -75.5s58.5 -23.5 96.5 -23.5c118.667 0 178 77.333 178 232zM457 943c0 -2.66699 -1.33301 -5.33301 -4 -8l-113 -126c-6 -6.66699 -10.167 -10.833 -12.5 -12.5
s-5.83301 -2.5 -10.5 -2.5h-54c-6 0 -9 2.33301 -9 7c0 4 1.33301 7.33301 4 10l98 124c6 6.66699 10.167 10.833 12.5 12.5s6.16699 2.5 11.5 2.5h66c7.33301 0 11 -2.33301 11 -7z" />
    <glyph glyph-name="Ocircumflex" unicode="&#xd4;" horiz-adv-x="661" 
d="M601 307c0 -54.667 -6.5 -101.833 -19.5 -141.5s-31.5 -72.333 -55.5 -98s-52.5 -44.5 -85.5 -56.5s-69.5 -18 -109.5 -18c-39.333 0 -75.667 6 -109 18s-62.167 31 -86.5 57s-43 59.167 -56 99.5s-19.5 86.833 -19.5 139.5v129c0 53.333 6.5 100 19.5 140
s31.667 73 56 99s53 45 86 57s69.5 18 109.5 18s76.333 -6 109 -18s61.167 -30.833 85.5 -56.5s43 -58.333 56 -98s19.5 -86.833 19.5 -141.5v-129zM509 307v129c0 40.667 -4.16699 76.167 -12.5 106.5s-20 54.5 -35 72.5s-33.333 31.333 -55 40s-46.833 13 -75.5 13
c-119.333 0 -179 -77.333 -179 -232v-129c0 -54 7.16699 -98.333 21.5 -133s34.667 -59.833 61 -75.5s58.5 -23.5 96.5 -23.5c118.667 0 178 77.333 178 232zM497 802c0 -4.66699 -3 -7 -9 -7h-52c-4.66699 0 -8.16699 0.833008 -10.5 2.5s-6.5 5.83301 -12.5 12.5l-82 97
l-83 -97c-6 -6.66699 -10.167 -10.833 -12.5 -12.5s-5.83301 -2.5 -10.5 -2.5h-52c-6 0 -9 2.33301 -9 7c0 4 1.33301 7.33301 4 10l96 124c5.33301 6.66699 9.33301 10.833 12 12.5s6.66699 2.5 12 2.5h85c8.66699 0 17 -5 25 -15l95 -124c2.66699 -2.66699 4 -6 4 -10z
" />
    <glyph glyph-name="Otilde" unicode="&#xd5;" horiz-adv-x="661" 
d="M601 307c0 -54.667 -6.5 -101.833 -19.5 -141.5s-31.5 -72.333 -55.5 -98s-52.5 -44.5 -85.5 -56.5s-69.5 -18 -109.5 -18c-39.333 0 -75.667 6 -109 18s-62.167 31 -86.5 57s-43 59.167 -56 99.5s-19.5 86.833 -19.5 139.5v129c0 53.333 6.5 100 19.5 140
s31.667 73 56 99s53 45 86 57s69.5 18 109.5 18s76.333 -6 109 -18s61.167 -30.833 85.5 -56.5s43 -58.333 56 -98s19.5 -86.833 19.5 -141.5v-129zM509 307v129c0 40.667 -4.16699 76.167 -12.5 106.5s-20 54.5 -35 72.5s-33.333 31.333 -55 40s-46.833 13 -75.5 13
c-119.333 0 -179 -77.333 -179 -232v-129c0 -54 7.16699 -98.333 21.5 -133s34.667 -59.833 61 -75.5s58.5 -23.5 96.5 -23.5c118.667 0 178 77.333 178 232zM511 894c0 -35.333 -7.33301 -61.667 -22 -79s-38.667 -26 -72 -26c-25.333 0 -46.667 7 -64 21l-61 49
c-12 9.33301 -20.333 15.333 -25 18s-10 4 -16 4c-12 0 -20.167 -3.83301 -24.5 -11.5s-6.5 -19.167 -6.5 -34.5v-21c0 -4.66699 -1.66699 -8.66699 -5 -12s-7.33301 -5 -12 -5h-31c-4.66699 0 -8.5 1.83301 -11.5 5.5s-4.5 7.5 -4.5 11.5v21c0 35.333 8.33301 62.333 25 81
s40 28 70 28c19.333 0 39.333 -8 60 -24l71 -56c5.33301 -4.66699 11.333 -8.16699 18 -10.5s12.333 -3.5 17 -3.5c10.667 0 18.333 3.33301 23 10s7 18 7 34v23c0 4 1.83301 7.83301 5.5 11.5s7.5 5.5 11.5 5.5h31c4.66699 0 8.5 -1.66699 11.5 -5s4.5 -7.33301 4.5 -12
v-23z" />
    <glyph glyph-name="Odieresis" unicode="&#xd6;" horiz-adv-x="661" 
d="M601 307c0 -54.667 -6.5 -101.833 -19.5 -141.5s-31.5 -72.333 -55.5 -98s-52.5 -44.5 -85.5 -56.5s-69.5 -18 -109.5 -18c-39.333 0 -75.667 6 -109 18s-62.167 31 -86.5 57s-43 59.167 -56 99.5s-19.5 86.833 -19.5 139.5v129c0 53.333 6.5 100 19.5 140
s31.667 73 56 99s53 45 86 57s69.5 18 109.5 18s76.333 -6 109 -18s61.167 -30.833 85.5 -56.5s43 -58.333 56 -98s19.5 -86.833 19.5 -141.5v-129zM509 307v129c0 40.667 -4.16699 76.167 -12.5 106.5s-20 54.5 -35 72.5s-33.333 31.333 -55 40s-46.833 13 -75.5 13
c-119.333 0 -179 -77.333 -179 -232v-129c0 -54 7.16699 -98.333 21.5 -133s34.667 -59.833 61 -75.5s58.5 -23.5 96.5 -23.5c118.667 0 178 77.333 178 232zM458 829c0 -5.33301 -2 -9.83301 -6 -13.5s-8.66699 -5.5 -14 -5.5h-39c-4.66699 0 -9.16699 1.83301 -13.5 5.5
s-6.5 8.16699 -6.5 13.5v81c0 4.66699 2.16699 9.16699 6.5 13.5s8.83301 6.5 13.5 6.5h39c5.33301 0 10 -2 14 -6s6 -8.66699 6 -14v-81zM283 829c0 -5.33301 -2.16699 -9.83301 -6.5 -13.5s-8.83301 -5.5 -13.5 -5.5h-39c-5.33301 0 -10 1.83301 -14 5.5
s-6 8.16699 -6 13.5v81c0 4.66699 2 9.16699 6 13.5s8.66699 6.5 14 6.5h39c4.66699 0 9.16699 -2 13.5 -6s6.5 -8.66699 6.5 -14v-81z" />
    <glyph glyph-name="Oslash" unicode="&#xd8;" horiz-adv-x="661" 
d="M633 735c0 -2 -1 -4.66667 -3 -8l-71 -98c28 -50 42 -114.333 42 -193v-129c0 -54.6667 -6.5 -101.833 -19.5 -141.5c-13 -39.6667 -31.5 -72.3333 -55.5 -98c-24 -25.6667 -52.5 -44.5 -85.5 -56.5s-69.5 -18 -109.5 -18c-37.3333 0 -71.5 5.33333 -102.5 16
c-31 10.6667 -57.8333 26.3333 -80.5 47l-31 -44c-10 -12.6667 -18.3333 -19 -25 -19h-53c-7.33333 0 -11 3.66667 -11 11c0 2 1 4.66667 3 8l72 100c-28.6667 50 -43 115 -43 195v129c0 53.3333 6.5 100 19.5 140s31.6667 73 56 99c24.3333 26 53 45 86 57
s69.5 18 109.5 18c76.6667 0 138 -21.3333 184 -64l29 41c9.33333 12.6667 18 19 26 19h52c7.33333 0 11 -3.66667 11 -11zM462 613c-29.3333 36.6667 -73 55 -131 55c-119.333 0 -179 -77.3333 -179 -232v-129c0 -38.6667 4.33333 -74.6667 13 -108zM509 307v129
c0 42 -4 77.3333 -12 106l-297 -414c29.3333 -35.3333 73 -53 131 -53c28.6667 0 53.6667 4.33333 75 13s39.6667 22 55 40s27.1667 42.1667 35.5 72.5s12.5 65.8333 12.5 106.5z" />
    <glyph glyph-name="Ugrave" unicode="&#xd9;" horiz-adv-x="662" 
d="M584 36c0 -12 -2 -20 -6 -24s-11.333 -6.66699 -22 -8c-24 -3.33301 -57.833 -6.16699 -101.5 -8.5s-80.833 -3.5 -111.5 -3.5c-46 0 -86 4.83301 -120 14.5s-62.333 25.833 -85 48.5s-39.667 52.333 -51 89s-17 82.333 -17 137v442c0 4.66699 1.66699 9.16699 5 13.5
s7.66699 6.5 13 6.5h56c4.66699 0 8.66699 -2 12 -6s5 -8.66699 5 -14v-442c0 -56 6.5 -99.333 19.5 -130s32.667 -51.5 59 -62.5s61.5 -16.5 105.5 -16.5c43.333 0 92.667 2 148 6v645c0 4.66699 1.66699 9.16699 5 13.5s7.66699 6.5 13 6.5h55
c5.33301 0 9.66699 -1.83301 13 -5.5s5 -8.5 5 -14.5v-687zM389 801c0 -4.66699 -3 -7 -9 -7h-54c-4.66699 0 -8.16699 0.833008 -10.5 2.5s-6.5 5.83301 -12.5 12.5l-113 126c-2.66699 2.66699 -4 5.33301 -4 8c0 4.66699 3.66699 7 11 7h66c5.33301 0 9.66699 -1 13 -3
s7.33301 -6 12 -12l97 -124c2.66699 -2.66699 4 -6 4 -10z" />
    <glyph glyph-name="Uacute" unicode="&#xda;" horiz-adv-x="662" 
d="M584 36c0 -12 -2 -20 -6 -24s-11.333 -6.66699 -22 -8c-24 -3.33301 -57.833 -6.16699 -101.5 -8.5s-80.833 -3.5 -111.5 -3.5c-46 0 -86 4.83301 -120 14.5s-62.333 25.833 -85 48.5s-39.667 52.333 -51 89s-17 82.333 -17 137v442c0 4.66699 1.66699 9.16699 5 13.5
s7.66699 6.5 13 6.5h56c4.66699 0 8.66699 -2 12 -6s5 -8.66699 5 -14v-442c0 -56 6.5 -99.333 19.5 -130s32.667 -51.5 59 -62.5s61.5 -16.5 105.5 -16.5c43.333 0 92.667 2 148 6v645c0 4.66699 1.66699 9.16699 5 13.5s7.66699 6.5 13 6.5h55
c5.33301 0 9.66699 -1.83301 13 -5.5s5 -8.5 5 -14.5v-687zM479 943c0 -2.66699 -1.33301 -5.33301 -4 -8l-113 -126c-6 -6.66699 -10.167 -10.833 -12.5 -12.5s-5.83301 -2.5 -10.5 -2.5h-54c-6 0 -9 2.33301 -9 7c0 4 1.33301 7.33301 4 10l98 124
c6 6.66699 10.167 10.833 12.5 12.5s6.16699 2.5 11.5 2.5h66c7.33301 0 11 -2.33301 11 -7z" />
    <glyph glyph-name="Ucircumflex" unicode="&#xdb;" horiz-adv-x="662" 
d="M584 36c0 -12 -2 -20 -6 -24s-11.333 -6.66699 -22 -8c-24 -3.33301 -57.833 -6.16699 -101.5 -8.5s-80.833 -3.5 -111.5 -3.5c-46 0 -86 4.83301 -120 14.5s-62.333 25.833 -85 48.5s-39.667 52.333 -51 89s-17 82.333 -17 137v442c0 4.66699 1.66699 9.16699 5 13.5
s7.66699 6.5 13 6.5h56c4.66699 0 8.66699 -2 12 -6s5 -8.66699 5 -14v-442c0 -56 6.5 -99.333 19.5 -130s32.667 -51.5 59 -62.5s61.5 -16.5 105.5 -16.5c43.333 0 92.667 2 148 6v645c0 4.66699 1.66699 9.16699 5 13.5s7.66699 6.5 13 6.5h55
c5.33301 0 9.66699 -1.83301 13 -5.5s5 -8.5 5 -14.5v-687zM494 801c0 -4.66699 -3 -7 -9 -7h-52c-4.66699 0 -8.16699 0.833008 -10.5 2.5s-6.5 5.83301 -12.5 12.5l-82 97l-83 -97c-6 -6.66699 -10.167 -10.833 -12.5 -12.5s-5.83301 -2.5 -10.5 -2.5h-52
c-6 0 -9 2.33301 -9 7c0 4 1.33301 7.33301 4 10l96 124c5.33301 6.66699 9.33301 10.833 12 12.5s6.66699 2.5 12 2.5h85c8.66699 0 17 -5 25 -15l95 -124c2.66699 -2.66699 4 -6 4 -10z" />
    <glyph glyph-name="Udieresis" unicode="&#xdc;" horiz-adv-x="662" 
d="M584 36c0 -12 -2 -20 -6 -24s-11.333 -6.66699 -22 -8c-24 -3.33301 -57.833 -6.16699 -101.5 -8.5s-80.833 -3.5 -111.5 -3.5c-46 0 -86 4.83301 -120 14.5s-62.333 25.833 -85 48.5s-39.667 52.333 -51 89s-17 82.333 -17 137v442c0 4.66699 1.66699 9.16699 5 13.5
s7.66699 6.5 13 6.5h56c4.66699 0 8.66699 -2 12 -6s5 -8.66699 5 -14v-442c0 -56 6.5 -99.333 19.5 -130s32.667 -51.5 59 -62.5s61.5 -16.5 105.5 -16.5c43.333 0 92.667 2 148 6v645c0 4.66699 1.66699 9.16699 5 13.5s7.66699 6.5 13 6.5h55
c5.33301 0 9.66699 -1.83301 13 -5.5s5 -8.5 5 -14.5v-687zM456 829c0 -5.33301 -2 -9.83301 -6 -13.5s-8.66699 -5.5 -14 -5.5h-39c-4.66699 0 -9.16699 1.83301 -13.5 5.5s-6.5 8.16699 -6.5 13.5v81c0 4.66699 2.16699 9.16699 6.5 13.5s8.83301 6.5 13.5 6.5h39
c5.33301 0 10 -2 14 -6s6 -8.66699 6 -14v-81zM281 829c0 -5.33301 -2.16699 -9.83301 -6.5 -13.5s-8.83301 -5.5 -13.5 -5.5h-39c-5.33301 0 -10 1.83301 -14 5.5s-6 8.16699 -6 13.5v81c0 4.66699 2 9.16699 6 13.5s8.66699 6.5 14 6.5h39c4.66699 0 9.16699 -2 13.5 -6
s6.5 -8.66699 6.5 -14v-81z" />
    <glyph glyph-name="Yacute" unicode="&#xdd;" horiz-adv-x="596" 
d="M556 729c0 -2.66699 -1 -6.33301 -3 -11l-209 -416v-282c0 -5.33301 -1.66699 -10 -5 -14s-7.66699 -6 -13 -6h-57c-4.66699 0 -8.66699 2 -12 6s-5 8.66699 -5 14v282l-209 416c-2 5.33301 -3 9.33301 -3 12c0 8.66699 5.33301 13 16 13h63
c6.66699 0 12.333 -4.66699 17 -14l162 -339l162 339c4 9.33301 9.66699 14 17 14h62c11.333 0 17 -4.66699 17 -14zM438 943c0 -2.66699 -1.33301 -5.33301 -4 -8l-113 -126c-6 -6.66699 -10.167 -10.833 -12.5 -12.5s-5.83301 -2.5 -10.5 -2.5h-54c-6 0 -9 2.33301 -9 7
c0 4 1.33301 7.33301 4 10l98 124c6 6.66699 10.167 10.833 12.5 12.5s6.16699 2.5 11.5 2.5h66c7.33301 0 11 -2.33301 11 -7z" />
    <glyph glyph-name="Thorn" unicode="&#xde;" horiz-adv-x="592" 
d="M548 426c0 -150.667 -93.6667 -226 -281 -226c-38 0 -71 1 -99 3v-183c0 -5.33333 -1.33333 -10 -4 -14s-6.66667 -6 -12 -6h-56c-5.33333 0 -9.66667 2 -13 6s-5 8.66667 -5 14v704c0 5.33333 1.66667 9.83333 5 13.5s7.66667 5.5 13 5.5h56
c4.66667 0 8.66667 -1.83333 12 -5.5s5 -8.16667 5 -13.5v-69c6.66667 0 15.3333 0.333333 26 1s22.5 1.16667 35.5 1.5s24.5 0.5 34.5 0.5c188.667 0 283 -72.6667 283 -218v-14zM457 426v14c0 50.6667 -15.5 86.5 -46.5 107.5s-78.8333 31.5 -143.5 31.5
c-51.3333 0 -84.3333 -0.666667 -99 -2v-296c46 -2 79 -3 99 -3c65.3333 0 113.333 11.5 144 34.5s46 60.8333 46 113.5z" />
    <glyph glyph-name="germandbls" unicode="&#xdf;" horiz-adv-x="581" 
d="M527 215c0 -50 -10.6667 -91.6667 -32 -125c-21.3333 -33.3333 -49.6667 -57.8333 -85 -73.5c-35.3333 -15.6667 -75.3333 -23.5 -120 -23.5c-12 0 -28 1 -48 3c-13.3333 1.33333 -20 7.66667 -20 19v41c0 7.33333 3.66667 11 11 11c10 0 18 -0.166667 24 -0.5
s12.3333 -0.5 19 -0.5c52.6667 0 92.8333 11 120.5 33s41.5 60.6667 41.5 116v14c0 38 -13.5 68.8333 -40.5 92.5s-65.1667 35.5 -114.5 35.5h-37c-5.33333 0 -10 2.16667 -14 6.5s-6 8.83333 -6 13.5v29c0 5.33333 1.83333 10 5.5 14s8.5 6 14.5 6h37
c32 0 58.5 5.5 79.5 16.5s36.3333 25.8333 46 44.5s14.5 39 14.5 61v12c0 24.6667 -4.5 46 -13.5 64s-23.5 32 -43.5 42s-44.6667 15 -74 15c-30.6667 0 -56.3333 -5.83333 -77 -17.5s-36 -29.8333 -46 -54.5s-15 -56.3333 -15 -95v-493c0 -6 -1.66667 -11 -5 -15
s-7.66667 -6 -13 -6h-53c-5.33333 0 -9.66667 2.16667 -13 6.5c-3.33333 4.33333 -5 9.16667 -5 14.5v493c0 42 5.16667 78 15.5 108s25.3333 55.1667 45 75.5c19.6667 20.3333 43.6667 35.5 72 45.5s59.8333 15 94.5 15c44 0 82.3333 -7.16667 115 -21.5
s58.1667 -36.3333 76.5 -66s27.5 -66.5 27.5 -110.5v-12c0 -34 -9.83333 -64.8333 -29.5 -92.5s-44.8333 -48.1667 -75.5 -61.5c36 -12.6667 65.1667 -33.5 87.5 -62.5c22.3333 -29 33.5 -63.1667 33.5 -102.5v-14z" />
    <glyph glyph-name="agrave" unicode="&#xe0;" horiz-adv-x="519" 
d="M451 38c0 -12.667 -5 -20 -15 -22c-52 -15.333 -108.333 -23 -169 -23c-52.667 0 -95 5.83301 -127 17.5s-55.333 29.667 -70 54s-22 55.5 -22 93.5v9c0 37.333 7.83301 67.833 23.5 91.5s41.333 41.333 77 53s82.5 17.5 140.5 17.5h74v40c0 41.333 -8 70.167 -24 86.5
s-43.667 24.5 -83 24.5c-62 0 -113 -2 -153 -6c-15.333 -1.33301 -23 4 -23 16v35c0 10.667 7 17 21 19c52.667 8.66699 104.333 13 155 13c130 0 195 -62.667 195 -188v-331zM363 75v190h-74c-40 0 -71 -3.16699 -93 -9.5s-37.333 -16.5 -46 -30.5s-13 -33 -13 -57v-9
c0 -23.333 3.66699 -41.667 11 -55s20.5 -23 39.5 -29s45.5 -9 79.5 -9c14.667 0 32 1 52 3s34.667 4 44 6zM334 630c0 -4.66699 -3 -7 -9 -7h-54c-4.66699 0 -8.16699 0.833008 -10.5 2.5s-6.5 5.83301 -12.5 12.5l-113 126c-2.66699 2.66699 -4 5.33301 -4 8
c0 4.66699 3.66699 7 11 7h66c5.33301 0 9.66699 -1 13 -3s7.33301 -6 12 -12l97 -124c2.66699 -2.66699 4 -6 4 -10z" />
    <glyph glyph-name="aacute" unicode="&#xe1;" horiz-adv-x="519" 
d="M451 38c0 -12.667 -5 -20 -15 -22c-52 -15.333 -108.333 -23 -169 -23c-52.667 0 -95 5.83301 -127 17.5s-55.333 29.667 -70 54s-22 55.5 -22 93.5v9c0 37.333 7.83301 67.833 23.5 91.5s41.333 41.333 77 53s82.5 17.5 140.5 17.5h74v40c0 41.333 -8 70.167 -24 86.5
s-43.667 24.5 -83 24.5c-62 0 -113 -2 -153 -6c-15.333 -1.33301 -23 4 -23 16v35c0 10.667 7 17 21 19c52.667 8.66699 104.333 13 155 13c130 0 195 -62.667 195 -188v-331zM363 75v190h-74c-40 0 -71 -3.16699 -93 -9.5s-37.333 -16.5 -46 -30.5s-13 -33 -13 -57v-9
c0 -23.333 3.66699 -41.667 11 -55s20.5 -23 39.5 -29s45.5 -9 79.5 -9c14.667 0 32 1 52 3s34.667 4 44 6zM372 772c0 -2.66699 -1.33301 -5.33301 -4 -8l-113 -126c-6 -6.66699 -10.167 -10.833 -12.5 -12.5s-5.83301 -2.5 -10.5 -2.5h-54c-6 0 -9 2.33301 -9 7
c0 4 1.33301 7.33301 4 10l98 124c6 6.66699 10.167 10.833 12.5 12.5s6.16699 2.5 11.5 2.5h66c7.33301 0 11 -2.33301 11 -7z" />
    <glyph glyph-name="acircumflex" unicode="&#xe2;" horiz-adv-x="519" 
d="M451 38c0 -12.667 -5 -20 -15 -22c-52 -15.333 -108.333 -23 -169 -23c-52.667 0 -95 5.83301 -127 17.5s-55.333 29.667 -70 54s-22 55.5 -22 93.5v9c0 37.333 7.83301 67.833 23.5 91.5s41.333 41.333 77 53s82.5 17.5 140.5 17.5h74v40c0 41.333 -8 70.167 -24 86.5
s-43.667 24.5 -83 24.5c-62 0 -113 -2 -153 -6c-15.333 -1.33301 -23 4 -23 16v35c0 10.667 7 17 21 19c52.667 8.66699 104.333 13 155 13c130 0 195 -62.667 195 -188v-331zM363 75v190h-74c-40 0 -71 -3.16699 -93 -9.5s-37.333 -16.5 -46 -30.5s-13 -33 -13 -57v-9
c0 -23.333 3.66699 -41.667 11 -55s20.5 -23 39.5 -29s45.5 -9 79.5 -9c14.667 0 32 1 52 3s34.667 4 44 6zM421 630c0 -4.66699 -3 -7 -9 -7h-52c-4.66699 0 -8.16699 0.833008 -10.5 2.5s-6.5 5.83301 -12.5 12.5l-82 97l-83 -97c-6 -6.66699 -10.167 -10.833 -12.5 -12.5
s-5.83301 -2.5 -10.5 -2.5h-52c-6 0 -9 2.33301 -9 7c0 4 1.33301 7.33301 4 10l96 124c5.33301 6.66699 9.33301 10.833 12 12.5s6.66699 2.5 12 2.5h85c8.66699 0 17 -5 25 -15l95 -124c2.66699 -2.66699 4 -6 4 -10z" />
    <glyph glyph-name="atilde" unicode="&#xe3;" horiz-adv-x="519" 
d="M451 38c0 -12.667 -5 -20 -15 -22c-52 -15.333 -108.333 -23 -169 -23c-52.667 0 -95 5.83301 -127 17.5s-55.333 29.667 -70 54s-22 55.5 -22 93.5v9c0 37.333 7.83301 67.833 23.5 91.5s41.333 41.333 77 53s82.5 17.5 140.5 17.5h74v40c0 41.333 -8 70.167 -24 86.5
s-43.667 24.5 -83 24.5c-62 0 -113 -2 -153 -6c-15.333 -1.33301 -23 4 -23 16v35c0 10.667 7 17 21 19c52.667 8.66699 104.333 13 155 13c130 0 195 -62.667 195 -188v-331zM363 75v190h-74c-40 0 -71 -3.16699 -93 -9.5s-37.333 -16.5 -46 -30.5s-13 -33 -13 -57v-9
c0 -23.333 3.66699 -41.667 11 -55s20.5 -23 39.5 -29s45.5 -9 79.5 -9c14.667 0 32 1 52 3s34.667 4 44 6zM427 731c0 -35.333 -7.33301 -61.667 -22 -79s-38.667 -26 -72 -26c-25.333 0 -46.667 7 -64 21l-61 49c-12 9.33301 -20.333 15.333 -25 18s-10 4 -16 4
c-12 0 -20.167 -3.83301 -24.5 -11.5s-6.5 -19.167 -6.5 -34.5v-21c0 -4.66699 -1.66699 -8.66699 -5 -12s-7.33301 -5 -12 -5h-31c-4.66699 0 -8.5 1.83301 -11.5 5.5s-4.5 7.5 -4.5 11.5v21c0 35.333 8.33301 62.333 25 81s40 28 70 28c19.333 0 39.333 -8 60 -24l71 -56
c5.33301 -4.66699 11.333 -8.16699 18 -10.5s12.333 -3.5 17 -3.5c10.667 0 18.333 3.33301 23 10s7 18 7 34v23c0 4 1.83301 7.83301 5.5 11.5s7.5 5.5 11.5 5.5h31c4.66699 0 8.5 -1.66699 11.5 -5s4.5 -7.33301 4.5 -12v-23z" />
    <glyph glyph-name="adieresis" unicode="&#xe4;" horiz-adv-x="519" 
d="M451 38c0 -12.667 -5 -20 -15 -22c-52 -15.333 -108.333 -23 -169 -23c-52.667 0 -95 5.83301 -127 17.5s-55.333 29.667 -70 54s-22 55.5 -22 93.5v9c0 37.333 7.83301 67.833 23.5 91.5s41.333 41.333 77 53s82.5 17.5 140.5 17.5h74v40c0 41.333 -8 70.167 -24 86.5
s-43.667 24.5 -83 24.5c-62 0 -113 -2 -153 -6c-15.333 -1.33301 -23 4 -23 16v35c0 10.667 7 17 21 19c52.667 8.66699 104.333 13 155 13c130 0 195 -62.667 195 -188v-331zM363 75v190h-74c-40 0 -71 -3.16699 -93 -9.5s-37.333 -16.5 -46 -30.5s-13 -33 -13 -57v-9
c0 -23.333 3.66699 -41.667 11 -55s20.5 -23 39.5 -29s45.5 -9 79.5 -9c14.667 0 32 1 52 3s34.667 4 44 6zM377 660c0 -5.33301 -2 -9.83301 -6 -13.5s-8.66699 -5.5 -14 -5.5h-39c-4.66699 0 -9.16699 1.83301 -13.5 5.5s-6.5 8.16699 -6.5 13.5v81
c0 4.66699 2.16699 9.16699 6.5 13.5s8.83301 6.5 13.5 6.5h39c5.33301 0 10 -2 14 -6s6 -8.66699 6 -14v-81zM202 660c0 -5.33301 -2.16699 -9.83301 -6.5 -13.5s-8.83301 -5.5 -13.5 -5.5h-39c-5.33301 0 -10 1.83301 -14 5.5s-6 8.16699 -6 13.5v81
c0 4.66699 2 9.16699 6 13.5s8.66699 6.5 14 6.5h39c4.66699 0 9.16699 -2 13.5 -6s6.5 -8.66699 6.5 -14v-81z" />
    <glyph glyph-name="aring" unicode="&#xe5;" horiz-adv-x="519" 
d="M451 38c0 -12.667 -5 -20 -15 -22c-52 -15.333 -108.333 -23 -169 -23c-52.667 0 -95 5.83301 -127 17.5s-55.333 29.667 -70 54s-22 55.5 -22 93.5v9c0 37.333 7.83301 67.833 23.5 91.5s41.333 41.333 77 53s82.5 17.5 140.5 17.5h74v40c0 41.333 -8 70.167 -24 86.5
s-43.667 24.5 -83 24.5c-62 0 -113 -2 -153 -6c-15.333 -1.33301 -23 4 -23 16v35c0 10.667 7 17 21 19c52.667 8.66699 104.333 13 155 13c130 0 195 -62.667 195 -188v-331zM363 75v190h-74c-40 0 -71 -3.16699 -93 -9.5s-37.333 -16.5 -46 -30.5s-13 -33 -13 -57v-9
c0 -23.333 3.66699 -41.667 11 -55s20.5 -23 39.5 -29s45.5 -9 79.5 -9c14.667 0 32 1 52 3s34.667 4 44 6zM356 703c0 -28 -9.83301 -51.833 -29.5 -71.5s-43.5 -29.5 -71.5 -29.5c-18.667 0 -35.833 4.5 -51.5 13.5s-28 21.167 -37 36.5s-13.5 32.333 -13.5 51
s4.5 35.667 13.5 51s21.333 27.667 37 37s32.833 14 51.5 14s35.667 -4.5 51 -13.5s27.5 -21.333 36.5 -37s13.5 -32.833 13.5 -51.5zM308 704c0 14.667 -5.33301 27 -16 37s-23 15 -37 15s-26.167 -5 -36.5 -15s-15.5 -22.333 -15.5 -37c0 -14 5.16699 -26.333 15.5 -37
s22.5 -16 36.5 -16c14.667 0 27.167 5.16699 37.5 15.5s15.5 22.833 15.5 37.5z" />
    <glyph glyph-name="ae" unicode="&#xe6;" horiz-adv-x="853" 
d="M803 269c0 -14.6667 -6.33333 -22 -19 -22h-333v-32c0 -50.6667 11.8333 -88 35.5 -112s60.5 -36 110.5 -36c24 0 52.5 1.5 85.5 4.5s61.5 6.16667 85.5 9.5h2h3c10.6667 0 16 -4.66667 16 -14v-34c0 -6.66667 -1.33333 -11.6667 -4 -15s-8 -6 -16 -8
c-27.3333 -5.33333 -55.3333 -9.5 -84 -12.5s-59.6667 -4.5 -93 -4.5c-27.3333 0 -51.1667 1.83333 -71.5 5.5c-20.3333 3.66667 -39 9.83333 -56 18.5c-17 8.66667 -32.1667 20.3333 -45.5 35c-22.6667 -19.3333 -49.6667 -34 -81 -44s-64.3333 -15 -99 -15
c-54 0 -99.3333 13.8333 -136 41.5c-36.6667 27.6667 -55 68.8333 -55 123.5v9c0 37.3333 7.83333 67.8333 23.5 91.5c15.6667 23.6667 41.3333 41.3333 77 53c35.6667 11.6667 82.5 17.5 140.5 17.5h75v40c0 28 -3.5 50.1667 -10.5 66.5s-18.6667 28.1667 -35 35.5
s-37.1667 11 -62.5 11c-48.6667 0 -99.6667 -2.66667 -153 -8h-2h-3c-12 0 -18 5.33333 -18 16v35c0 10.6667 7 17 21 19c52.6667 8.66667 104.333 13 155 13c80 0 135.333 -23.3333 166 -70c40 46.6667 94.3333 70 163 70c36 0 67.6667 -6 95 -18s50.1667 -29 68.5 -51
s32 -47.8333 41 -77.5s13.5 -62.8333 13.5 -99.5v-42zM716 314v5c0 54 -11 94.6667 -33 122s-54.6667 41 -98 41c-42 0 -74.8333 -14.3333 -98.5 -43s-35.5 -68.6667 -35.5 -120v-5h265zM364 94v171h-75c-58.6667 0 -98.6667 -7.16667 -120 -21.5
c-21.3333 -14.3333 -32 -39.8333 -32 -76.5v-9c0 -33.3333 10.5 -57.5 31.5 -72.5s48.5 -22.5 82.5 -22.5c47.3333 0 85 10.3333 113 31z" />
    <glyph glyph-name="ccedilla" unicode="&#xe7;" horiz-adv-x="452" 
d="M408 26c0 -12 -6.66667 -19.3333 -20 -22c-40.6667 -7.33333 -82.3333 -11 -125 -11c-44 0 -82.1667 10 -114.5 30c-32.3333 20 -56.8333 48.1667 -73.5 84.5c-16.6667 36.3333 -25 79.1667 -25 128.5v78c0 48.6667 8.16667 91.3333 24.5 128
c16.3333 36.6667 40.6667 65 73 85c32.3333 20 70.8333 30 115.5 30c41.3333 0 83 -3.66667 125 -11c8 -1.33333 13.3333 -3.5 16 -6.5s4 -8.16667 4 -15.5v-36c0 -10 -5.66667 -15 -17 -15h-4c-41.3333 4.66667 -82.6667 7 -124 7c-83.3333 0 -125 -55.3333 -125 -166v-78
c0 -55.3333 10.6667 -96.8333 32 -124.5c21.3333 -27.6667 52.3333 -41.5 93 -41.5c42 0 83.3333 2.33333 124 7h4c11.3333 0 17 -5 17 -15v-36zM322 -39c0 -2.66667 -1.33333 -5.33333 -4 -8l-113 -126c-5.33333 -6 -9.33333 -10 -12 -12s-6.33333 -3 -11 -3h-54
c-6 0 -9 2.33333 -9 7c0 4 1.33333 7.33333 4 10l97 124c8 10 16.3333 15 25 15h66c7.33333 0 11 -2.33333 11 -7z" />
    <glyph glyph-name="egrave" unicode="&#xe8;" horiz-adv-x="543" 
d="M494 269c0 -14.667 -6.33301 -22 -19 -22h-335v-12c0 -37.333 5.66699 -68.667 17 -94s27.833 -44 49.5 -56s48.167 -18 79.5 -18c24.667 0 53.333 1.5 86 4.5s61 6.16699 85 9.5h5c10.667 0 16 -4.66699 16 -14v-34c0 -6.66699 -1.33301 -11.667 -4 -15s-8 -6 -16 -8
c-28 -5.33301 -55.667 -9.5 -83 -12.5s-57 -4.5 -89 -4.5c-42.667 0 -81.333 7.66699 -116 23s-63 41.333 -85 78s-33 85.333 -33 146v70c0 47.333 8.66699 89.833 26 127.5s42.833 67 76.5 88s73.5 31.5 119.5 31.5c47.333 0 87.5 -10.5 120.5 -31.5s57.833 -50 74.5 -87
s25 -79.5 25 -127.5v-42zM405 314v5c0 54 -11 94.333 -33 121s-54.667 40 -98 40c-28 0 -52.167 -6.16699 -72.5 -18.5s-35.667 -30.667 -46 -55s-15.5 -53.5 -15.5 -87.5v-5h265zM317 630c0 -4.66699 -3 -7 -9 -7h-54c-4.66699 0 -8.16699 0.833008 -10.5 2.5
s-6.5 5.83301 -12.5 12.5l-113 126c-2.66699 2.66699 -4 5.33301 -4 8c0 4.66699 3.66699 7 11 7h66c5.33301 0 9.66699 -1 13 -3s7.33301 -6 12 -12l97 -124c2.66699 -2.66699 4 -6 4 -10z" />
    <glyph glyph-name="eacute" unicode="&#xe9;" horiz-adv-x="543" 
d="M494 269c0 -14.667 -6.33301 -22 -19 -22h-335v-12c0 -37.333 5.66699 -68.667 17 -94s27.833 -44 49.5 -56s48.167 -18 79.5 -18c24.667 0 53.333 1.5 86 4.5s61 6.16699 85 9.5h5c10.667 0 16 -4.66699 16 -14v-34c0 -6.66699 -1.33301 -11.667 -4 -15s-8 -6 -16 -8
c-28 -5.33301 -55.667 -9.5 -83 -12.5s-57 -4.5 -89 -4.5c-42.667 0 -81.333 7.66699 -116 23s-63 41.333 -85 78s-33 85.333 -33 146v70c0 47.333 8.66699 89.833 26 127.5s42.833 67 76.5 88s73.5 31.5 119.5 31.5c47.333 0 87.5 -10.5 120.5 -31.5s57.833 -50 74.5 -87
s25 -79.5 25 -127.5v-42zM405 314v5c0 54 -11 94.333 -33 121s-54.667 40 -98 40c-28 0 -52.167 -6.16699 -72.5 -18.5s-35.667 -30.667 -46 -55s-15.5 -53.5 -15.5 -87.5v-5h265zM434 772c0 -2.66699 -1.33301 -5.33301 -4 -8l-113 -126
c-6 -6.66699 -10.167 -10.833 -12.5 -12.5s-5.83301 -2.5 -10.5 -2.5h-54c-6 0 -9 2.33301 -9 7c0 4 1.33301 7.33301 4 10l98 124c6 6.66699 10.167 10.833 12.5 12.5s6.16699 2.5 11.5 2.5h66c7.33301 0 11 -2.33301 11 -7z" />
    <glyph glyph-name="ecircumflex" unicode="&#xea;" horiz-adv-x="543" 
d="M494 269c0 -14.667 -6.33301 -22 -19 -22h-335v-12c0 -37.333 5.66699 -68.667 17 -94s27.833 -44 49.5 -56s48.167 -18 79.5 -18c24.667 0 53.333 1.5 86 4.5s61 6.16699 85 9.5h5c10.667 0 16 -4.66699 16 -14v-34c0 -6.66699 -1.33301 -11.667 -4 -15s-8 -6 -16 -8
c-28 -5.33301 -55.667 -9.5 -83 -12.5s-57 -4.5 -89 -4.5c-42.667 0 -81.333 7.66699 -116 23s-63 41.333 -85 78s-33 85.333 -33 146v70c0 47.333 8.66699 89.833 26 127.5s42.833 67 76.5 88s73.5 31.5 119.5 31.5c47.333 0 87.5 -10.5 120.5 -31.5s57.833 -50 74.5 -87
s25 -79.5 25 -127.5v-42zM405 314v5c0 54 -11 94.333 -33 121s-54.667 40 -98 40c-28 0 -52.167 -6.16699 -72.5 -18.5s-35.667 -30.667 -46 -55s-15.5 -53.5 -15.5 -87.5v-5h265zM439 630c0 -4.66699 -3 -7 -9 -7h-52c-4.66699 0 -8.16699 0.833008 -10.5 2.5
s-6.5 5.83301 -12.5 12.5l-82 97l-83 -97c-6 -6.66699 -10.167 -10.833 -12.5 -12.5s-5.83301 -2.5 -10.5 -2.5h-52c-6 0 -9 2.33301 -9 7c0 4 1.33301 7.33301 4 10l96 124c5.33301 6.66699 9.33301 10.833 12 12.5s6.66699 2.5 12 2.5h85c8.66699 0 17 -5 25 -15l95 -124
c2.66699 -2.66699 4 -6 4 -10z" />
    <glyph glyph-name="edieresis" unicode="&#xeb;" horiz-adv-x="543" 
d="M494 269c0 -14.667 -6.33301 -22 -19 -22h-335v-12c0 -37.333 5.66699 -68.667 17 -94s27.833 -44 49.5 -56s48.167 -18 79.5 -18c24.667 0 53.333 1.5 86 4.5s61 6.16699 85 9.5h5c10.667 0 16 -4.66699 16 -14v-34c0 -6.66699 -1.33301 -11.667 -4 -15s-8 -6 -16 -8
c-28 -5.33301 -55.667 -9.5 -83 -12.5s-57 -4.5 -89 -4.5c-42.667 0 -81.333 7.66699 -116 23s-63 41.333 -85 78s-33 85.333 -33 146v70c0 47.333 8.66699 89.833 26 127.5s42.833 67 76.5 88s73.5 31.5 119.5 31.5c47.333 0 87.5 -10.5 120.5 -31.5s57.833 -50 74.5 -87
s25 -79.5 25 -127.5v-42zM405 314v5c0 54 -11 94.333 -33 121s-54.667 40 -98 40c-28 0 -52.167 -6.16699 -72.5 -18.5s-35.667 -30.667 -46 -55s-15.5 -53.5 -15.5 -87.5v-5h265zM403 660c0 -5.33301 -2 -9.83301 -6 -13.5s-8.66699 -5.5 -14 -5.5h-39
c-4.66699 0 -9.16699 1.83301 -13.5 5.5s-6.5 8.16699 -6.5 13.5v81c0 4.66699 2.16699 9.16699 6.5 13.5s8.83301 6.5 13.5 6.5h39c5.33301 0 10 -2 14 -6s6 -8.66699 6 -14v-81zM228 660c0 -5.33301 -2.16699 -9.83301 -6.5 -13.5s-8.83301 -5.5 -13.5 -5.5h-39
c-5.33301 0 -10 1.83301 -14 5.5s-6 8.16699 -6 13.5v81c0 4.66699 2 9.16699 6 13.5s8.66699 6.5 14 6.5h39c4.66699 0 9.16699 -2 13.5 -6s6.5 -8.66699 6.5 -14v-81z" />
    <glyph glyph-name="igrave" unicode="&#xec;" horiz-adv-x="247" 
d="M168 20c0 -6 -2 -10.833 -6 -14.5s-8.66699 -5.5 -14 -5.5h-48c-5.33301 0 -10.167 2 -14.5 6s-6.5 8.66699 -6.5 14v510c0 5.33301 1.83301 10 5.5 14s8.5 6 14.5 6h48c6 0 11 -1.83301 15 -5.5s6 -8.5 6 -14.5v-510zM184 630c0 -4.66699 -3 -7 -9 -7h-54
c-4.66699 0 -8.16699 0.833008 -10.5 2.5s-6.5 5.83301 -12.5 12.5l-113 126c-2.66699 2.66699 -4 5.33301 -4 8c0 4.66699 3.66699 7 11 7h66c5.33301 0 9.66699 -1 13 -3s7.33301 -6 12 -12l97 -124c2.66699 -2.66699 4 -6 4 -10z" />
    <glyph glyph-name="iacute" unicode="&#xed;" horiz-adv-x="247" 
d="M168 20c0 -6 -2 -10.833 -6 -14.5s-8.66699 -5.5 -14 -5.5h-48c-5.33301 0 -10.167 2 -14.5 6s-6.5 8.66699 -6.5 14v510c0 5.33301 1.83301 10 5.5 14s8.5 6 14.5 6h48c6 0 11 -1.83301 15 -5.5s6 -8.5 6 -14.5v-510zM271 772c0 -2.66699 -1.33301 -5.33301 -4 -8
l-113 -126c-6 -6.66699 -10.167 -10.833 -12.5 -12.5s-5.83301 -2.5 -10.5 -2.5h-54c-6 0 -9 2.33301 -9 7c0 4 1.33301 7.33301 4 10l98 124c6 6.66699 10.167 10.833 12.5 12.5s6.16699 2.5 11.5 2.5h66c7.33301 0 11 -2.33301 11 -7z" />
    <glyph glyph-name="icircumflex" unicode="&#xee;" horiz-adv-x="247" 
d="M168 20c0 -6 -2 -10.833 -6 -14.5s-8.66699 -5.5 -14 -5.5h-48c-5.33301 0 -10.167 2 -14.5 6s-6.5 8.66699 -6.5 14v510c0 5.33301 1.83301 10 5.5 14s8.5 6 14.5 6h48c6 0 11 -1.83301 15 -5.5s6 -8.5 6 -14.5v-510zM289 630c0 -4.66699 -3 -7 -9 -7h-52
c-4.66699 0 -8.16699 0.833008 -10.5 2.5s-6.5 5.83301 -12.5 12.5l-82 97l-83 -97c-6 -6.66699 -10.167 -10.833 -12.5 -12.5s-5.83301 -2.5 -10.5 -2.5h-52c-6 0 -9 2.33301 -9 7c0 4 1.33301 7.33301 4 10l96 124c5.33301 6.66699 9.33301 10.833 12 12.5
s6.66699 2.5 12 2.5h85c8.66699 0 17 -5 25 -15l95 -124c2.66699 -2.66699 4 -6 4 -10z" />
    <glyph glyph-name="idieresis" unicode="&#xef;" horiz-adv-x="247" 
d="M168 20c0 -6 -2 -10.833 -6 -14.5s-8.66699 -5.5 -14 -5.5h-48c-5.33301 0 -10.167 2 -14.5 6s-6.5 8.66699 -6.5 14v510c0 5.33301 1.83301 10 5.5 14s8.5 6 14.5 6h48c6 0 11 -1.83301 15 -5.5s6 -8.5 6 -14.5v-510zM250 660c0 -5.33301 -2 -9.83301 -6 -13.5
s-8.66699 -5.5 -14 -5.5h-39c-4.66699 0 -9.16699 1.83301 -13.5 5.5s-6.5 8.16699 -6.5 13.5v81c0 4.66699 2.16699 9.16699 6.5 13.5s8.83301 6.5 13.5 6.5h39c5.33301 0 10 -2 14 -6s6 -8.66699 6 -14v-81zM75 660c0 -5.33301 -2.16699 -9.83301 -6.5 -13.5
s-8.83301 -5.5 -13.5 -5.5h-39c-5.33301 0 -10 1.83301 -14 5.5s-6 8.16699 -6 13.5v81c0 4.66699 2 9.16699 6 13.5s8.66699 6.5 14 6.5h39c4.66699 0 9.16699 -2 13.5 -6s6.5 -8.66699 6.5 -14v-81z" />
    <glyph glyph-name="eth" unicode="&#xf0;" horiz-adv-x="544" 
d="M495 243c0 -81.3333 -18.8333 -143.333 -56.5 -186c-37.6667 -42.6667 -92.5 -64 -164.5 -64c-50.6667 0 -92.5 10 -125.5 30s-57.6667 48.5 -74 85.5c-16.3333 37 -24.5 81.8333 -24.5 134.5v55c0 40.6667 4.66667 76.3333 14 107
c9.33333 30.6667 23.5 56.8333 42.5 78.5s42.5 37.8333 70.5 48.5s60 16 96 16c48 0 85.3333 -12 112 -36c-10 26.6667 -27.1667 51.5 -51.5 74.5s-56.1667 43.8333 -95.5 62.5l-86 -66c-4.66667 -4 -9 -6 -13 -6c-3.33333 0 -7 2 -11 6l-17 19c-2 2 -3 4.33333 -3 7
c0 6.66667 3.33333 12.3333 10 17l61 47c-28.6667 10 -55 17.3333 -79 22c-10.6667 2.66667 -16 7.66667 -16 15c0 2 0.333333 3.66667 1 5l12 34c2 7.33333 6.66667 11 14 11c3.33333 0 6 -0.333333 8 -1c44.6667 -10.6667 86 -23 124 -37l94 71
c3.33333 2.66667 7.66667 4 13 4c4.66667 0 8.66667 -1.66667 12 -5l17 -18c2.66667 -2.66667 4 -5.33333 4 -8c0 -4 -3.33333 -8.66667 -10 -14l-73 -56c38 -21.3333 69.8333 -45 95.5 -71s45.6667 -54.1667 60 -84.5c14.3333 -30.3333 24.5 -65.1667 30.5 -104.5
s9 -85.3333 9 -138v-55zM407 243v55c0 28 -2.33333 53 -7 75s-12.5 40.5 -23.5 55.5s-25 26.1667 -42 33.5s-37.5 11 -61.5 11c-32 0 -57.8333 -6.66667 -77.5 -20s-34 -32.8333 -43 -58.5s-13.5 -57.8333 -13.5 -96.5v-55c0 -57.3333 10.8333 -100.667 32.5 -130
c21.6667 -29.3333 55.8333 -44 102.5 -44c31.3333 0 56.8333 6.5 76.5 19.5s34 32.3333 43 58c9 25.6667 13.5 57.8333 13.5 96.5z" />
    <glyph glyph-name="ntilde" unicode="&#xf1;" horiz-adv-x="557" 
d="M489 20c0 -6 -1.66699 -10.833 -5 -14.5s-7.66699 -5.5 -13 -5.5h-52c-4.66699 0 -8.83301 2 -12.5 6s-5.5 8.66699 -5.5 14v357c0 26.667 -2.5 47.167 -7.5 61.5s-14 25 -27 32s-30.5 10.5 -52.5 10.5h-71c-33.333 0 -56.167 -7.83301 -68.5 -23.5
s-18.5 -42.5 -18.5 -80.5v-357c0 -6 -1.66699 -10.833 -5 -14.5s-7.66699 -5.5 -13 -5.5h-52c-4.66699 0 -8.83301 2 -12.5 6s-5.5 8.66699 -5.5 14v357c0 47.333 9.16699 84.333 27.5 111s40.667 44.833 67 54.5s53.167 14.5 80.5 14.5h71c46 0 86.667 -13 122 -39
s53 -73 53 -141v-357zM460 731c0 -35.333 -7.33301 -61.667 -22 -79s-38.667 -26 -72 -26c-25.333 0 -46.667 7 -64 21l-61 49c-12 9.33301 -20.333 15.333 -25 18s-10 4 -16 4c-12 0 -20.167 -3.83301 -24.5 -11.5s-6.5 -19.167 -6.5 -34.5v-21
c0 -4.66699 -1.66699 -8.66699 -5 -12s-7.33301 -5 -12 -5h-31c-4.66699 0 -8.5 1.83301 -11.5 5.5s-4.5 7.5 -4.5 11.5v21c0 35.333 8.33301 62.333 25 81s40 28 70 28c19.333 0 39.333 -8 60 -24l71 -56c5.33301 -4.66699 11.333 -8.16699 18 -10.5s12.333 -3.5 17 -3.5
c10.667 0 18.333 3.33301 23 10s7 18 7 34v23c0 4 1.83301 7.83301 5.5 11.5s7.5 5.5 11.5 5.5h31c4.66699 0 8.5 -1.66699 11.5 -5s4.5 -7.33301 4.5 -12v-23z" />
    <glyph glyph-name="ograve" unicode="&#xf2;" horiz-adv-x="544" 
d="M495 237c0 -49.333 -8.5 -92.333 -25.5 -129s-42.167 -65 -75.5 -85s-74 -30 -122 -30c-71.333 0 -126.167 22 -164.5 66s-57.5 103.333 -57.5 178v76c0 75.333 19.167 134.833 57.5 178.5s93.167 65.5 164.5 65.5c37.333 0 69.667 -5.66699 97 -17
s50.5 -27.667 69.5 -49s33.167 -47.167 42.5 -77.5s14 -63.833 14 -100.5v-76zM407 237v76c0 52.667 -11 93.667 -33 123s-56 44 -102 44c-44.667 0 -78.167 -14.5 -100.5 -43.5s-33.5 -70.167 -33.5 -123.5v-76c0 -111.333 44.667 -167 134 -167
c45.333 0 79.167 14.5 101.5 43.5s33.5 70.167 33.5 123.5zM330 630c0 -4.66699 -3 -7 -9 -7h-54c-4.66699 0 -8.16699 0.833008 -10.5 2.5s-6.5 5.83301 -12.5 12.5l-113 126c-2.66699 2.66699 -4 5.33301 -4 8c0 4.66699 3.66699 7 11 7h66c5.33301 0 9.66699 -1 13 -3
s7.33301 -6 12 -12l97 -124c2.66699 -2.66699 4 -6 4 -10z" />
    <glyph glyph-name="oacute" unicode="&#xf3;" horiz-adv-x="544" 
d="M495 237c0 -49.333 -8.5 -92.333 -25.5 -129s-42.167 -65 -75.5 -85s-74 -30 -122 -30c-71.333 0 -126.167 22 -164.5 66s-57.5 103.333 -57.5 178v76c0 75.333 19.167 134.833 57.5 178.5s93.167 65.5 164.5 65.5c37.333 0 69.667 -5.66699 97 -17
s50.5 -27.667 69.5 -49s33.167 -47.167 42.5 -77.5s14 -63.833 14 -100.5v-76zM407 237v76c0 52.667 -11 93.667 -33 123s-56 44 -102 44c-44.667 0 -78.167 -14.5 -100.5 -43.5s-33.5 -70.167 -33.5 -123.5v-76c0 -111.333 44.667 -167 134 -167
c45.333 0 79.167 14.5 101.5 43.5s33.5 70.167 33.5 123.5zM425 772c0 -2.66699 -1.33301 -5.33301 -4 -8l-113 -126c-6 -6.66699 -10.167 -10.833 -12.5 -12.5s-5.83301 -2.5 -10.5 -2.5h-54c-6 0 -9 2.33301 -9 7c0 4 1.33301 7.33301 4 10l98 124
c6 6.66699 10.167 10.833 12.5 12.5s6.16699 2.5 11.5 2.5h66c7.33301 0 11 -2.33301 11 -7z" />
    <glyph glyph-name="ocircumflex" unicode="&#xf4;" horiz-adv-x="544" 
d="M495 237c0 -49.333 -8.5 -92.333 -25.5 -129s-42.167 -65 -75.5 -85s-74 -30 -122 -30c-71.333 0 -126.167 22 -164.5 66s-57.5 103.333 -57.5 178v76c0 75.333 19.167 134.833 57.5 178.5s93.167 65.5 164.5 65.5c37.333 0 69.667 -5.66699 97 -17
s50.5 -27.667 69.5 -49s33.167 -47.167 42.5 -77.5s14 -63.833 14 -100.5v-76zM407 237v76c0 52.667 -11 93.667 -33 123s-56 44 -102 44c-44.667 0 -78.167 -14.5 -100.5 -43.5s-33.5 -70.167 -33.5 -123.5v-76c0 -111.333 44.667 -167 134 -167
c45.333 0 79.167 14.5 101.5 43.5s33.5 70.167 33.5 123.5zM440 630c0 -4.66699 -3 -7 -9 -7h-52c-4.66699 0 -8.16699 0.833008 -10.5 2.5s-6.5 5.83301 -12.5 12.5l-82 97l-83 -97c-6 -6.66699 -10.167 -10.833 -12.5 -12.5s-5.83301 -2.5 -10.5 -2.5h-52
c-6 0 -9 2.33301 -9 7c0 4 1.33301 7.33301 4 10l96 124c5.33301 6.66699 9.33301 10.833 12 12.5s6.66699 2.5 12 2.5h85c8.66699 0 17 -5 25 -15l95 -124c2.66699 -2.66699 4 -6 4 -10z" />
    <glyph glyph-name="otilde" unicode="&#xf5;" horiz-adv-x="544" 
d="M495 237c0 -49.333 -8.5 -92.333 -25.5 -129s-42.167 -65 -75.5 -85s-74 -30 -122 -30c-71.333 0 -126.167 22 -164.5 66s-57.5 103.333 -57.5 178v76c0 75.333 19.167 134.833 57.5 178.5s93.167 65.5 164.5 65.5c37.333 0 69.667 -5.66699 97 -17
s50.5 -27.667 69.5 -49s33.167 -47.167 42.5 -77.5s14 -63.833 14 -100.5v-76zM407 237v76c0 52.667 -11 93.667 -33 123s-56 44 -102 44c-44.667 0 -78.167 -14.5 -100.5 -43.5s-33.5 -70.167 -33.5 -123.5v-76c0 -111.333 44.667 -167 134 -167
c45.333 0 79.167 14.5 101.5 43.5s33.5 70.167 33.5 123.5zM456 731c0 -35.333 -7.33301 -61.667 -22 -79s-38.667 -26 -72 -26c-25.333 0 -46.667 7 -64 21l-61 49c-12 9.33301 -20.333 15.333 -25 18s-10 4 -16 4c-12 0 -20.167 -3.83301 -24.5 -11.5
s-6.5 -19.167 -6.5 -34.5v-21c0 -4.66699 -1.66699 -8.66699 -5 -12s-7.33301 -5 -12 -5h-31c-4.66699 0 -8.5 1.83301 -11.5 5.5s-4.5 7.5 -4.5 11.5v21c0 35.333 8.33301 62.333 25 81s40 28 70 28c19.333 0 39.333 -8 60 -24l71 -56
c5.33301 -4.66699 11.333 -8.16699 18 -10.5s12.333 -3.5 17 -3.5c10.667 0 18.333 3.33301 23 10s7 18 7 34v23c0 4 1.83301 7.83301 5.5 11.5s7.5 5.5 11.5 5.5h31c4.66699 0 8.5 -1.66699 11.5 -5s4.5 -7.33301 4.5 -12v-23z" />
    </font>
</defs>
</svg>
